<mxfile host="app.diagrams.net" agent="Mozilla/5.0 (Macintosh; Intel Mac OS X 10_15_7) AppleWebKit/537.36 (KHTML, like Gecko) Chrome/137.0.0.0 Safari/537.36" version="28.0.7">
  <diagram name="第 1 页" id="xLFAwyEpV1W7mokLGki_">
    <mxGraphModel dx="1851" dy="1191" grid="1" gridSize="10" guides="1" tooltips="1" connect="1" arrows="1" fold="1" page="1" pageScale="1" pageWidth="1169" pageHeight="827" math="0" shadow="0">
      <root>
        <mxCell id="0" />
        <mxCell id="1" parent="0" />
        <mxCell id="EKZ-5xImnmZOkho89sH5-1" value="" style="shape=image;verticalLabelPosition=bottom;labelBackgroundColor=default;verticalAlign=top;aspect=fixed;imageAspect=0;image=data:image/png,iVBORw0KGgoAAAANSUhEUgAABCgAAAOSCAYAAAC2nuFhAAAMP2lDQ1BJQ0MgUHJvZmlsZQAASImVVwdYU8kWnluSkEAIEEBASuhNEJASQEoILfSOYCMkAUKJMRBU7MiigmsXFbChqyKKHRA7olhYFHtfLKgo62LBrrxJAV33le+d75t7//vPmf+cOXduGQBoJ7hicS6qAUCeqEASFxLAGJOSyiD1AASggAboAOHy8sWsmJgIAG3w/Hd7dx16Q7viINP6Z/9/NU2+IJ8HABIDcTo/n5cH8QEA8GqeWFIAAFHGm08pEMswbEBbAhOEeIEMZypwtQynK/AeuU9CHBviVgBU1LhcSSYA6pcgzyjkZUIN9T6InUR8oQgAGgNi37y8SXyI0yC2gT5iiGX6zPQfdDL/ppk+pMnlZg5hxVzkphIozBfncqf9n+X435aXKx2MYQWbWpYkNE42Z1i3mzmTwmVYDeJeUXpUNMRaEH8Q8uX+EKOULGloosIfNeTls2HNgC7ETnxuYDjEhhAHi3KjIpR8eoYwmAMxXCHoVGEBJwFiPYgXCPKD4pU+GyWT4pSx0IYMCZul5M9yJfK4slj3pTmJLKX+6ywBR6mPqRdlJSRDTIHYolCYFAWxOsSO+Tnx4Uqf0UVZ7KhBH4k0Tpa/BcRxAlFIgEIfK8yQBMcp/cvy8gfni23MEnKilHhfQVZCqKI+WCuPK88fzgW7JBCxEgd1BPljIgbnwhcEBinmjj0TiBLjlTofxAUBcYqxOEWcG6P0x80EuSEy3gxi1/zCeOVYPKkALkiFPp4hLohJUOSJF2Vzw2IU+eBLQQRgg0DAAFLY0sEkkA2EHb2NvfBK0RMMuEACMoEAOCiZwRHJ8h4RPMaDIvAnRAKQPzQuQN4rAIWQ/zrEKo4OIEPeWygfkQOeQJwHwkEuvJbKR4mGoiWBx5AR/iM6FzYezDcXNln/v+cH2e8MCzIRSkY6GJFBG/QkBhEDiaHEYKItboD74t54BDz6w+aCM3HPwXl89yc8IXQSHhKuEboItyYKiyU/ZRkJuqB+sLIW6T/WAreCmm54AO4D1aEyrosbAAfcFcZh4X4wshtk2cq8ZVVh/KT9txn8cDeUfmQnMkoeRvYn2/w8Ut1O3W1IRVbrH+ujyDV9qN7soZ6f47N/qD4fnsN/9sQWYPuxNuwkdg47gjUCBnYca8LasaMyPLS6HstX12C0OHk+OVBH+I94g3dWVsl8pzqnHqcvir4CwVTZOxqwJ4mnSYSZWQUMFvwiCBgcEc9xBMPFycUNANn3RfH6ehMr/24guu3fuXl/AOBzfGBg4PB3Luw4AHs94ON/6Dtnw4SfDlUAzh7iSSWFCg6XHQjwLUGDT5o+MAbmwAbOxwW4A2/gD4JAGIgGCSAFTIDZZ8F1LgFTwAwwF5SCcrAUrAKVYAPYDLaDXWAfaARHwElwBlwAl8A1cAeunm7wAvSBd+AzgiAkhIrQEX3EBLFE7BEXhIn4IkFIBBKHpCBpSCYiQqTIDGQeUo4sRyqRTUgtshc5hJxEziGdyC3kAdKDvEY+oRiqhmqjRqgVOhJloiw0HE1Ax6OZ6GS0CC1BF6Nr0Bp0J9qAnkQvoNfQLvQF2o8BTBXTxUwxB4yJsbFoLBXLwCTYLKwMq8BqsHqsGd7nK1gX1ot9xIk4HWfgDnAFh+KJOA+fjM/CF+GV+Ha8AW/Fr+AP8D78G4FKMCTYE7wIHMIYQiZhCqGUUEHYSjhIOA2fpW7COyKRqEu0JnrAZzGFmE2cTlxEXEfcTTxB7CQ+IvaTSCR9kj3JhxRN4pIKSKWktaSdpOOky6Ru0gcVVRUTFReVYJVUFZFKsUqFyg6VYyqXVZ6qfCZrkC3JXuRoMp88jbyEvIXcTL5I7iZ/pmhSrCk+lARKNmUuZQ2lnnKacpfyRlVV1UzVUzVWVag6R3WN6h7Vs6oPVD+qaanZqbHVxqlJ1RarbVM7oXZL7Q2VSrWi+lNTqQXUxdRa6inqfeoHdbq6ozpHna8+W71KvUH9svpLGplmSWPRJtCKaBW0/bSLtF4NsoaVBluDqzFLo0rjkMYNjX5NuqazZrRmnuYizR2a5zSfaZG0rLSCtPhaJVqbtU5pPaJjdHM6m86jz6NvoZ+md2sTta21OdrZ2uXau7Q7tPt0tHRcdZJ0pupU6RzV6dLFdK10Obq5ukt09+le1/00zGgYa5hg2MJh9cMuD3uvN1zPX0+gV6a3W++a3id9hn6Qfo7+Mv1G/XsGuIGdQazBFIP1BqcNeodrD/cezhteNnzf8NuGqKGdYZzhdMPNhu2G/UbGRiFGYqO1RqeMeo11jf2Ns41XGh8z7jGhm/iaCE1Wmhw3ec7QYbAYuYw1jFZGn6mhaaip1HSTaYfpZzNrs0SzYrPdZvfMKeZM8wzzleYt5n0WJhaRFjMs6ixuW5ItmZZZlqst2yzfW1lbJVvNt2q0ematZ82xLrKus75rQ7Xxs5lsU2Nz1ZZoy7TNsV1ne8kOtXOzy7Krsrtoj9q72wvt19l3jiCM8BwhGlEz4oaDmgPLodChzuGBo65jhGOxY6Pjy5EWI1NHLhvZNvKbk5tTrtMWpzvOWs5hzsXOzc6vXexceC5VLldHUUcFj5o9qmnUK1d7V4HretebbnS3SLf5bi1uX9093CXu9e49HhYeaR7VHjeY2swY5iLmWU+CZ4DnbM8jnh+93L0KvPZ5/eXt4J3jvcP72Wjr0YLRW0Y/8jHz4fps8unyZfim+W707fIz9eP61fg99Df35/tv9X/KsmVls3ayXgY4BUgCDga8Z3uxZ7JPBGKBIYFlgR1BWkGJQZVB94PNgjOD64L7QtxCpoecCCWEhocuC73BMeLwOLWcvjCPsJlhreFq4fHhleEPI+wiJBHNkWhkWOSKyLtRllGiqMZoEM2JXhF9L8Y6ZnLM4VhibExsVeyTOOe4GXFt8fT4ifE74t8lBCQsSbiTaJMoTWxJoiWNS6pNep8cmLw8uWvMyDEzx1xIMUgRpjSlklKTUrem9o8NGrtqbPc4t3Gl466Ptx4/dfy5CQYTciccnUibyJ24P42Qlpy2I+0LN5pbw+1P56RXp/fx2LzVvBd8f/5Kfo/AR7Bc8DTDJ2N5xrNMn8wVmT1ZflkVWb1CtrBS+Co7NHtD9vuc6JxtOQO5ybm781Ty0vIOibREOaLWScaTpk7qFNuLS8Vdk70mr5rcJwmXbM1H8sfnNxVowx/5dqmN9Bfpg0LfwqrCD1OSpuyfqjlVNLV9mt20hdOeFgUX/TYdn86b3jLDdMbcGQ9msmZumoXMSp/VMtt8dsns7jkhc7bPpczNmft7sVPx8uK385LnNZcYlcwpefRLyC91peqlktIb873nb1iALxAu6Fg4auHahd/K+GXny53KK8q/LOItOv+r869rfh1YnLG4Y4n7kvVLiUtFS68v81u2fbnm8qLlj1ZErmhYyVhZtvLtqomrzlW4VmxYTVktXd21JmJN01qLtUvXfqnMqrxWFVC1u9qwemH1+3X8dZfX+6+v32C0oXzDp43CjTc3hWxqqLGqqdhM3Fy4+cmWpC1tvzF/q91qsLV869dtom1d2+O2t9Z61NbuMNyxpA6tk9b17By389KuwF1N9Q71m3br7i7fA/ZI9zzfm7b3+r7wfS37mfvrD1geqD5IP1jWgDRMa+hrzGrsakpp6jwUdqil2bv54GHHw9uOmB6pOqpzdMkxyrGSYwPHi473nxCf6D2ZefJRy8SWO6fGnLraGtvacTr89NkzwWdOtbHajp/1OXvknNe5Q+eZ5xsvuF9oaHdrP/i72+8HO9w7Gi56XGy65HmpuXN057HLfpdPXgm8cuYq5+qFa1HXOq8nXr95Y9yNrpv8m89u5d56dbvw9uc7c+4S7pbd07hXcd/wfs0ftn/s7nLvOvog8EH7w/iHdx7xHr14nP/4S3fJE+qTiqcmT2ufuTw70hPcc+n52OfdL8QvPveW/qn5Z/VLm5cH/vL/q71vTF/3K8mrgdeL3ui/2fbW9W1Lf0z//Xd57z6/L/ug/2H7R+bHtk/Jn55+nvKF9GXNV9uvzd/Cv90dyBsYEHMlXPmvAAYbmpEBwOttAFBTAKDD/RllrGL/JzdEsWeVI/CfsGKPKDd3AOrh/3tsL/y7uQHAni1w+wX1aeMAiKECkOAJ0FGjhtrgXk2+r5QZEe4DNkZ9Tc9LB//GFHvOH/L++Qxkqq7g5/O/APbafDJFEM6gAAAAbGVYSWZNTQAqAAAACAAEARoABQAAAAEAAAA+ARsABQAAAAEAAABGASgAAwAAAAEAAgAAh2kABAAAAAEAAABOAAAAAAAAAJAAAAABAAAAkAAAAAEAAqACAAQAAAABAAAEKKADAAQAAAABAAADkgAAAADHhzq3AAAACXBIWXMAABYlAAAWJQFJUiTwAABAAElEQVR4AezdB3gURRsH8JdLIYRmEiCUUEILvfdepClNioUioBRFmhQFESmKIiCCfoCIoAKCoCAiSO8gvffeS+gkJIS0+XZDbm5muCSX5C53l/vneZT33dky85u7y+1kdzYD034IPxCAAAQgAAEIQAACEIAABCAAAQhAwI4CBjseG4eGAAQgAAEIQAACEIAABCAAAQhAAAJxAhigwAsBAhCAAAQgAAEIQAACEIAABCAAAbsLYIDC7l2ACkAAAhCAAAQgAAEIQAACEIAABCCAAQq8BiAAAQhAAAIQgAAEIAABCEAAAhCwuwAGKOzeBagABCAAAQhAAAIQgAAEIAABCEAAAhigwGsAAhCAAAQgAAEIQAACEIAABCAAAbsLYIDC7l2ACkAAAhCAAAQgAAEIQAACEIAABCCAAQq8BiAAAQhAAAIQgAAEIAABCEAAAhCwuwAGKOzeBagABCAAAQhAAAIQgAAEIAABCEAAAhigwGsAAhCAAAQgAAEIQAACEIAABCAAAbsLYIDC7l2ACkAAAhCAAAQgAAEIQAACEIAABCCAAQq8BiAAAQhAAAIQgAAEIAABCEAAAhCwuwAGKOzeBagABCAAAQhAAAIQgAAEIAABCEAAAhigwGsAAhCAAAQgAAEIQAACEIAABCAAAbsLYIDC7l2ACkAAAhCAAAQgAAEIQAACEIAABCCAAQq8BiAAAQhAAAIQgAAEIAABCEAAAhCwuwAGKOzeBagABCAAAQhAAAIQgAAEIAABCEAAAhigwGsAAhCAAAQgAAEIQAACEIAABCAAAbsLYIDC7l2ACkAAAhCAAAQgAAEIQAACEIAABCCAAQq8BiAAAQhAAAIpFginW0fW0vyf/qGTzxLfyaOTq+mnbybR94v/o+tRia+b0tK0OEZK6+bY2z2j+2d30LI5C2jbrRjHripqZ6EA+tRCKKwGAQhAwKEE3B2qNqgMBCAAAQcUeLh1Bn3511my+JwyQxaq/PYo6loxo/nWRJ2iJRNm03/3Y82X86Vu5N+gLw1tW4Q8+DIEdhcIv0VHtm+g9Zs20ab162nrkRsUWbAvLXuzFZVKoMufHZ9BPZoPpOU3ookMmWnugN9p9eSWlNvNeq1Ji2NYr7b231PMwwu0d9sW2rZjB23bsom2H7xKoV6NaFK1jlQvjxU7xv5NdZkaoE9dpqvRUAhAIB0LYIAiHXcumgYBCFhHIGPeklShVCRduXSMNv/5B206H0ovDi0YyLfMq9SxVQ0qVaQ4Fc2RyMerwYcCSwXRlSMn6ci2lbR8+0UKE3ZoyFyYar/ajGpXKEslCmQjXOpmnX5M9V6iztHiTz6krxdtpiM3wqXXQCK9rR02is6t+YvW64MT+k9sGB1dspx2jm1J7bM9X5T6/6fFMVJfS0fYQ9TFP+mzId/Qks176fLjWKkfHaF+qEPyBdCnyTfDFhCAAAQcVSDx71SOWmvUCwIQgEAaCngXa0idtf/0n4+HdqOxbV6h8TvDhBMbd8r/+v9o9Zw+VDqLBRVzy01V2/fR/tPWjRlKq4a1ozem7Y8bpDD4NabRS3+jkfX9CX/DtcAyLVfxyE21e06gX958SOfXTaWPxyyj85GWVEAbvPLPRVm0kSbjQJRn7tzkb9XLYtLiGJa01fHX8chVg7qP/4V6ekTRzf9m0pAPfqB9xo5x/OqjhmYE0KdmULAIAhCAgJMK4A9zTtpxqDYEIGAfATe/6tTmlUrkJR5euyKiQdsOlg1OiNvpsVt+aj6wDzV/Sf841gY62n9A/TA4oSo5SJ6VAoLKULnKdandwPeoTVFPC+vlRnnbD6dJ79Wngtkyk3+FDjRqQl+qmcnCzS1aLS2OYVFFHH+lLAEUpF3BVKRYGarbaRB1rW/VjnD89qfHGqJP02Ovok0QgICLCuAKChfteDQbAhBIqYA7+efKKV/d4J6L/HOm/CTHLXcFqlTKi5buyEBlypalrCmtGrZLOwE3H/L11X+FWnQJBZF3Weo6fQt1/S6GYtzc5NdPYrV+dprmT95GZYb2poSmNOGbp/QYfAcuGHj4a+9nb+02KvGKKBd0SE9NRp+mp95EWyAAARcUwBUULtjpaDIEIJAaATfy9PCgDOIuDB7k4SEtEUuTjt39KWdO7YYOgyf5+ObAhJhJiznAGtqvz5R0eXIGJ+gJHZg5lEb+eYkeJ+fBEsk6hgNQ2rUKGcjD09IrYexaURzcYgH0qcVUWBECEICAAwpggMIBOwVVggAEHFvA7Hmp2YUWtsPNm7y89B14kKcnZp6wUC2drxZDd9aPp/5jVlMwS+dNRfMgAAEIQAACEIBAvAAGKPBSgAAEIGB3ATcyxH0au8f/a/cKoQJ2Foi6sISGD5hCe7SnTOAHAhCAAAQgAAEIuIoABihcpafRTghAAAIQcA6Bh7tp2oChNP90pPCkGOeoOmoJAQhAAAIQgAAEUiOASTJTo4dtIQABCNhNIIYenv+P1q87QVmav0uvFDY+szKGHp3bRqs3HKCLt0MoNkseCqr+MjWtXYxeSvbdI0/o+qEdtHXPabp2+wE9y5yL8hcoSIWCKlCNCvnJO9ltD6Ur+7bTjsMX6Nbd+/Q40pOy++WkvEUqUp26VahAsmYHTYP2Pwumo1s2094zV+nGvTByy5abilVqSC/XL0F+yW67aYOQiztozbrbVLRbB6qkzK0ac3sHfdevB41cc5OijZtEh9G9K+foHP+NnYG8chSk/D7GPjeuaPo3sWOY1lIjJ+ufJ9foyIFjdO7qNbp+7RY9iMpIL+XIQ0Uq1aP61Qqn4PWuelgpf3qbTh0+SifPnqdLt8LIPXsO7WkwVah2jbKUxzuGQu7cJ0Mu7TG0SR3Oiu19evsobVu3mW4WfIverp/LNGlrzAM6vXk1bTx0ke6EuZNvQFGq3PhVqhOYwLs95ALt2LCNjl26RcEhMZQ5dxDVbNac6hTOllRreHno5V20bvU5ytG+M9XPFf8hFfOQzmxbT9uPX6Gb98Ipo18+KlyhITWrXYSyJftzjB/K4uDZ3dO0Z9tOOnzxNt0PiSIvX38qUKoWNapXnvIo79lEd2qtvk/0ICiEAAQgkM4EGH4gAAEIQCBZAnd+eYNpX7/1mQGe/+dVgY3YGp6sfcgrP2QLOmdjZMjLei4NkYukLJLdObGBzZ80lHV5uSTzczcw8qrCPt3+/NjRwbvZT/0asALe2nJj3fR/DdlZmdcnsy23o6W9JZhE3mJ7FoxmnWvkY14GL5arWEVWu2EDVqtMPpbZoO/Ph5Vs8QGbvPwou5/gToSC0Atsw/T+7NUyuZinITMLKFuXNXu1OatfqTDz1dtABuaZqyxrNWgG23gxTNhQDdOq/dfYthn9WfOSvszd4M1yl6rFmrRowqoX89M8srFSr41hfx3bycbX9ebO7oF92YpQtb6mPCL4KFv90+fs/TaVWF4vrc3ZurCFSleHHfqRdSqdlWmXNvL9Sv3Il2dlbWddYWpvWnIMU42EyMn6J/LmXrZ4Qh/WLCg788pdibXs1pcNHtqf9WhfhxXJrNkaPJl/9e7sm3WXWITQTPNhCFvWO5/J3LsRm3Q06a3M70tdGsLOrJzIulXVXvf+lVjrdwayEaOGs37d2rBq+b2YV65SrF7zuqxEuQ/ZmkRe9tZqb8ilXeyvmWPYe22rs4JZ9fddZvbKd2dZZFy19bp+zd6u6q+95uXXn8GvIuv+wwH2WGze/UNs4cjXWdV8Xia7+Nenwbcy6zFbWV/cVosj75xga38ez/q1rcoC9M+rzC3YtDN6TcLY+ZXj2VtV8mrvNbkepH0W5avTh03fdi2+zspOeZryPg09t4ZN69+cBWXTfZTja59TWYs0Yf1nbmVXk3yJWKfveZMQQAACEHAhAXKhtqKpEIAABKwiYI8BivC9M1j3ekVZdvVLe9wARRh7sO8H1q18dmYwGJiXTy7mqw5SkDsr8PpP7PTzs5EEHSKvrGcTXy/FsmoDCcVajmC/br/I+Hl09AO2/7t2rIB7/Bd399ys/ohV7Kp6pizsPfTUYjaojnbSox3fv1YfNnPLJWY6j49gN/cuYqNaFeEnI+7+ddngxae00xT5J63aH317C5vYtpg2EGNg2ct3Yd+sPsMe8vaFs6tbp7NeNfyZZ86irKi/Oz+JMTtAEX6V7f5jGvu4ayNW3Ec54TEzQBF+djNbsmghWzj/S/Z6EWHfRV5nX87Xli80/reYrT8Z3yvJPIasypiz9c/jfTPjB3HcWb5m49iGG+ILOpLd3PYVa5n3uZ3Btw77ZN3tFwZyZIOUn8zK+1Gzx2zftDbae8XAslX/kC0/L7+iwy/8yz5vVZhpzw9hZl878buzRnsjLyxhw1qUZf76wJh00v18gCLizm42u08Nlkt7Xxvcs7OCFaqxCgWzSwMVhszl2cB/dMtoFrz9O9a1om/cuvlLVWG1a1dhQXmzKutXZEPX3FNQotnlTT+wEd2bsJK+7vLAhj5AcfoG2/DFKyzQU62nPFBgyF6F9fvjfCKDTynp03B29q8RrGkBL5a1ZDs26qflbNP+M+zSucNs++pf2ejXSmqfifH10AYpK/Scx46ZPsiUdlqn75WdIoUABCDgMgIYoHCZrkZDIQABawnYY4AiOvg8O37+Kru4Zy57p7Sn6UTDqxLrO2kka5Y/KyvedjRbtOtK3Ml99OOrbN+ij9nLAaYTXfIswfqvepggQ/SN1ezjWtqJhyErK997ETtj7qKQ0M1seAUv0/HdA1n3hVfNngSGn5jDOhfX/8Kq/eWx2hC26ho/05frEHqcze1aPO5kTT+BMngVZ51+Os7Ew6dF+9m97WxCiwBtMEUb5Cndk/1+Xjz5NVU5Ongt+6iqfKWDuZPM6Gtr2f/GjGeTpk5ho7tUYT7GExz9JNHMAAU/QphmXN7Ux57lh7PN8vktXzXFx9D24HT982Ad+6hS5ucntu5FtdeyuTPEMLZnXG2m3ZCgvUYNzLvmGLZLfCFxOWOQkpNZ47YJ/xtx+BvWzFc70fYsxQb++8DsitE3lrH3SnoyQ96ezOyFU9Zq78NL7Pjxi+zahe3s+zeLaK9v4wm/N6vz3mesW+X8rEzroWz68p3s1O34F1r0fbZn+pssiA9qGJhP82/Z9jWjWdOAvKxO3+lszYl7pvd99B22+4durFzclRnP7X1b/k8ZEI1kZ9b8xKb/71v2ed8mrKA4EOFdl/Ua1Fy7miIvq/bWCPb9wn/Ylj372I41i9i3H7ZkJZUrGgx+TdjEfQm8KbQh1eRdFRPNbq75mNXycWd+DUaxDTfNfE5FXmKLe5bgn1GkDVLU/mwbM/dpapW+N/uKwUIIQAACriGAAQrX6Ge0EgIQsKKAPQYoTNUPY5s+Lmf6oqyf0HsWYM0+/Zudf+FELJpdmd/VdMWDdhVD4Q9WmK6IMO1Uu7L6AJvW6vnJeeZqI9gm8+dU2hahbO3gUsLxtROXN35ht8R96fFD7RaIl3M+P5n0LMc+XK3+NVXeIPrWKjawvGngw+DXgI3bbq4SNmp/dDBbPbgi89YHETyLsT5Lb5pOvuSqxmX31w9lFb2MJ3qJ/xU8boMHy1mfQGGwyEoDFFLVknMMZ+sfraG3f+vK/I2DPAZ/1mOJdNMBpwhbN4SV8ozvG6+abOzuxK7HT+7JLD9MIkGENkhS8/kgSdaWbPoFMye8cVtHshNTm7PsPm+zRWaaYov2Pl7+HitovAJK/+zwCmJvfr+TBZurYvQ1Nr9LPtOAhjZwmS17QdZ22l5m7p3JWDBb8m5Bvr4hWys2/Zz5QT4WcYhNaGC6RSruNq+Cr7Av1l01c/tGJLu6dhRrnEu8ssLA/NtMZyfN7j55fRp5YR7rrL83tavRRmzl14u90L8RRyayRvotRPEDPAbfluz7U2oFrNP3LxwcCyAAAQi4kACe4qH9psEPBCAAAecR8KBcOf2JT49oyExNxq+gPz5vTUVemLzNjQq0aEENfI0f9dF0+/gJOv9MbW0UXVj0NU1cfZ2i3XNTm359qZ6Puo4xz0K1WrehstqZvPEnY0ZPMmX60ig6/dsEmrLpbtxTKLyrvU6dGiY+raRb7ibUv39Lyh2/o9j722jqV/PpxAt1tUX7iUK2TqGRPxyhcO2pnt5Vu9G7LfKYJg40NlT417dWE2oYqF2gb+mPd0EKLJiM9S3dr7iexcdwvv7RX1N3b96kJ8anrsaG08MHjyhGbH98nCFLFtIux3/+E3mWzl8MN7OWLReF0bkzpylCP8Szi3T+XFgCB/OgoLYdqEmWKIqMUlexTXs9cuQi7VaO+B93yvP6aPq2Xy0yzk1pLIn71y0PNWpQg7R5Z57/xD6l7K2/oO8+qErmPx78qHbNKmT8aIgNP0RHjsUpSLuNSzIWoLx5eEWIPIvSO1N/ppFN8ps+2/hWHpS/6UiaPr495eebxFLw2nm0eF9q+/YRbZ/1LS29FE3e1dtTx+oJz9SbMagxNa7kxWsV+2AT/bn8OMkfUdboe34IBBCAAARcUsD4a8clG49GQwACEHBGAU9PPjyhVd+dcgUUpgS/VnsXoIIFTCfG0Xfv0T31rO7RZpo5bTnd0B4bYcjVlFo3D0j05DxL/Q+1wYO3qV6Z0lSj/cf0/Yi2lEuEDN1OP89eS/fjTiY9qUjNmlQqo7iCudiDirTrQm0DjWcgsfRgwyyauyX0hZWt3v6Ya/T33AV0VB+d0J5NUqFZEyr3wmCPUg03P/LLYayrUmYuNXiRV8YM5kqst8zSYzhb/8QJeVDhBi2ojr9ubiDPwBb0ar0EBpFE5thIevTI/ECG9eDVPTGKjY0fSdEGSBZNm037QtR1nuduAdpTYep4UPQz9U1pm/YaPD3JU/jm55U9WyJPD3Gjl/IXJNM4goGy+ucmvwSfouFG2fzzUA7j/qMf0tVrN7WhJXM/HuTpqd1MZSzyKEwlS5kf9ni+SkYK6jSY3q3qbdom4gitWn2Qnhr3kYJ/Y678RT/+ekQbTPKkwtWqUVBin1MZi1P58nm0T1zjTwQd2rWbbkhdZ42+N+4f/0IAAhBwTQHT56xrth+thgAEIJC+BfST1kz8NIBinz6lCONfoeNb/mDzMlp2KjIuy1ShElV6KSmSnFRnwM+0dYD59cIPbaD1Z57vjygjFSlaVPu/BT8+denlRnnppwtXnz9iM/I8bdi0n8KbNUzBI03jj2dB+6Mu/E2LV956fkz3HFS2XEkL6iueBVvQNkru+pbsU13HsmM4W/8YW+ldZQj9vrUSbTgcQgE1mlCNguJAnXEt7V/9Inz+E0uRkZFxV/IkeF7N17VWkIWCSpYmL/qPwrVX1e21n1CHDrfpi68+ok6Vc8qDf26Fqc/CX80e2BHam8E7k+kKCrO1lBcavLzI9HHDKDREe9SxvEoCmQWvXe+K1LZtdZq4a7Pmqv9E0KmDh+lGVB0qmsBLIYGDxS+OoVub1tKGu3oNo+nm8o/o5R2mwVxz20YE3xPaE0vhp07TGW2EpDB/Rqx1+t7csbEMAhCAgKsIYIDCVXoa7YQABFxUIKkv/uF08L8dcVdP6H+Zzp43H+VO0Zd9I+8zOr9nN50xXtltcKcsWbPJJ2XGVV/4NztVrlSRMtFVen7dRKS2rz105llDqmjRCMcLO9QWJNV+ovt7/qO9ofGnUZ6FbX8rhrlqptky5+sfkealoIbUIUhcYoqfXN5ByxfOo/nzltA+4+tPL2aWnSKb9pTaKCNVbN+JGv9vN/1zRzu2dhXH1fWTqfvuf2jJByNp9IedqIrZeypePK7925vBgneQUG9DBtMVDtqp/NOnEcIJvbBeisKMVLx2HSrltZn2x/dv1JUrdFm7RCNlAxThdOjAPnoc9/JwJ/8i5alM/iSGscqUoSqNhcq7FyQP41hs3GLr9b1wFIQQgAAEXEoAAxQu1d1oLAQg4OgCSZ9OW7kFMcHa/fJX6fl3bG0wIXNmCwcTEqpHFF28cC5+f9o6sTEUHWX+Iu8X9+BGuYoVI/2OlBPxX/ojL12la9rmKR+gePEo8pIndGjffnpoPId10+YvyJaefzU6W//IvfViFkoXt/5FC+bNo4WbH1CpNm9Tz5Hv0oPeU/hJ7Ivb2H6JR6l36MsJe+hCv9/oZNytQ9pbIfQMrZzQnTYv/Z36jvyMhnSqTv7JHgx0zPYmJCpdzJLQSslYnql4MSquTXKxP/4ysOj7D+mxdItFMnYWdYsuXQx+fuWUds1UyfZjaWbPxG9vs2Tvtut7S46OdSAAAQg4v4Dpul/nbwtaAAEIQCBNBAwGMx+dqfomHqPds65VXbsdwdMzjYcoIm/R7WDjAEI0hYSFmZ140HLYZxTyOCT+S7++FaMnT0Is3qeHv790BUfsk3B6mirbJGoe84CuXbst1Ff7i3Ead0ESNbRysZP1T0KtD79M234eQz0aVqRKnX+im2UH0JLde2jZt4OoZbGsqRxkS+igyVmeicr0+IH+mNWLKmUXPy9iKezcvzTpncZUp/Vw+v3oI8t26vDttawZqV4rszbJZ05hAFH74DSOLSZ739F36d5d4+hGDD16+ED4HEj23oQNrNz3wp4RQgACEHAFAfG3piu0F22EAAQgkGoBT+2pFe7ip6d2CXdkZCrOomOe0rNn2vaGjNpEiuKOU13VpHfAtLo/M37F106e7t6h+8bv7ElvbWYNg3KCH0XBt2+brqgws4W4yKA9gSGLQGDw9iKbzi0ZG0qh/NEQWk1intCTUG220HT742T980I/RNHVTd9Rrya1qXHP7+lw3j7avBRr6IdBralcrmRfjvDC3q27wJtKdZlOq9fPpcFNCpKX8Lqm2DA6v+Zr6tqkOb338yFKYA5NrTrO1F7r6pndW4bMlJk/VkSbItj3JcqWxF0ZZvejL2Ta01MijZ99kXTpytUEJvRMcA+JFFij7xPZPYogAAEIpGMB8ddlOm4mmgYBCEDAegJuL/lR3MMEjLuMfULhT41fdI0Lk/Fv7GMK0edA0CZo9PVN6bftZBxPXNUtm3RLw9PDh+lIQk9FFLdLMPYgX7+cwkz32jwS5y/EzymR4EamAjc34R52jSRfbsptU5KMlFGc3yL6Bt24abyixFSt9BM5W/+I8vdpz8we1PK1D+mn3Y+p/Adz6a9fhlHzIt7iSg4Wa7ctaY+t/eafbfTvtD5UL7+X9PqOvrOHZvftTP1+OWHmaRTO2F4b87Nn9IwPKhB5BBaiwJSOS0m3c0VT8JGj2nw31qx/avremvXAviAAAQg4lwAGKJyrv1BbCEDAAQQ8ChWkQuKXYu1xerduP7T4NoYXmhB1k27eiNIuoAig/AXEs+UX1rT+Am1QJIf23EDjL4PoW1tp4/aHqThOJipRqhRpt4nH/2hXZZw4QSeeT7tvXJjgv7FPwij+ln1tHXfKq02aWSKpR34muDcLCjx86aXswuMOI2/Q6dPXrPiXVAvqkKarOFn/cBtt7oxFQ6nboEV0LCSW3It0oZGftpHfh3xdBwwyFqCG/X6gdf+tp1mDm1FR4SqA2IhTtGj0RFp2Tbx0ycnba6suiH5Mjx4Yr3DyolJVKlN+8bM4Ocd19yGfl0yjnxHa04c2nk7mCEXUdTp++DI9Sey4ye77xHaGMghAAALpX4B/hUz/TUULIQABCFhHwCOgDJUtLD6O7hmdPnXSzF9ALTte1JUTdPxKJHlVqEDlslm2jdXWcstJ5cqXIt4a7dGeyxYsp0viuVJiB4u5SauGd6MvdxhHINwooFYdquRl2ijy7Hbafkx7Fp8FP1E3btB14wUMBj+qVbsGJfnUUwv2m/AqmahY8ZKm9mu9uHfrVpLOFRPe2AlLnK1/4omf7KTZE3+nM3F/PTeQT60G1CCXo/KH0spR79FPJ40vZFM9MwbUoZ7f/EObV31Db5byNg0MXl9Of6y6ahrkdKr2mtpn6+jZ5Qt04VH81Wqehah27XLaU39S+OOWR3scbEH+3o8N20UL52+lBxbv7hmdmPshdf5qI93hn5dW6HuLj48VIQABCKRPAQxQpM9+RasgAAFbCnhXoUZNivEvtqTNsHB5yxban+if0RKqUBSdW7eWdj/1ovIN6lOJNL6AgrSv96Vr1qZAPkIRTTeWfU3jl16x4CqCZ3Rm/kc04mBpalbZdJl9xhItqFXd7PzkiyKO0IaNJynpv01G0c3Tp+hy/BM8PINepzea+ycEZ6XlmahU1aqUn8+7F0uPNy2jZceTrq1UgVTc4SPtx1zyTLus3dzyFC5zrv553sinhzfQ+tPGZ4caKFu2rJTgH85jmTY1qz1/YujxpZW0blewacBBqo4HBdQfRD/+MooaGifQ1OaxuX79Bp+rxbnaKzXOhkkMBe/bR0fjXgYG8q7yFr1ZL2sqjudN5SpXoRz8m3AEHZs9lqZtt2zi0tB939PQcaepUY92VJhfiJH6vk9Fg7ApBCAAgXQhwD+W00Vr0AgIQAACaSKQjRp07kw1hcu0I44vpFlLzllwUi9X8NnZ3+nrmZsoNEcL6tapkvawO0t+knP6FUssidWz1nuTOlU1/TWXIs/QrwPfpc/XXk+kPU/oxIJB1OXjU9Tio15UWfwzZsay1LnPm1SED3qE056FC2hzUneOxFynTZt2Pb8SxeBLDXv1pCZ+5jySaJC0iQXtr9uO2pc1XfIRG7KZZn6zhC6++Adw0571yTSFyTVjnz6liESrpdXDtLUWxVKM8Up1abmWZNDmxRBmVIx+8IhCElpX2tbCYzhZ/+hNjL55gw9c6XZ3L1+hYP5XawmBorSJXu8KXjExCawob2bl7Alt37xZ+Mv6i7vPWult6tQ0a/xAnoFeeik7n7vFYdub1IfJi8203pKoy7R65abnjwR2D6A2vTpTJfFzJwVHyvlyW2pThI9OUmzIbpo6aDgtPJnYaHMM3d3xLXXvNJpONRxG/Zv4KEdOXd8rO0MKAQhAwOUEMEDhcl2OBkMAAtYQyFi+K33YvbRpZv7oq/TnyEE0ba9lf33T6/D04ioa+94QWnAuM9XrP5TeKprg34SFKsfS04hnysmuUKyGMdpTKsSz26iYF/+qm6mSdm9/FyrOBxS0E8LbG2l8+8bUfsQc2njmgbBNDD08vYZmDO6gnSDMo8iOo6h/Q/ULOpF/y4/pi7e1Wyfif8tEnlpEM387nuhtME/2zqNf1z3STj+1uSdeHU1f9SlnZsDGBu3PWpu69WlB+fh5SrQ238Fw6vfNjgROMJ/QsQUz6Pdjxr/oa6fMT87TubOJXOeg/YU87kktxv5hT+npkwROnD1zUc4c/E+y2r7PaPNiyLfIPDy2g/aqk3km4xhO1T+aWYbMWch4sYE+QPFEezLGj5vVi/G11+bxJTRuylK6wgcotGWPHiX6+MjoKHEkShs4ssrVMIzurFlCS8+K+zZ2fvy/2gS1fn7xVxp5laDq1Yrwq0Js1d5YbVQsOe1jUdrrlnvEahNURmr6ifxolvEXQMWtxFiia5t2pM3Dc/2a/Bo3FT6P7m+aST+suR/3+VCg3Sga3dnkpa5rcZ/6NaHu3euQD/82HEshB2dTr3ZdadT8nXRVqVJU8EFaOqkPte34Ea3M0I7GjnpDuHrCWIvU9b1xL/gXAhCAgKsK8I9kVwVAuyEAAQikSMBN+wve2O/o47p+/FaG6Nv/0og2reiDH3fQdeWLrXiMqAenaf3MAfRK/Xb09dZQKvrG1zRtUC2ybPqJGLqn/YWYn3/FxlLoY3EAQTySFofdopu3+doU/fgu3Xuknhi7Uf7XRtGE9ypSVuG3QmzYWfpnQk9qWqYwBZauQnXq1aKKQQWoUPlX6YNvN1J0869ozpdtKcB0Lm06uEcgtR8/nUa9nO/5X4Vjg+nf8cNo2s67wmCHaXW6v42mjJxOu7UniPhWf5+mTXmfKpruGhFWtEX7PahE9y9pbPuC/C/Y2p/safXINvRKj69oya4rFDeWEBNOwWe20S9D21LLz45Spjx8RIMofCd93bUN9eg/mIaNmk8H1bGKyOvaJfzCqVvMPbor/plfaCFp98aXLlvUdAtR+F76+asfaGewttOnwXTs77HUtdMXtEk9e0rOMZyqf7QbkSpWo5qma/EpNuIATenxBg2e+Rdt3LaBls//jka+3YAq1hlJZ6u9RnUzG0Ej6cS/v9Oy/w7SrlUz6aMxS+T5RaJu0M2bYaaT7mjt/XFXfX8Y95W8f2Pvr6GpX/xGCY5bhR6hg4f197I7BbR6n7rVNL3gbdXe6Dt36A7/ONBOxh+HJnKVlHbz2v17dF9Y/472KM7EeJ49ekh8DkutZXfv3rfs9qTIY/TjsCH0yxHzD1wNP7uQhg+Zrt3eoc0/Ur0fTZvQjYISGs9NVp96U7V+X9Kwhjn557g+ABZ+Zrk2wFqPKpSuTA1e6UCdOrWnVxpUoVJla9LrH82hvVSPRsyYTF2CzF/zlpq+T96rDGtDAAIQSIcCDD8QgAAEIJBigehb29jUt0oz7cRev4I//j8DyxpYk7V7bzgbO+FbNmP2HPbT9Cnsy9Efs36dGrESvu5MGwdghmylWftxf7PTIZYf/sGRuax7KU/pWH6NP2NrL4e/uJOIS2z1J41YTrFuhuys4afr2dWIF1dn4afZ7/2qMV9xfd4mY9u0fw2ZWYn2k9iWW9FmdqIsureLTe9anml/oYyrs3vueuyDGWvZ2cfx60U/ZGc3/sD618vL3A1ZWVDb8Wzt1UhlJ6bUpu2/t5NNbVeUaXdXCL56bGBevgGsQO6sWh21fstemfVfvJp9UddbWM/APHOWYc3fHcVmrDjC7og0YRfZ+i9bswLuwn4N3qxCz1/YgXviiqZ2hu0ax2pnNQj7147r7cdy+3kzQ+ZSrNsvJ5nUhSk4RtzRnKZ/HrPt4+ol8to0MO/CzdnIv86ysLBt7JOKXpJd3HvTvQBr9e0ext9uETfYzh97sPLeorMnC+oyk+2+JemaOsai6CFb0Dnb8+MbfFiV3j+y/24qr+mQ0+yvoXW094WB5az5IfvrklLOrN/eyOA97LuOgUwbVuM27oFvspmHHzBzr8LIW7vY1A7y+oZsNdigP0+ZDAWPiKtb2MS2BeT9F3yDzToeKqxlDEPY79184z4H4/rGswArVdKPeeaqyNp/NIMt33GMXXkQyu5fOcRW/zCUtSjixQwGL1awyQi2/EIifZPCPo28soqNaOAv1d30eW7y0j8Lspd5k03ZdtusGWPW6HujEf6FAAQg4JoC2r3J+IEABCAAgVQJRN5mB/+cxPo2L8l83MWTHfGLrTE2sMz5q7BWvcaweXuCE/iS+2JtIo79xHo3qsAKZDO/f0P2QFa5USc29T99oCKcbZv4GqtRLCfTbrHgJyP8C7fBk/kVq85eHbeOvXjq8IAd/WMM61SzANOm2JC3Nbgzn1Kt2OCZW9iVRM4RXqz9Y3by74msd7MyLJenXn8Dc8+Wj5UoX4GVzO/DPN19WPEGXdnohQfkE3thR2nW/vArbMuM/qyFdrKkD0ZwM/2kThtACazfh03ffpNFRxxg47UBCkPWgqxmx4Hs63kb2en78mle+I4prFPT2qx8weymEzHh5FB38M5dglVr9DqbtE0dYHrA/vu2HSsmnjxr/n7l2rHRf5/Xevj5T+qOYQR2kv4Jv8DWTHiTlfMR3wPaa8m3FHt10I9sxw3jSX4kO/nj66xg3GvteR8a/Kqwd2ftYfe0Jkff/puNbFmHVQj0ebGP4/pH26dfUValfks2cMEZZtyrUSvpf7WT1C75WOmmHVmHFnVY2QLZmbdvEVa1SQf2Tv9B7IMeHVnjUr7MPXsZ1mHsMnbCOFin7thK7Q3f8S3r3LwuK5tPe71Kr794G+98rGy95qzTN9vjXlcR+2aw7k2qs6Bc2qCAmfVJG3QpUqUhaz1sMbukveQjT8xlfbTPpoI+zwdepfeM/l7PXphVadSKdZu2k79umTbEIQ1QZG7Opu7Zxmb0qcMChH6L25f2eZWr7Cvsg2nr2SXjC1+xskqfPj7F/p7QndUNzGam3dp7tUBt1uWzeWxPsPw+l6tipb6Xd4oMAhCAgEsJZNBbq/0CwA8EIAABCKRaIIZCrx2n/Xv305GzN+h+SAiFhIRTbMZs5OPnR36+fpSnSGWqW7c85Unl5G6prmqSOwin64d20t6TV+n2/TBtDoAcFFCiGtWuVpR8E7q0Osl9EoVc3ku7Dl2gm8F3KTQmM/n456bAsjWoepAfv//egt3YfpWYh3Ru1w46cP4m3Q2JIq+XclH+UjWpXpX8FHchfkww7V61l9wrNaYqAaZL861bsSi6f3Yf7dl/nC49zkg5C5fVbrOpRHlt+Npx/P6JoUeXDtH+Qyfo3M0Iypy7CFWsV5/K5lJflOF0ace/tOnITXrmXYAqNW5KNQrYqp/UXo+hO+cvERUsSs+r9YweXb9MFy5epEtXtMk9wzJTQFBpKluuNBX2M3+LgGmPztBeU20tj0JpcfdC1OnXB89vr8ncgqYd/JsGFCe6e/o/2rb7JN14HE1evrkpILA81ahZnHzN3Upm+QEtX/NZMB3/bxcduxxM90KekXsWP8pbrCLVqFqK/JN871mz7y2vMtaEAAQgkJ4EMECRnnoTbYEABCAAAQhAAAIOL5DQAIU60OTwDUEFIQABCEDAygLCdGhW3jN2BwEIQAACEIAABCAAAQhAAAIQgAAELBTAAIWFUFgNAhCAAAQgAAEIQAACEIAABCAAAdsJYIDCdrbYMwQgAAEIQAACEIAABCAAAQhAAAIWCmCAwkIorAYBCEAAAhCAAAQgYA0Bpj9FTtiRFoupUIIQAhCAAARcSwADFK7V32gtBCAAAQhAAAIQsK9ATBiFhUU/f4KHXhP2lMLDY+1bJxwdAhCAAAQcQgADFA7RDagEBCAAAQhAAAIQcBGBp+fowqUoU2MjztCx43cpxrQEEQQgAAEIuKiAu4u2G82GAAQgAAEIQAACEEgzgSh6cPG4NhBxkDYu+I5+OBxhOnLsHfpzVDfKfqs7vVqtCPn75aXCpQqRr5tpFUQQgAAEIOAaAhm0ewBx159r9DVaCQEIQAACEIAABOwjEHOJlnw6gpaci076+J4VqOf0T6m5T9KrYg0IQAACEEhfAhigSF/9idZAAAIQgAAEIAABCEAAAhCAAAScUgBzUDhlt6HSEIAABCAAAQhAAAIQgAAEIACB9CWAAYr01Z9oDQQgAAEIQAACEIAABCAAAQhAwCkFMEDhlN2GSkMAAhCAAAQgAAEIQAACEIAABNKXgMs/xSNDhgzpq0fTSWvEuVvRR47ZqWIf6TVEPzl+P6GPHL+P8F5CHzmmgHPUSvy9hM87x+wzsY/0GqKfHL+f0EeO30eOWcOU1wpXUKTcDltCAAIQgAAEIAABCEAAAhCAAAQgYCUBDFBYCRK7gQAEIAABCEAAAhCAAAQgAAEIQCDlAhigSLkdtoQABCAAAQhAAAIQgAAEIAABCEDASgIYoLASJHYDAQhAAAIQgAAEIAABCEAAAhCAQMoFMECRcjtsCQEIQAACEIAABCAAAQhAAAIQgICVBDBAYSVI7AYCEIAABCAAAQhAAAIQgAAEIACBlAtggCLldtgSAhCAAAQgAAEIQAACEIAABCAAASsJYIDCSpDYDQQgAAEIQAACEIAABCAAAQhAAAIpF8AARcrtsCUEIAABCEAAAhCAAAQgAAEIQAACVhLAAIWVILEbCEAAAhCAAAQgAAEIQAACEIAABFIu4J7yTbElBCAAAQhAAAIQgICrCFSoUIE3tWTJkjzWg0WLFkk5EghAAAIQgEBKBHAFRUrUsA0EIAABCEAAAhCAAAQgAAEIQAACVhXAAIVVObEzCEAAAhCAAAQgAAEIQAACEIAABFIigAGKlKhhGwhAAAIQgAAEIAABCEAAAhCAAASsKpCBaT9W3aOT7SxDhgxOVmNTdbNmzWpKtCgwMFDK165dy3N/f38e64HY7s2bN0tljRo1knJ7JOLLUqyrPeqS3GMGBQVJm2zcuJHnq1ev5rEeqPfwTpw4kZevWLGCx44YiH2k18/Z+skRTW1RJ7Gf0Ee2EE79PsU+0veGfkq9qbX3kJ77SH29Va9enfN1796dx3rQpUsXnnt7e/NYDwwG+//NS+wntV1SZZHYTUDsI70S6Ce7dUWiBxb7CX2UKJXdCsU+slslbHRg+/82sVHDsFsIQAACEIAABCAAAQhAAAIQgAAEnEcAAxTO01eoKQQgAAEIQAACEIAABCAAAQhAIN0K4BYPB7/Fw8vLS3rxderUieefffYZj/Ugf/78Ui4m27dvF1MqW7Ysz+/du8djPVBvUZAK0ygRL1ty9EvLpk6dKqn07dtXyt3dLX+ar9juli1bSvtRbw+RCu2QiHXVD+/o/WQHIoc4pNhP6COH6JIXKiH2kV6IfnqByO4L0lMf5cyZU/JUX2+3b9+WyhNKdu/eLRXVqlVLyu2RiP2ktsse9cExXxQQ+0gvdeZ+GjdunNTA3r178zx37tw8dsZA7Cdn7qOk7LNkycJXUW9TmzFjBi/TA/HcSSrQkv3790uLfvvtN55v2rSJx9YMxD6y5n4dYV+4gsIRegF1gAAEIAABCEAAAhCAAAQgAAEIuLgABihc/AWA5kMAAhCAAAQgAAEIQAACEIAABBxBAAMUjtALqAMEIAABCEAAAhCAAAQgAAEIQMDFBSy/Od7FoezV/KFDh0qHHjt2LM/Pnz/PYz344IMPpPzAgQM837dvH4/1QJw3oUWLFlIZkuQJBCqPd1XnnFi0aBHf4fjx43msBzVr1pTyESNG8HzYsGE81gNHm4NCqpwDJh4eHlKtKleuzPMJEybwWA/27t0r5e+//z7PxfsT9YVhYWG8TA86dOjA8zVr1vAYQdoKiHPyzJkzRzr4jRs3pFxM1Ll71HtOX375Zb56xYoVeawHp0+flnJXSXx8fHhTBw0axGM9EN8v6v2xhQsXltZ97bXXeL5y5Uoe68E777wj5Xfv3pVyJMkTEL8fdO7cWdpY/R0mFSaSqH2WyKoogkC6FHjppZfSZbvSU6PE31d6uz7//HOpeUWKFOF51apVeawH6rZSoZKUKVNGWpItWzaeq/MARkVF8TIE5gVwBYV5FyyFAAQgAAEIQAACEIAABCAAAQhAIA0FMECRhtg4FAQgAAEIQAACEIAABCAAAQhAAALmBXCLh3kXh1m6atUqqS6hoaE8F2/h0Bfu2LGDl6mBm5ubtChjxow8//fff3mMIPkCjx8/TnSjXbt28fKTJ0/yWA/U/NixY7x86dKlPNaD4sWL8/zs2bM8duVAvY2jV69enGPIkCE81oNChQpJuZjUrVtXTKU4NjZWyjNlyiTl4iXuhw8flsosfVyftBESiwTatGkjrffhhx/yfMGCBTw2F3Ts2JEv7tq1K4/1IHv27FI+adIknquvBV6QzgL1kXJdunSRWjhr1iyeq+8HXqAF6i0wT548EYvpxIkTPFcfqzxq1ChepgcDBgyQciSygPpI8smTJ0srvPfeezxXH6XHCywIvvrqK77WtGnTeIzguYB4Wbe+pHnz5hJNw4YNeX7nzh0e64F62674/jh48KC0bnKSSpUq8dV37tzJYz24deuWlIuPScctixKN2UTsI30FPz8/vl6dOnV4rAeJfUeXVkRiVYEVK1ZI+1Mfhyz+vlNvS5Q2TGbSrl07voV6G3GrVq142fXr13mMwCSAKyhMFoggAAEIQAACEIAABCAAAQhAAAIQsJMABijsBI/DQgACEIAABCAAAQhAAAIQgAAEIGASwACFyQIRBCAAAQhAAAIQgAAEIAABCEAAAnYSwBwUdoK39LCHDh2SVlVzqTCR5O2335ZKe/fuzfM33niDxwiSL/C///1P2qhp06ZSLj7GVV1XWlFLxPvUjhw5IhVXqVKF5646B0W+fPm4gR5MnDhRyt98800pFxPxft8tW7aIRbRs2TIpF5O8efOKKY0ZM0bKmzRpwvPBgwfzWA8++ugjKUeScgHxUWD6XtQ5ChYuXMh3fvHiRR7rQebMmaVcvHd+48aNUlnr1q2l3FWSHDly8Kaqj2ET5y/QVxJ/D4lz7OhlYj+I6+ll4eHh+j/8R3wk87x58/hyPVDnq5AKkcQJeHt7c4n58+fzWA/ER7hKBclM1Ef0fvfdd3wP6iOXeYELB+LjrHWGxYsXW0Vj9+7d0n6OHz8u5QEBATxXH30pPkZWnatEnDNB38HVq1f5fhAkLaC+P8T53kR3fU+YgyJpT2ut8cUXX/Bdqe9JXmBBEB0dLa01bNgwnn/yySc81gPxd6iei3NblCtXTl/EfwoWLMhjzEHBKaQAV1BIHEggAAEIQAACEIAABCAAAQhAAAIQsIcABijsoY5jQgACEIAABCAAAQhAAAIQgAAEICAJYIBC4kACAQhAAAIQgAAEIAABCEAAAhCAgD0EMAeFPdTT6JjdunXjR1LnPmjbti0vW7duHY8RJF9AnDdC31p9rrg4b0LOnDmlA9y9e1fKxUS8h05fnj9/frHYZeIsWbLwtq5du5bHelCyZEkpj4mJ4fm4ceN4rAezZ8/meXBwMI+TGxQoUEDaZNCgQTyvUKECjxGkXkC8l/rff/+Vdnj69GkpHzp0KM9Lly7NYz1YuXKllB88eJDn7777Lo9dKfDx8ZGaK86Xos45od47LT7D/dGjR9J+kpOI9/eK81Ho+1DvjU/Ofl1l3SFDhvCmpmbOCcYY348eLF26lOeTJ0/msR6k5rNT2lE6TcT7zvUmir+T9HzJkiX6P3E/Bw4cMIZJ/lu2bFlpnQYNGkh5Yom/v3+Cxb/88otUdvLkSSlHkriA+rtF7H9x3jB9L+o8MYnvGaVJCeTKlYuvMmfOHB7rgTgXnPq7RVpRS8T5jm7evCkVDxgwQMrF8yVxPh59peXLl0vrir8npQIt6dKlC1909OhRHutBaGiolLtqgisoXLXn0W4IQAACEIAABCAAAQhAAAIQgIADCWCAwoE6A1WBAAQgAAEIQAACEIAABCAAAQi4qgBu8XDinq9Tp45U+7feekvKe/bsyXPxsXr6wjVr1vCyqKgoHiNIvYB62Zd46Zl6q01ij3jNkydPgpUpWrSoVHb+/HkpT0+J+Ngu9TFOajsvXbrEF6m3yPCCVAb//POPtAfxFg+pAEmyBdRLMRcsWMD38ezZMx7rgfi+0vPatWvr/8T9iJdR6wt++umn5wXx/x8+fDjPY2NjeexKwQcffCA1V3x8mnrZt/oaf/z4sbStNRLxkZn6/tRL461xDGffR82aNaUmiLc1SQVJJLdv35bWGDlypJT//PPPUo7EcgH1ls+pU6dKG6e0z6SdJJGoxxw4cCDfQu370aNH8zIEqRdQb5dK/R6xB6NAUFCQMYz7V/wupj6GXFoxiaRjx458DfU2Yl5gQWAwWP43/969e/M9qrd4zJw5k5e5cmC5pisroe0QgAAEIAABCEAAAhCAAAQgAAEI2FQAAxQ25cXOIQABCEAAAhCAAAQgAAEIQAACELBEAAMUlihhHQhAAAIQgAAEIAABCEAAAhCAAARsKoA5KGzKm/qd16tXT9pJixYteC4+YkxfqN7/JD4qTr0Hm+8EgdUFxEe06TsfPHgwP4bYf/rCDz/8kJfpgXiPcbNmzaQy8XGbnTt3lsrS8xwU4v3ur7zyitTuLVu2SHnhwoV5PnfuXB7rwZgxY3h+9epVHic3UO8XDAsL47sQ50HQF7766qu8bNWqVTxGYF5AfV3XrVuXr1ixYkUe60G2bNmkXJzfZdOmTVLZZ599JuWuOu+EiPDgwQMxleLy5ctLuZeXl5SL70mpIBWJ+Hg+fTfqfCSp2HW62VScJ0RvVNasWS1u2+bNm/m6Xbt25bEeqI/WkwqRJEtAfGShvmFazDmhH2fFihX6P3E/6ncH43L93379+okppeYxwdKOkEDAygLq48J79OghHcHSeSfU17j6PSM1806IFVJ/h4llicUTJ06UijEHxXMOXEEhvSyQQAACEIAABCAAAQhAAAIQgAAEIGAPAQxQ2EMdx4QABCAAAQhAAAIQgAAEIAABCEBAEsAAhcSBBAIQgAAEIAABCEAAAhCAAAQgAAF7CGAOCnuoJ3LMTJkySaUTJkyQ8urVq/O8VatWPNaDQ4cOSfmtW7ekHEnaCISEhEgHEnNxHgl9pW+++UZaV0wOHDggpnTq1Cmeq/ff84J0Hhw8eFBq4ccffyzlkydP5nm3bt14rAft27fn+W+//cZjPVDnq9i/f79ULibqfZGZM2fmxeHh4TzWA7wHJY4kk/79+0vriPN9qJ+Ns2bNktZdvnw5z7/66iseIzAvsHjxYqmgTJkyPH///fd5rAdnz56VcvG9tXfvXqlMfM0zxqSyypUrS/mcOXN4vmDBAh7rgbqtVOgiSfHixaWW1q9fX8oTS8aPHy8Vi3PwxMTESGVInF+gQIECvBGenp481oNly5bxHHMhcQoEDiggziuhzp1XrVq1BGss/t7RV1q3bh1f97vvvuOxHhw+fFjKrZWoc0dUrVqV7zpnzpw8VgNvb291EXJNAFdQ4GUAAQhAAAIQgAAEIAABCEAAAhCAgN0FMEBh9y5ABSAAAQhAAAIQgAAEIAABCEAAAhDIoF1GKV+D6WImKX0sTFoxDR8+XDqUeNmmepmmetnSP//8w7cVL3/WFx47doyXOWIgviwdvY9q1KghEaqPNKxTpw4vV2/xEG//0Ff6+++/+bri40n1hffv3+dljhCIfaTXxxH6SXzMqHobR2KXB0ZFRUmk4uNLL1++LJWpl1mLl2Grj24UL1dU+1raqQ0TsZ8coY8Sa+ro0aOlYvFRydevX5fK/vjjDylXH9UlFTp4IvaRXlV79JOvry9XGjt2LI/1oFGjRlJeqlQpno8bN47HeqA+alcsVN87o0aN4sXq7Yy8wEECe/RRoUKFpNZfvHhRysUkNDRUTKlWrVpSfuLECZ6//PLLPNaDli1bSrn4GFn10c6ig/o4X/XxzeJ3kGvXrknHsFUi1s8e7yNbtcvHx0fatfr517hxY16uPja2WLFivEy9DZEXpGEg9pF+2PTUT+IjrMVb2PR29urVS//HaX7EfrJVHxUtWlTyEG9BUsukFbVE/L7VtGlTqVi95V0qTKPkyy+/5EdSb0fmBWYCNzc3M0vNLxL7yPwazrsUV1A4b9+h5hCAAAQgAAEIQAACEIAABCAAgXQjgAGKdNOVaAgEIAABCEAAAhCAAAQgAAEIQMB5BTBA4bx9h5pDAAIQgAAEIAABCEAAAhCAAATSjQDmoMiQwWk7U3zkqN4I9f428Z4x8bFw+rorV67U/4n7+eSTT4xh3L8nT56Ucnsk4n1VYjvsUZekjql6lShRIqlNeHmXLl14rAcLFy6UckdOxD7S6+lo/eTn5yfxiXOFDBw4UCoT79+VCpKZbNu2TdqiYcOGUm6PROwnR+sj1cPDw0NaJM47kSNHDqmsXLlyUi7eYy8VOEEi9pFeXUfrJ3XuHHG+j/LlyycoXLBgQaksX758Ui7OMaI+NlZa0QESe/RRixYtpJaL92dLBVqizn2UP39+aRXxvaV+H7DV602cd6JPnz5SfdasWSPl1krEfrJVu6xV1+Tsp2/fvtLq06dPl/Lbt2/z/MMPP+SxHvz+++9Sbu9E7CO9Lumpn8Q5KF599VWJevXq1VLu6InYT9bqo7Jly0rNXrt2rZTnzp1bysVEPG/Rl7du3VostnssPnJer8yff/7J69S8eXMe64Fo+8svv0hl77zzjpQnloj7SWw9ZyzDFRTO2GuoMwQgAAEIQAACEIAABCAAAQhAIJ0JYIAinXUomgMBCEAAAhCAAAQgAAEIQAACEHBGAQxQOGOvoc4QgAAEIAABCEAAAhCAAAQgAIF0+bynyAAAQABJREFUJuCeztrjUs3Zs2eP1F41FwtHjBghpvTtt9/y/Ndff+WxHqhzW4j31EkrunDSoUMH3nr1Xt8DBw7wMj3IlCkTz0uVKsVjPfDy8pJyJNYTuH//vrQz8f5t9V7QKlWqSOvmzJmT56NGjeKxHlStWlXKxWT79u1iijiZAlmzZpW2CAkJ4bk6B8Xhw4d5mR589NFHPJ8xYwaP9eDZs2dSjiR5Ak+ePJE2UO+HlwqFZMWKFUJGpM5BMXz4cF7u6HNQ8IqmYfDo0SOLj9ajRw9pXX9/fyn39vaWckuT6OhoaVXxteDj4yOVqfdDi78bP//8c2ldW81BIR3EyRPx91Dv3r0Tbc3kyZN5uaPNOcEr5mLBgwcPXKzFSTdXnYtG/ZwSP0PEOaj0PY8cOTLpA9hxjWrVqklHb9q0Kc/V8yjxc1T9Pck3cvEAV1C4+AsAzYcABCAAAQhAAAIQgAAEIAABCDiCAAYoHKEXUAcIQAACEIAABCAAAQhAAAIQgICLC+AWDxd5Ady5c0dq6ZgxY3h+9OhRHutBgwYNpHzTpk1SjoRo6tSpnEF9tJBq/fbbb/N1N2zYwGM96Nevn5T/8ccfPA8NDeUxAusKqJfb7d27N8EDqI8OVW8tKFSoEN+2Xbt2PNaD2bNn81x85B5f6KSB+poPCwuzSkvUy8ADAwP5fmvWrMljPfD19ZXyf//9l+fqpefqIxj5igisLiDaq4/ZVW+7CggI4MevWLEij/Xg0KFDUu6KiWqSmIH4XklsPb1MvRVt8eLF0iaivfh4Un2l3bt383XV7wa1atXiZWogvi7UMuTmBcT+Vx/n+/jxY2kj9RGMUiESmwnUrl3bZvtOjztWbw8Ub+lQ27tgwQJp0bFjx6Tc3on46Hq9Lurt8mL9IiMjxZTE2+6XL18ulSF5LoArKPBKgAAEIAABCEAAAhCAAAQgAAEIQMDuAhigsHsXoAIQgAAEIAABCEAAAhCAAAQgAAEIYIACrwEIQAACEIAABCAAAQhAAAIQgAAE7C6AOSjs3gX2qcC5c+f4gS9fvsxjPWjRooWUq/eZSoUukmTPnl1qqcGQ8NieOgeFeN91RESEtB/1HjbxHt61a9dK6yKxj4A6F8jMmTOlinz99dc8Vx8jO2XKFF7WsWNHHjt7oL5uN27caJUmqfdVi3Nb3L59WzqGOm/IJ598wsvFR47qC8ePH8/L9ACPHZU4rJoUL16c7y9Lliw81oMKFSpI+YkTJ3g+ceJEHutBkyZNpNwVE3W+m+QYqPPsfPHFF3zzr776isd6kJz3Q8aMGfm2N27c4DGC1AuIc7LoexMfB6/u/fXXX5cWnTlzRsqRpI1AgQIFpAMFBwfzXJ3fjRcgSFBA/CxS5/9KcKM0LKhXrx4/mjp3hHqewFfUgl69eokpqfNrSIVI4gQSPssCEAQgAAEIQAACEIAABCAAAQhAAAIQSCMBDFCkETQOAwEIQAACEIAABCAAAQhAAAIQgEDCAhigSNgGJRCAAAQgAAEIQAACEIAABCAAAQikkQDmoEgjaEc+TIYMGRy5eg5Rt7feekuqR+7cuXmu3gs/ePBgXqYGt27dkhapz4BGX0g8Dpkk1kdqfz59+tQh25DaSm3dujW1uzC7fc2aNaXl4r3yV69elcrUZOXKlXzR6NGjeawHderUkXJrzZkh7RRJnEDRokUTlLh3755Utn37dp43atSIx3pQvnx5KT9y5IiUu0Ly33//Sc0cMWKElIvvD6lAS9R5ktq0acNXcXeXv/p9+umnvEwPxPLSpUtLZePGjeN5q1ateGwuEOeQ6devn7lVXHqZm5ub1P45c+ZIuTinkTrfx6FDh6R1kdhHoFChQtKBL1y4wPP0+vufNzAFwfHjx6Wt1M8XcZ42e8zDVrduXal+gwYNkvKGDRvyXJ1zQu3vAQMG8HUXLlzIYwSWCeAKCsucsBYEIAABCEAAAhCAAAQgAAEIQAACNhTAAIUNcbFrCEAAAhCAAAQgAAEIQAACEIAABCwTkK/zs2wbrJVMgcDAQGmLMmXKSPk///wj5WmR5M+fnx+mYMGCPEZgXkC9jUN8HOLNmzeljUJCQqRcTGbMmCGm1LJlSykXH+EmFSBxGAH1No7EKrZo0aLEip22LDo62mp1/+abb/i+GjRowGM9eO2116Q8sUS8dFR9PF/r1q2lTXGLh8Rh1UR9HKy486CgIDGlTp068Vz9jFU/G13xFg+OEx9MnjxZWlS7dm2eq48HV28fEG+ZEW8d0HfQp08fvh89EG9jUx8V6+npKa0rJuIjFvXlY8aM4cVr1qzhMYLnAmPHjpUomjZtKuXi7xr10cl3796V1kXiGAJinzlGjRyrFrNmzZIqpH6meXt78/Kkzo3E98+dO3f4dkkFb7zxhrRK/fr1eS5+puoLs2XLxsvUIDw8XFp04MABKZ87d66UI0meAK6gSJ4X1oYABCAAAQhAAAIQgAAEIAABCEDABgIYoLABKnYJAQhAAAIQgAAEIAABCEAAAhCAQPIEMECRPC+sDQEIQAACEIAABCAAAQhAAAIQgIANBDAHhQ1Q9V2Kj7X73//+Jx2lWbNmUm6PRLzvS72ndN68efaokkMf8+DBg1L9hg0bxvMff/yRx3qgPgpOvB9efVSYer+2+Ci21atXS/uNjIyUciT2ERAfwafWQJ3bYMuWLeoqLp8HBARIBu+//z7PVa/E5nPhG5kJ1M+wKVOmmFkLi2whIH6mxcbGSocoXry4lIvzThw9elQqE+dBkApcOImJiZFaL86tMnv2bKns3XfflXIx8fDwEFPy8/OT8pQmAwcOlDZdsmSJlCMh+vzzzznDJ598wmNzQbdu3fhiPKaQUzhUoD7+uly5cg5VP0erzPTp06Uq9e7dW8rFOfpeeeUVqUxNkipX108oF3/XJGcOEfXzDnNOJCScsuW4giJlbtgKAhCAAAQgAAEIQAACEIAABCAAASsKYIDCipjYFQQgAAEIQAACEIAABCAAAQhAAAIpE8AtHilzS3Ir8VE1ZcuWldYXH62mF4i3AEgrpjLJlSsX34N6WZV4aeinn37K19ODU6dOSTmSFwV27tzJF86fP5/HeqDe4lG1alVeHhERwWM9UC93F/NWrVpJ6y5dulTKkdhH4OWXX07wwI8ePZLKnj59KuVIiOrWrSsxeHl58fytt97isR6otwhIhYkk4iWb+mrqo54T2RRFqRQ4ceIE38PZs2d5rAfiLWx6vmLFCv2fuB/1FrbKlSsbi/CvBQLqo0LFx/fqm4u/p8TvBnqZ+NhxPRd/wsLCxJROnz7Nc/F2BX3hypUreRmC5wIdO3aUKHr16sVz9XPqzz//5GV6sGzZMilH4ngC6m1M4qPkxUf76jXHo5Jf7D/xXEkvHTVqFF9p6NChPLZlIL4P1ceVrlu3Tjp0//79eR4aGspjBNYXwBUU1jfFHiEAAQhAAAIQgAAEIAABCEAAAhBIpgAGKJIJhtUhAAEIQAACEIAABCAAAQhAAAIQsL4ABiisb4o9QgACEIAABCAAAQhAAAIQgAAEIJBMAcxBkUwwS1cXH/nVtm1babNJkyZJ+ejRo3n+zz//8FgP1EfeiLkY6+uqjz+sWbOmvjjup2DBgsYw7t8xY8bwfOLEiTzWA/VRZlIhkjgBcZ4O8VFgeqF4P5uev/HGG/o/cT9qHxmXG/8V+1R8VK1ejjkojEpp+6/aD/Xr15cqIPa3GEsrIeECiRmJr3++QQoC8f2pb/7mm2+mYC/YJLUCZ86ckXbRpk0bKQ8KCuL5s2fPeKwH6qMwpUIkLwio87WIc0XoK4tzIfn7+0vbFypUSMrF5PHjx2IqzUEhFSCJExDvUdcXDB8+XJIR7S9fviyVdenSRcrV94RUiMQhBKKioqR6PHjwgOdq36tzLPEVXTh48uSJ1Hrx0bvq+ZC0opYMGzaML1LPcXiBFty6dUtMacOGDVK+Z88enqvzSmDeEE6T5gGuoEhzchwQAhCAAAQgAAEIQAACEIAABCAAAVUAAxSqCHIIQAACEIAABCAAAQhAAAIQgAAE0lwAAxRpTo4DQgACEIAABCAAAQhAAAIQgAAEIKAKZNDu+WXqQlfKE7sf2loOBoM8DqQ+93fgwIH8UOr8D8WLF+dlelCuXDmeq3X//fffeZkeiPfwjh07Vio7fvy4lDtaIr4s1XY6Wl2Tqk/RokX5Ku+++y6P9UC9N379+vW8vHfv3jx2xEDsI71+zt5PorGbmxtPFy5cyGM96NChg5QfPHiQ5y1atOCxHty7d0/K7ZGI/eQIfSR+Luke4jwFNWrUkIjUZ5JLhekoEftIb5Yj9JM1eJs3by7tZvXq1VK+atUqnqv3/kZERPAyPejRo4eUp3WSXvsorR1tfTyxn9LqfVStWjXeLPW++Vy5cvEyPVi2bBnP1TkJIiMjeVl6DsQ+0tuZVv2UFqZr1qzhh6lbty6P9aBnz55SvmjRIil3tETsp/TUR47mnJr6iH2Umv044rbymbMj1hB1ggAEIAABCEAAAhCAAAQgAAEIQCDdC2CAIt13MRoIAQhAAAIQgAAEIAABCEAAAhBwfAHc4pEhg+P3kgvWULxsCZeWOeYLQOwjvYaO3k/ipbZJ3TqQJUsWjq4+Zo8XxAd//PEHX6TessML7BiI/eSIfbRx40au8/PPP/NYDxYsWCDl6TUR+0hvoyP2U0rss2fPLm125coVKVfLxUL1dri5c+eKxWkep9c+SnNIGx9Q7Ke0eh9NnjyZt2rIkCE81oNx48ZJufhY97CwMKnMVRKxj/Q2p1U/pYVvkSJF+GEOHz7MYz0QXyd6rt56rS9zpB+xn9JTHzmScWrrIvZRavflaNvjCgpH6xHUBwIQgAAEIAABCEAAAhCAAAQg4IICGKBwwU5HkyEAAQhAAAIQgAAEIAABCEAAAo4mgAEKR+sR1AcCEIAABCAAAQhAAAIQgAAEIOCCApiDAnNQOOTLXryvCve+OWQXkdhHeg0dvZ/E+o4ePVpC3bNnj5SL8yJ89913UlmfPn2kvF27djz/+++/eewogdhuR+yjqlWrcqodO3bwWA8CAwN5fvPmTR6nt0DsI71tjthP1jCfNm2atJsBAwbwfPbs2TzWg379+km5vR/B6Cp9JKE7YSL2k63eR+XLl5dk1q1bx/Pg4GAe60H16tWl/OnTp1LuionYR3r7bdVPrmhrzTaL/YQ+sqas9fYl9pH19uoYe8IVFI7RD6gFBCAAAQhAAAIQgAAEIAABCEDApQUwQOHS3Y/GQwACEIAABCAAAQhAAAIQgAAEHEMAAxSO0Q+oBQQgAAEIQAACEIAABCAAAQhAwKUFMAcF5qBwyDeAeF8V7n1zyC5yujkoHFPR9rXCe8n2xqk9gthH+r7wmZdaUetvjz6yvqkt9ij2k63eR5MnT5aqXqtWLZ6PGDGCx3qwdetWKUdC+O7gJC+CtHgvOQmFw1ZT7COHrWQKK4YrKFIIh80gAAEIQAACEIAABCAAAQhAAAIQsJ4ABiisZ4k9QQACEIAABCAAAQhAAAIQgAAEIJBCAdzigVs8UvjSse1m4mVLtrpM07YtSP97F/tIby36yTH7XOwn9JHj9xHeS+gjxxRwjlrh887x+0nsI722+L3kmH0m9hP6yPH7yDFrmPJa4QqKlNthSwhAAAIQgAAEIAABCEAAAhCAAASsJIABCitBYjcQgAAEIAABCEAAAhCAAAQgAAEIpFwAAxQpt8OWEIAABCAAAQhAAAIQgAAEIAABCFhJwOXnoLCSI3YDAQhAAAIQgAAEIAABCEAAAhCAQCoEcAVFKvCwKQQgAAEIQAACEIAABCAAAQhAAALWEcAAhXUcsRcIQAACEIAABCAAAQhAAAIQgAAEUiGAAYpU4GFTCEAAAhCAAAQgAAEIQAACEIAABKwj4G6d3TjvXvBsX8fsOzx/2TH7RayV2Ef6cryXRB3HicV+Qh85Tr+INRH7SF+OfhJ1HCNGHzlGPyRVC7Gf8D5KSss+5WIf6TVAP9mnH5I6qthP6KOktOxTLvaRfWpgu6PiCgrb2WLPEIAABCAAAQhAAAIQgAAEIAABCFgogAEKC6GwGgQgAAEIQAACEIAABCAAAQhAAAK2E8AAhe1ssWcIQAACEIAABCAAAQhAAAIQgAAELBTAAIWFUFgNAhCAAAQgAAEIQAACEIAABCAAAdsJYIDCdrbYMwQgAAEIQAACEIAABCAAAQhAAAIWCmCAwkIorAYBCEAAAhCAAAQgAAEIQAACEICA7QQwQGE7W+wZAhCAAAQgAAEIQAACEIAABCAAAQsFMEBhIRRWgwAEIAABCEAAAhCAAAQgAAEIQMB2AhigsJ0t9gwBCEAAAhCAAAQgAAEIQAACEICAhQLuFq6H1SAAAQhAAAIQgAAEnEAgKChIquX69et5HhAQwGM92LNnj5TXrFlTypFAAAIQgAAE0lIAV1CkpTaOBQEIQAACEIAABCAAAQhAAAIQgIBZAQxQmGXBQghAAAIQgAAEIAABCEAAAhCAAATSUgADFGmpjWNBAAIQgAAEIAABCEAAAhCAAAQgYFYAc1CYZcFCCEAAAhCAAAQg4JwCH3zwgVTxvHnz8jw2NpbHerBs2TIpRwIBCNhewNfXlx+ke/fuPNaDSZMmSbmYbNy4UUypffv2PA8NDeUxAssEcubMyVe8c+cOj/Vg1qxZUv7ee+9JORLbCeAKCtvZYs8QgAAEIAABCEAAAhCAAAQgAAEIWCiAAQoLobAaBCAAAQhAAAIQgAAEIAABCEAAArYTwACF7WyxZwhAAAIQgAAEIAABCEAAAhCAAAQsFMAcFBZCOftq7u5yVw8ePJg3Sbz/Sl8YExPDy/Rg+PDhUp5eEm9vb6kpb7zxBs/btWvHYz1o3LixlI8cOZLn6jPkM2TIwMv04Nq1azy/evUqjxFYJlC2bFm+4rlz53isBxEREVJujyRLliz8sIcOHeKxHty/f5/nrVq14rEe3L17V8qRQAACEEipgPg7Xd9Hnz59EtzV1q1bpbLE7neXVkRiN4Gvv/5aOnZUVJSUf/755zx/9uwZjxHYVsDf3186QLFixXheq1YtHutB586dpTxjxow8L1q0KI/1gDEm5WLSqFEjMSXxmAcPHpTKkCQt8Nprr/GVEnPnKyFIEwFcQZEmzDgIBCAAAQhAAAIQgAAEIAABCEAAAokJYIAiMR2UQQACEIAABCAAAQhAAAIQgAAEIJAmAhm0y1kSvo4oTapg34Ool+PbtzapO3qlSpWkHTRp0oTn9erV47EevPLKK1IuJurlgV5eXmJxmsTiy9KafVSxYkVe/19//ZXHelC6dGmeR0dH81gPHj9+LOViItZVX+7h4SEWU2RkJM/VWwDeeustXqYHjx49knJHTtR2W7OfHLndat26devGF82dO5fHerBmzRqev/rqqzxOy0DsJ0foI/GRaLqD+HmzcuXKtKRxmGOJfaRXyhH6yWFwHKQijthHI0aM4DqjRo3isR54enpK+b1793gu/q7TF4q3ovGVnDQQ+yk9vY9+/PFHqUfeffddKV+6dCnPX3/9dR47YiD2kV4/Z+qnTJkySaRr166VcvW2DrFQ/C6oL//qq6948YABA3isB+r3SPFWUmlFLRE969atKxXv3r1bypOTiPt1pj5KThv1dffv3883UW95r1y5Mi/TA/FzVCqwUyL2kZ2qYLPD4goKm9FixxCAAAQgAAEIQAACEIAABCAAAQhYKoABCkulsB4EIAABCEAAAhCAAAQgAAEIQAACNhPAAIXNaLFjCEAAAhCAAAQgAAEIQAACEIAABCwVkJ89aelWWM8hBebMmSPVq0KFClJuaTJ69GhLV3W69T777DNe5wIFCvBYD8RHran3wu/YsUNaN7HE19dXKq5Tpw7PmzVrxmM9UB+b2bp1a16+a9cuHiNwXAFxXhO1lnv37lUXuURevHhx3s769evzWA8mTpwo5eI9veI9ufpKY8eOldZNaZIrVy5p0++//57n6r3dGzdu5GUIngvkyZNHohg2bBjP27Zty2M9CAwM5PmVK1d4rAfLli2TcvXRmFIhkhcE+vbtKy0TH3etzjkhraglx48f54vS05wTvFHpPDAYEv97YvXq1bmAOl/BkydPeBmC5AuI80yJsb4ndc4JcU4A9dGw+/btkw7+999/81x8TKy+cNasWbxMD9Q5R8TCXr168TQ1c07wnaTzQJ2DT5y/T31Mq6PNOZHOu0ZqXuKfeNKqSCAAAQhAAAIQgAAEIAABCEAAAhCAgG0EMEBhG1fsFQIQgAAEIAABCEAAAhCAAAQgAIFkCGCAIhlYWBUCEIAABCAAAQhAAAIQgAAEIAAB2whgDgrbuNplr8l5TrF4n9qUKVOk+i5fvlzK01Mi3j+o3qd58+ZNqzT1wYMH0n5WrFjBczHWF6rPuv7999/5uuq9+5cvX+ZlCOwnoL5umjZtyiuj3id87do1XuZKgTgvwZdffmlx0z/99FNpXdEzOXPj+Pj4SPtZtGiRlIvvrfz580tle/bskXJXuX9bnMPg22+/lQzat28v5eqz4sVC8R5s1bZ///7iqhQaGspz9V5fsT76St988w1f11UC9V5pdf4WLy+vBCkuXrwolXXu3FnKkTiXwLx586QKd+/eXcoDAgJ4rva1Op8BXxGBRQLi7/x69eolus3t27d5ufr7jBfEB+Lvt8mTJ0vF4ndVqUBLzpw5Iy1asmSJlCNJXEC1Fn9nnTp1KvGNUZpmAriCIs2ocSAIQAACEIAABCAAAQhAAAIQgAAEEhLAAEVCMlgOAQhAAAIQgAAEIAABCEAAAhCAQJoJ4BaPNKO2/YH+/PNP6SDly5eXcjH56KOPeLp9+3Yep/cgJCSEN1GM+cI0DlatWiUdUXyUVN68eaUy3OIhcZhNxEd1qY90FS/rf/r0qdntLVko9pG+flBQEN9MvazaVS69bNiwITfQgxEjRki5pYl4qaW+jfhYRfVxruIjedX9N27cWFokPkZMKtCSatWqSYvUR5sOGTJEKk+vyaBBg3jT3nvvPR5bMxAvadb3m9gl0NHR0dKhHz58yPO5c+fyOD0H6uNx1Vs6xN9h6u1kYn/qRsHBwemZKt237dChQ1Ib3dzcpFz87MydO7dUhiR1AmvXruU7uHXrFo/1QH0Es/q5Ja6s3vL2zjvv8OIBAwbw2Fxw4cIFvrhNmzY81oPw8HApR5K4QIkSJaQVxPfO7NmzpTIk9hPAFRT2s8eRIQABCEAAAhCAAAQgAAEIQAACEIgXwAAFXgoQgAAEIAABCEAAAhCAAAQgAAEI2F0AAxR27wJUAAIQgAAEIAABCEAAAhCAAAQgAAHMQZGOXgPq/anpqGnptinqPBPJeVRsukVJRsPUeSYGDhzIt46NjeWxHmTNmpXnqZmDQn3Eothn586d48fQA1d5RGWfPn2kdovWUoGZRHwsm/qIY3EuhFatWklbz58/X8q7du3Kc3U+HnX+FnG/6uP63n//fb4fPdi4cSPP//33Xx6ntyAqKsriJp09e5avK96frS8sWrQoL/P39+exHiQ2F4i0opa4u8tfT8TH+brKHBSZM2dWWaR86dKlPO/VqxePEaQ/gY4dO0qNUn+/SYVIrCogzh3h6+ub6L7Fddu1ayetO336dClXv0uIhePHjxdTEh8zK85HIa2ExKyA6ix+Z9M3+PHHH/l227Zt4zEC+wrgCgr7+uPoEIAABCAAAQhAAAIQgAAEIAABCGgCGKDAywACEIAABCAAAQhAAAIQgAAEIAABuwtggMLuXYAKQAACEIAABCAAAQhAAAIQgAAEICDf5AkPpxLImDGjVF/xHmypAInVBcT7o8uVKyftX73fvUKFCry8U6dOPNaD1q1bS/nBgwd5rj73nBe4cKDeOzhkyBBJQ7xne8aMGVLZnTt3pDylSa1ataRNxWdor1ixQipLr8kPP/wgNU29P1oqVJLFixdLSyZMmMDzo0eP8lgP1q9fz3N1fgpPT09ellSwf/9+aRVxjgp1Dgp1v8OHD+fbbt++ncd6EBoaKuXOnIjvHbUdQ4cOlRaJ/Z/YfC7qXCSNGjWS9jNq1CieV6xYkccInguo866oLpMnT1YXWT0PDAyU9jl48GCei599fKEQHD9+nGfifd58IQKLBcQ5WJLaSJybJKl1UZ60wO7du/lKd+/e5bEeBAQESLmYLFmyRExfiMV5f3r06CGVq9tizhGJJ1nJJ598Iq3/f/buAz6Kon3g+EMIIfTemwqKgNJFBEREEQsqigoqiIj8sSK+ooiIioq9lxcVC4pi41VRFASko0gRFFCQ3nvvIWT/NyGZzEwu5ZK75C755fPRPM/O7uzsdy7J3bCzk9HvLWtnklwT4A6KXKPnxAgggAACCCCAAAIIIIAAAgggkCzAAEWyBN8RQAABBBBAAAEEEEAAAQQQQCDXBJjikWv02T/xsWPHrEqKFCli5SShE+jevbuu/IMPPtBxRoE7RcG91ez222/XVaR367TeKZ8Fb7zxhnXFF198sZWbt0X279/fKstqUqtWLevQFi1aWLm55OKIESOssryauEsauq9j87qff/55M5Unn3zSyt3fY2bh2LFjddqmTRsdq8CcOmUVZCLp3LlzJvY6uYs5pad3797Wca+99pqVR1JSrlw5q7lun5qF7nKhZn+XKVPG3FVuu+02nXfp0kXHKnBvhzZ/Hz711FPWvub0D1VQu3ZtXV6oUCEdq8C8VdoqiMDkggsu0K1u27atjnMyeOaZZ/Tp3N+j7hQovaOfwFxC2HzNqF3zy+9KPyxZ2uT6mT87qkLTeuPGjVk6Bwf5FzDfi7lLh5rTENXRpUqV8l+Jb6vbZx9//LHe94svvtAxQfYFzPeG7u+w9evXWyd49NFHrZwkPAS4gyI8+oFWIIAAAggggAACCCCAAAIIIJCvBRigyNfdz8UjgAACCCCAAAIIIIAAAgggEB4CDFCERz/QCgQQQAABBBBAAAEEEEAAAQTytQDPoMhD3Z/e3ND9+/dbV3rw4EErJwlM4JtvvtEHPPjggzpWgTu3duXKlbq8fv36OlbB0KFDrdyc++v22bRp06x980ty/vnn60vt27evjlXgzuncsmWLLq9YsaKOVWCWWQV+EnMe/f3332/t4T7rZcGCBbo8NjZWxyrIS3PjrQsLIBk+fLi1d3rPnLB2dJLZs2dbW9zcKswgGTlypN7DfO6L3phG4C7lHMnPoKhZs6Z1le7zIcxC93ec+ZwE89kQ6pjy5cvrQ/ft26djFbjP/pg+fboud58p4j6DomnTpnpfc5lntTEv/ZyZy1a7S4lrgKTA/f3nlmc2N//uqGMGDRqkD83O8oZVqlTR9ZhL06qNbv+6r0d9YD4OTjvtNH31V199tY79BS+//LLevHfvXh0TZF/AfM6Ou1xues+cyOjMb7/9dka7UJ5FAfNnx31+y7vvvmvVunPnTisnCQ8B7qAIj36gFQgggAACCCCAAAIIIIAAAgjkawEGKPJ193PxCCCAAAIIIIAAAggggAACCISHAFM8wqMfgtKKqKi0x5v++ecf6xwLFy60cpLABMzpFw0aNMj0wePGjbP2/fXXX63cvOX566+/tsouu+wync+fP1/HeT0wb8crWLCgdbnurXv9+vXT5e6yiTt27NBl7q3Rbj3m7e7p/VypCjt27KjrdX/Oli9frstGjRqlYxWY0wysgghI3Fv3S5YsabXadAjHJe82b96s2/v333/rWAXuNCyzsFGjRmYa0fHhw4et9pt50aJFrTI3cZfaNctnzpyp08GDB+tYBbNmzbJyM+nWrZuZpop37dqlt2Vn2oGuJEwD89rc30tuk93fY255Wrn7N8tdhs9sw59//mlVc/nll+u8V69eOlaBuxztddddp8srV66sYxW4rzFzis+iRYusffNrUq9ePX3pGU33Wbx4sd6XILgC5t+3Jk2apFu5+XvKXPpVHXT22Wdbx7Zr107n9J+mCEpgLtFsLhOrKjenaAflZFQSEoG0P9GG5HRUigACCCCAAAIIIIAAAggggAACCKQWYIAitQlbEEAAAQQQQAABBBBAAAEEEEAghwUYoMhhcE6HAAIIIIAAAggggAACCCCAAAKpBXgGRWqTiNniLtnmLn9oXsgXX3xhpsRhIuDOye7du7dumbss29y5c3WZucyf2mjO+9Y75ZFgzZo1+krq1KmjYxWsXr3ays2lpdyfh/SWsXPncm/btk3X6y5X6i6TeeLECb2vO0/YnLtqXoc+IIICc6nJjJZWGzNmTFhf2fr163X7zOeEqI3u/Hy9Yx4L3Ot++umn9RW6y07qgqTAXNbz448/tooHDBig8wMHDug4o8BdOtTdf8qUKXqT+zOoC/JAkNFzJ8xLNJ8VYW7PKL7jjjusXdwlypcsWaLLL7nkEh2rwFyS79lnn7XK3GTs2LF606RJk3SsgtKlS1t5q1atdM4zKE5SmPPoNU5S4P7Nd33d/ckzL1C2bFlrZ3M5affnc/v27da+3bt317m5RLra6P5t6dKli973zTff1DFB4AIVKlSwDmrTpo3Od+/erWMVmL/DrAKSsBLgDoqw6g4agwACCCCAAAIIIIAAAggggED+FGCAIn/2O1eNAAIIIIAAAggggAACCCCAQFgJMEARVt1BYxBAAAEEEEAAAQQQQAABBBDInwI8gyLC+t2cR//CCy9YrXfn8JpzEkeOHGntSxKeAmY/uf357rvv6kYPHDhQxypw56NahRGeXHHFFfoK3Gc8uHPRa9eurfetVKmSjt3AfeaE62c+Y2HPnj3W4Q899JCVf/jhh1aeVxNz7q0Z+7veoUOH+tscEdsyuraIuIgsNPKVV17RR5nPu9EbjSAuLk5ns2fP1nF2Avdn0q1r06ZN7qY8mWfkYF70WWedpVP3mSK6wE+Q0Wt83Lhx+qjszNc+/fTTdT1ucPToUWvTypUrrTw/JkWLFrUu+6KLLrJyM/ntt9/MVDLqU2vnfJIULFhQX2mhQoV0rAL39RcbG6vLzfdaauOVV16py9ygR48e1ibzWTlmrHZ67LHHrH1Jgidw6aWXWpWZn5Vef/11qyw7v9OsikhCKsAdFCHlpXIEEEAAAQQQQAABBBBAAAEEEMiMAAMUmVFiHwQQQAABBBBAAAEEEEAAAQQQCKkAUzxCyhv8ytu1a6crTe/2SbWTOV1g7969+jiCyBD48ccfrYaaSyW1bNnSKqtataqVb9682crzSuJO6XCva9WqVXqTGeuNSYH5c6Q2ubdVm7ew33rrrUlHnfxm3v5sFeTxZOvWrZm+wtatW+t9gzUFQFcY5IBbo0+CmkuHTp06NcjK/qtr3LixLujUqZOOVeD2y/fff2+Vk4iMGDFCM7hTAr/88ktd5gbuEtbukszu/pnN3b9Ld955Z5qHmsvaqp0mTpyY5r75peDuu++2LrVJkyZWbiY//fSTmRL7ETCXru3Vq5e1x2233Wbl/fv31/k111yjYzeYPn26tSnc/75Zjc3DibmsqHuZGS2b7e5PHh4C3EERHv1AKxBAAAEEEEAAAQQQQAABBBDI1wIMUOTr7ufiEUAAAQQQQAABBBBAAAEEEAgPAQYowqMfaAUCCCCAAAIIIIAAAggggAAC+VqAZ1CEefe7SyP93//9X5otNucQq50mT56c5r4UZE+gc+fOuoL77rtPxyq4+uqrrXz//v1Wntlky5Yt1q7PP/+8zt0lZkuUKKHLCPwLVKhQQRe89NJLOlaBO9/dnA+dX585YQH5EncJPLPcXQIyPj7eLA7r2H3+SFg3No817uGHH9ZXVKdOHR2r4OWXX7Zyd+63VZiHEvNZG8WLF7eubMiQIVZesmRJnT/yyCM6VsGiRYus3FyG9O+//7bKhg0bZuXm8pbucyXM35VvvvmmdZzbh2b71q9fb+370UcfWTmJSL169dJkGDNmjFU2Y8YMKydJLdCtWze90X1tmsuXq50GDBig93WDSZMm6U1du3bVsQrc5UrNwieeeMJMiUMocOaZZ6ZZ+44dO9IsoyB8BbiDInz7hpYhgAACCCCAAAIIIIAAAgggkG8EGKDIN13NhSKAAAIIIIAAAggggAACCCAQvgIMUIRv39AyBBBAAAEEEEAAAQQQQAABBPKNAM+gCPOuPu+886wWtm7d2srNxJwbqrZv377dLCYOosAZZ5yha2vbtq2OVeA+N8QqzEayZ8+eNI/u1KmTVWbON7YK8nHSs2dPffXu+vJTp07VZSro3r27lZOIdOjQIU2GatWqWWU//PCDzg8cOKBjFYwcOdLKn3rqKSvPieT666/Xp7nkkkt0nFGwZMmSjHahPB2BmJgYq7RGjRpWbiYTJkww03wTb9iwQV+r+dwhtTEhIUGXqaBPnz46b9CggY5V8Ntvv1n5lClTdO4+d+XRRx/VZSownzczbdo0q2zr1q06r169uo79BWvWrNGb3edVbNu2TZcRnBRo1apVmhTmc5HS3IkCS+COO+7Qufv+eOzYsbrMDf79919r0y233KLzjJ4pZr63MI/TFRhBeu/pjN0I0xAwnytWq1Yta69ly5ZZOUnkCXAHReT1GS1GAAEEEEAAAQQQQAABBBBAIM8JMECR57qUC0IAAQQQQAABBBBAAAEEEEAg8gSY4hFmfeYuK+beDp1ec99///30iikLooA5xcO9XXbw4MHWmcylpjK6PdA60EnMW3bdc5rtcQ4jTRJIb4neoUOHWk5xcXFWTiJy9913a4bNmzfrWAVmmcrLli2rviV+mbHaMHDgwJMFSf83b2t2bzVfsGCBtW9mk2LFilm7Nm/e3Mrvv/9+nbv76oKkYMWKFXrTVVddpWOCwAXcpSXNJSzdZROz2veBtypyjnjxxRetxn766ac67927t45VYC7hqnJzaWyVm1/u0tjm3xf31nhzWseRI0fMauSPP/6wcnNJRnNqiLUTiRYw3fXGpODEiRPuJnJHIL3XuLNrqtScytSlSxerfN++fVZuJs2aNTNT+eabb3TuTn3UBUmBu2ywW06evkDNmjX1DmasNrpTyvSOBBEjwB0UEdNVNBQBBBBAAAEEEEAAAQQQQACBvCvAAEXe7VuuDAEEEEAAAQQQQAABBBBAAIGIEWCAImK6ioYigAACCCCAAAIIIIAAAgggkHcFeAZFmPXtxRdfbLXo1FNPtXIzcZ9n8MUXX5jFxCEUeP3113XtvXr10rEKzKWtVF6/fn31LfHr0ksvTQ4D/v7333/rYxYtWqRjFbhzL/v27WuV55XEnP+srsldtnDLli36Um+88UYdq6BOnTo6HzdunI5V4M5/twpJEgXMZYtHjBhhqcyePdvKzWd4XHfddVaZu6ynuXxpo0aNrH0/+eQTnbtz4d1c7+gLzKXe1HbzHOZ+/mJ3vvEzzzyjd1u/fr2OCQIXcJeCM2twl/1z+8Hcl/ikgPn77umnn7ZYZs2aZeXm813c5csLFy5s7ZvZpF+/ftau7jNGrEKSVALu37OKFSum2id5A797kiXS/t6xY8e0CzMoMX8mzOVxMzgs1XuQ2NhYfci8efN0rAL3/d/BgwetcpLABK699lp9gPt+4H//+58uI4hMAe6giMx+o9UIIIAAAggggAACCCCAAAII5CkBBijyVHdyMQgggAACCCCAAAIIIIAAAghEpgADFJHZb7QaAQQQQAABBBBAAAEEEEAAgTwlEJ2nriZCL6ZKlSq65U8++aSOMwrcZ07MnDkzo0MoD5LA8uXLdU3ufPyePXvqMhWY898ffPBBq2z48OFWnt6cxHbt2ul93bn6CxYs0GV5Ofj111+ty1u9erWVm0atWrWyysw5imPGjLHKSAITWLJkiXWAm5uF3333nZmK2UeqoHz58rq8R48eOlbBgAEDdF6gQAEdq8DsT6vAT7J582Zr608//aRz9/kZbnsPHDig9yUITOD666+3DnB/by1dulSXu3/PdAFBlgSmTZtmHWfmzz//vFX2wAMPWPngwYN1nt7P2ffff6/3IwhcoEyZMtZBJUuWtHIzWbdunZkS+xHYunWrn62Z22Q+h8WMMzra/du3adMmfUjv3r11rAKeq2NxZDu55pprdB3mM9rURp4rpmkiNuAOiojtOhqOAAIIIIAAAggggAACCCCAQN4RYIAi7/QlV4IAAggggAACCCCAAAIIIIBAxAoU8N2+50Vs64PQcPe24SBUGXAVTz31lD7GXApMbzSCXbt26axatWo6VsGxY8esPJIT82UZDn0UiGXt2rWt3R966CGdu7c8JyQk6DIVuLlZGB2dMiOrdOnSZpF07drVyr/++msrD0Vi9pGqPyf6yb2uPXv2WJc2cOBAna9du1bHKli5cqXOr7zySh2rwJ0CYBVGeGL2U070UXa4ChUqZB3evXt3nRctWlTHgQajR4+2DnFfN1ZhLiRmH6nTh3s/ZZbIvS3dXVbRnMLz6quvZrbaXNkvr/ZRrmCG8KRmP4X7z1GNGjUsCfdvlllYqlQpM5X0poNaO4ZhYvaRal6o+slcbt2ctqTOWbVqVfVNf40fP17H7jLkusAXuG0fOXKkWSzmEttWQQQm5rWGqo+yw2K+Xx42bJhV1ZAhQ6w8ryZmH+W1a+QOirzWo1wPAggggAACCCCAAAIIIIAAAhEowABFBHYaTUYAAQQQQAABBBBAAAEEEEAgrwkwQJHXepTrQQABBBBAAAEEEEAAAQQQQCACBVImtUdg4/NKk+fMmaMvxZ2z6y471alTJ71vXnrmhL6oPBCsWrXKugpzHuSLL75olfXp08fKzTnZVoGTbNu2zdqSX5aYNZ/noQDOPPNMy8Gc/+nODf3222/1vnn5mRP6IiMwOH78uNXqjz76yMpJwl+gbNmyupHuM0V0QVKwceNGdxM5AvlGwH0Pt3DhQuvap0yZovNIfuaEvogcDt599119RjPWGwkiWiAqin9jj+gOzKDx9G4GQBQjgAACCCCAAAIIIIAAAggggEDoBRigCL0xZ0AAAQQQQAABBBBAAAEEEEAAgQwEGKDIAIhiBBBAAAEEEEAAAQQQQAABBBAIvUAB3xqqXuhPE75nCMe1fcNXK+daZr4s6aOccw/kTGYfqePop0D0cm5fs5/oo5xzD+RMZh+p4yK5n9q3b68vfdKkSTpWwY4dO6y8du3aOj906JCOwzHIS30Ujr7BapPZT5H8cxQsj3Csx+wj1T76KRx7ScTsJ/oo/PsoPFuY9VZxB0XW7TgSAQQQQAABBBBAAAEEEEAAAQSCJMAARZAgqQYBBBBAAAEEEEAAAQQQQAABBLIuwDKjWbfjSAQQQAABBBAwBBYvXqyznTt36lgFs2bNsvJwn9ZhNZYEAQQQQAABBHJEgDsocoSZkyCAAAIIIIAAAggggAACCCCAQHoCDFCkp0MZAggggAACCCCAAAIIIIAAAgjkiAADFDnCzEkQQAABBBBAAAEEEEAAAQQQQCA9AZYZLVAgPR/KckmA5Y1yCT6A05p9pA5jGaoA8HJwV7Of6KMchA/gVGYfqcPopwDwcmhX+iiHoLN5GrOf+DnKJmaIDjf7SJ2CfgoRdDarNfuJPsomZogON/soRKfItWq5gyLX6DkxAggggAACCCCAAAIIIIAAAggkCzBAkSzBdwQQQAABBBBAAAEEEEAAAQQQyDWBfD/FI9fkOTECCCCAAAIIIIAAAggggAACCGgB7qDQFAQIIIAAAggggAACCCCAAAIIIJBbAgxQ5JY850UAAQQQQAABBBBAAAEEEEAAAS3AAIWmIEAAAQQQQAABBBBAAAEEEEAAgdwSiM6tE4fLeVk6J1x6wm6HuXQOfWTbhEtm9pFqE/0ULj1jt8PsJ/rItgmXzOwj1Sb6KVx6JqUd9FGKRThHZj/xcxSePWX2kWoh/RT+/UQfhX8fhWcLs94q7qDIuh1HIoAAAggggAACCCCAAAIIIIBAkAQYoAgSJNUggAACCCCAAAIIIIAAAggggEDWBRigyLodRyKAAAIIIIAAAggggAACCCCAQJAEGKAIEiTVIIAAAggggAACCCCAAAIIIIBA1gUYoMi6HUcigAACCCCAAAIIIIAAAggggECQBBigCBIk1SCAAAIIIIAAAggggAACCCCAQNYFGKDIuh1HIoAAAggggAACCCCAAAIIIIBAkAQYoAgSJNUggAACCCCAAAIIIIAAAggggEDWBRigyLodRyKAAAIIIIAAAggggAACCCCAQJAEGKAIEiTVIIAAAggggAACCCCAAAIIIIBA1gUYoMi6HUcigAACCCCAAAIIIIAAAggggECQBBigCBIk1SCAAAIIIIAAAggggAACCCCAQNYFGKDIuh1HIoAAAggggAACCCCAAAIIIIBAkAQYoAgSJNUggAACCCCAAAIIIIAAAggggEDWBaKzfihH5keBevXqWZf9wAMPWPm///6r8xdeeEHHkR5Uq1bNuoQKFSpYuZlcf/31ZiqlS5fWeadOnXSsgk2bNln5Tz/9pPMRI0boWAXbtm2zchIEEEAAAQQQQAABBBBAIC8JcAdFXupNrgUBBBBAAAEEEEAAAQQQQACBCBVggCJCO45mI4AAAggggAACCCCAAAIIIJCXBAp4vq+8dEGBXkuBAgUCPSTP79+sWTPrGvv27avzG2+8UccqiI2NtfK///5b540aNdJxoIH5ssypPurXr59uZteuXXWsgtq1a1t5xYoVdW62VW/MZOBem1nX2rVrrVo6dOig89WrV+s4twKzraoN7rXkVrsyc97ChQtbu91www1WPm7cOJ27U3YGDRqky1SwdetWnT/88MM6VsGpp56q85EjR+o4JwOznyKpj7Jj9Pjjj1uHP/HEE1bes2dPnX/yySc6zq3A7CPVhkjqp0KFCllsd999t87POussHavAva4mTZro8lKlSulYBUWLFrVy83feH3/8YZUVLFjQygcPHqzzPXv26Dg7QST3UXauO9KONfvJfb1F2rXk1faafaSukX4Kz542+4k+Cv8+Cs8WZr1V3EGRdTuORAABBBBAAAEEEEAAAQQQQACBIAkwQBEkSKpBAAEEEEAAAQQQQAABBBBAAIGsCzBAkXU7jkQAAQQQQAABBBBAAAEEEEAAgSAJ8AyKMHsGhTvfff369VZX//7771YejMR89oKqr3Xr1la15vx8c06a2umVV16x9h0wYICVZzUxzxPMuW9m+9x56ebzNDI6586dO/Wl/fPPPzpWwffff2/lX3zxhc737t2rYxWYz5VQ+Weffaa+JX4VKVIkOUz8bi7b+uSTT1plR44csfKcSMw+UufLyCwn2pTeOWJiYnTx8OHDdayC2267zcqDlZjPpzDn26v6zbJgnc9fPWY/hXsf+Wt/Vrb98ssv1mHt2rWz8kmTJum8R48eOlbBjh07rDwnErOP1PnCrZ+ioqIshi5duujcfN6D2tiwYUNddvToUR2rYMOGDVZuPv/D/N2ndoqOtldBN43Kly9v1ZOQkGDl5nMxfv31V6ssq4l5flVHuPVRVq8rrx1n9hN9FJ69a/aRamEk9ZP5PkK13X3PrrYlf1122WXJYeL3w4cPW3mfPn107posX75cl6ngyiuv1PnKlSt1HMrAbFMk9VEoTcKtbrOPwq1t2W2P/a4ju7VxPAIIIIAAAggggAACCCCAAAIIIJAFAQYosoDGIQgggAACCCCAAAIIIIAAAgggEFwBBiiC60ltCCCAAAIIIIAAAggggAACCCCQBQGeQZELz6CoW7eu1VXfffedzt2yuLg4XaaCa6+9Vuc//fSTjjMKrrnmGmuXxx57TOfunLqPPvpIl6nA3HfFihVW2aWXXmrlwZq/bc6rCubcN7Ned97ypk2b9LVMnz5dxyoYOXKklZvzAzdu3GiVZSf59ttv9eFXXXWVjt2gUqVK1ibzmRhWQQgT01KdJpj9FIpmDx06VFdrvqb1xhAHp556qnWGtWvXWnmoErOfwr2PGjRoYDGYz8N57733rDI3Oeuss/Qm89kGamOjRo10mQoOHjyo85YtW+pYBe4zZazCECVmH6lT5HY/FS5c2LpS9/ef+bvp/ffft/adOHGizqdMmaJjFeTGs3KsBmQjCbc+ysal5OlDzX4K1c9R1apVLUPzOTbPPvusVTZ69GgrHzt2rM6PHz+u41AGs2fP1tUH6z2arjALgdlH6vBQ9VMWmpZ4iPv774EHHtBVuc8Na9u2rS4LZbB48WJdffv27XWsgt27d1t5sBKzn8KtjwK5xoIFC1q7u89USu/n0H0WnFlR8eLFzVTcZ47Url1bl7vnKFu2rC5z39u4zxiJj4/X+7qB2UduWaTn3EER6T1I+xFAAAEEEEAAAQQQQAABBBDIAwIMUOSBTuQSEEAAAQQQQAABBBBAAAEEEIh0AXsdr0i/mghpf6dOnayWutM6zEJ3+sWxY8d0ccmSJXWsgjfeeMPKy5Qpo3P3nOndrmUuZ6kqMG/vDdVyjLqhIQ7MKTLu7eRjxozRZ1+2bJmOQxm4fX/FFVekebolS5boskOHDumYwL+Au/yhucSse4R5y78qe/fdd/Uu7tKI7pQe8xa7Rx55RB+ngmbNmuk8vZ85vVM+D9zlc+fOnZumiHn7pNrJPNad0uFWsm3bNr0pN6Z06JOHafDWW29ZLXOn8pnLjE6YMMHalyQ8BE477TSrITfffLPO3ak37jK88+fP1/u6v7fcXO/oC9L7uRsxYoS5q+zatcvKIykxb/lX7e7fv79uvvn3QG288cYbdZm/3CoMUfK///1P12wuG683Eoi5dLG5NLyiufDCC3Nd6Oyzz9Zt6Nq1q45V4C6bbhVGcBIbG2u13p0mUa5cOV1+8cUX61gF5t8o87OQKqtcubL6pr/MKVDutPo777xT7xeqwPz9oc7x4IMPWqd6+eWXrTy/JNxBkV96mutEAAEEEEAAAQQQQAABBBBAIIwFGKAI486haQgggAACCCCAAAIIIIAAAgjkFwEGKPJLT3OdCCCAAAIIIIAAAggggAACCISxAM+gyIXOMee6BXr6m266SR/y2Wef6VgFFStWtPLMJu6cyVmzZlmHuvOjrMIIS8xlPM04py7DfW6IO9fbXQ7JbJe5fF8kL9dnXlOw41KlSukqBw4cqGMV7N+/X+fPPPOMjlVgPmdF5eaSsyo3v8xzqO3m3O6GDRuau8rq1at1Hg7Lu+nGhFHQt29f3Rp3OeT0nm9QvXp1fZwKrr76aitPLzGXGHbr2bNnj3Vofnnei7lE2nXXXWcZuLYzZsywyklyRsB9xsPDDz+sT+w+Z8r9W2Iul2c+r0VXkEbgvj9I7xkUaVSRuPmhhx6yit2lgMP9fYY53919/o11YWGQuH1m/r4Lg+blShPcpUPvv/9+qx3m88nMZ0dZO2UiMZ+tUqhQIesI9/2fVRhAktWfwQBOkWu7mkY//PCD1Q7zd5gqaN68uVWe1cR8FtzXX39tVeMuAdqqVStdPnPmTB37C6ZOnao3169fX8cqMN93nDhxwipzlya2CvNRwh0U+aizuVQEEEAAAQQQQAABBBBAAAEEwlWAAYpw7RnahQACCCCAAAIIIIAAAggggEA+EmCKRy50dnZuGe7Vq1eWWuze8mfexvThhx9adZpTCawCkiwJdOzYUR9n3kaoNrZv316XuYE7JeCdd95xdyFPR2Dp0qVW6UUXXaTzw4cP6zijoESJEtYuzz//vJWbUxT27t1rlQ0bNkzn7lKmuiCfBe4SaU8//bQWmDZtmo5V4P5uMgsbN25spunG7lKx5nQfd8nFv/76y6qrd+/eOt+3b5+O81pgLmX2+eefW5fHlA6LI9eSDh06WOfu1q2blaeXmK958zZqdYy7tJ657J47ddR8L+G+V3CXya5Vq5ZukrvU3z333JUAvnYAAEAASURBVKPLVPD333/r3L2tWhfkYlCnTh199iuvvFLHGQVPPfWUtYs5VWTVqlVWWXZu3TeXAnZvfa9QoYI+T82aNXWsgvXr11t5Xk2qVq1qXZr5t9kqyCBxpx38+eef1hHmkq4LFy60ykgyFjB/F7lLuru/t/773/+mWaE5TcI9zpzOqCoYO3asrsd9P6ALCHJcgDsocpycEyKAAAIIIIAAAggggAACCCCAgCvAAIUrQo4AAggggAACCCCAAAIIIIAAAjkuwABFjpNzQgQQQAABBBBAAAEEEEAAAQQQcAV4BoUrkgO5uzSNOTe9ePHiQWuBucRhv379rHp/+uknKycJTCAmJkYfcMopp+hYBffee6+V9+jRQ+fu8wx0gZ9gyZIl1tbszE+1KsrDifmMAHeeYSDPnTjjjDO00osvvqhjFVx11VVWbs7Jdpdn/OWXX6x982PiLq/10ksvWQxly5bV+Y033qhjFZjLb8XGxlplF154oZWnl9SoUcMq/uabb3RuPntBbTSXHFO5OX/VfH2psrz0Zb6O3TnsgVxndHTK2wrz96SqI5CfwUDOmV/2bdKkSaYvdcyYMda+b7/9ts7d9xm///67LlOB+fwjd3lGc+lE872LOu7RRx9V3/SX+cyMDz74QG9Xgbvcurl8Xzg+g8J1sC4mnWT8+PFWqWttFWYjefXVV/XRF1xwgY5VMHz4cJ275zf7Wu1kLl0b6e8TzeenvP/++9ogo8B8JoHad/DgwfqQLVu26FgF7nOnzGeMWDtmMzGfIeOeM5tVh9XhR48e1e1xlyY+cuSILlPB7t27rTyzSXrLl2e2DvYLvQB3UITemDMggAACCCCAAAIIIIAAAggggEAGAgxQZABEMQIIIIAAAggggAACCCCAAAIIhF6AAYrQG3MGBBBAAAEEEEAAAQQQQAABBBDIQCBlsmgGO1IcPIHp06dblX322Wc679u3r44DDd58803rkCFDhujcnL+mNxJkWeD888/Xx7prweuCbAbuHPu5c+fqGrt06aJjFUydOtXKSVLPDTVN3OdTvPLKK2axmGvFFy1a1Cpz5+z2799fl/PMCU2hgzPPPFPHKnDXozcLCxYsaKZW3K5dOys357dbBZlI7rvvPr2XW88XX3yhy1SwbNkyK88PSaNGjazLdOeiJyQkWOVmUqVKFZ1WqFBBxyp4/vnnrdx8LoJVQOJXwHweirvDI488Ym1yrdPrM+tAJzl27Ji1xc3NQneOeJs2bXSx+8wJ93ku999/v943HAP3b67ZRvPv76+//moWyYoVK6w8JxL3PWbnzp31af/55x8dq8B8ToPK3X5R2yLlq0iRIlZTR48erXP374cuSAomTZqkNz399NM6VoFrZhU6SadOnZwtwUkXL16sKzKvS2/Mg8GmTZvy4FVxSZkV4A6KzEqxHwIIIIAAAggggAACCCCAAAIIhEyAAYqQ0VIxAggggAACCCCAAAIIIIAAAghkVoApHpmVCuF+99xzj669bdu2OlZBvXr1rNxM9uzZY6by7rvvWjnTOiyOoCbr1q3T9bm3tbq3GZrlw4YN08epYOvWrVb+xBNP6Ny9Fb5UqVK67Pvvv9exCtzbe81bp7N6a691gjyQmLcQu0tdRkVlfqzWvb3SzfMAVbYvwfy9dd5556Vb3+TJk3V5ercXu0uD3Xbbbfo4FZj94C7Jay6haR3kS9xlUM22q3137tzpHpInc/P3hLs8aNOmTa1rNqebjRo1yiozl0d+/PHHrTJ3GqJ52//QoUOtfUlS337vLv9q3vZtLiWp7Mz+zClLc+qjOuddd92lT33o0CEdq8Bdktl9P2PtnAuJOz3p5ptvTrMVP/74oy4bMWKEjlXgLsVqFeZQEshrwf3dmUNNDMpp3N9T7jRZ8yQbN240U/nyyy91/scff+g40CBUy4zmxlShQK89K/u7y/d27dpVV3PKKafoONDg+PHj+hBz6Wu10X2Nm0vvmu/t1b7ukq7ue3a1D1+hEcj8u/LQnJ9aEUAAAQQQQAABBBBAAAEEEEAAAWGAghcBAggggAACCCCAAAIIIIAAAgjkugADFLneBTQAAQQQQAABBBBAAAEEEEAAAQR4BkUYvAbMOdqBzLlas2aN1Xp3KSRzyT53zlV8fLx1LElgAitXrtQHnHPOOTpWgbss5eHDh3W520e6ICkwl/Pr2bOnVfzss8/q3D3Ha6+9pstUMH78eJ2bbdUb82HQsWNHfdWBPHNCH5QUdO/e3dr09ddf63z27Nk6zs+B+dr9z3/+Y1G4y/JeccUVujy9udIXXXSR3k8FDzzwgJUHK3n11VetquLi4qw8ryYXXHCBvjT3WUju8rkHDhzQ+6YXuPP2zeeNqOPee+89fbg7d3/z5s26LL8G7hK4lStXtii6deumc3eutC4IcmC+l7j66qut2p966ikrj42N1fmgQYN0rAL3tWAVhkFiLpGqmuM+W8ps4oMPPqhT972V+9wVvWMOBmaf5eBpc/xU7mssvQaMHDnSKv7oo4+sPKtJRsuZZrVed+nTrNYTbse5z8659dZbw6qJR48etdrz6aef6rxfv346VoG7r1VIErAAd1AETMYBCCCAAAIIIIAAAggggAACCCAQbAEGKIItSn0IIIAAAggggAACCCCAAAIIIBCwAAMUAZNxAAIIIIAAAggggAACCCCAAAIIBFuggG99eC/YlUZSfeEwN89cc37GjBkWX4sWLaw8vWTs2LFWsTn/s1WrVlZZp06ddD5z5kwdh0tgvizDoY9yw8W97r59++pmPPPMMzpWQalSpazc7NNQzYk0+0id3G2v1aAwSMxnFtSqVctqkfm8FlVgXss111xj7evOA9+5c6cuv+SSS3SsgoULF1p5biRmP5nXFcq2DB06VFc/ZMgQHatg7dq1Vv7II4/ofPfu3TpWgbmO/Z133mmVlShRwsrN6wzkGSMvvviiVc/AgQOtPCcSs+3qfDnVTzlxbemdY+PGjbrYfSZBnz59dJkKzHXtrYIcSnKjj8znDqnLNH8eVN6yZUv1LaRf7mvxsssu0+f78ccfdawC83lLKr/77rvVt8Qvd85/8vZgfzf7yW17ds5lvme66667rKouvfRSnf/77786VoH7zB133rq1c4iSL774Qtd8/fXX69hfYL5fMN9H+Ns3q9vMPlJ1BKufnnjiCatJ7t8es/DQoUNmKrfccovO3b9RxYsX12UXX3yxjlVgPn9E5dHR0epb4pcZJ2/L7He37c8995w+NL1nNemdghCY/RSsPnKbZZ5DlZn51q1brd3dny3zmW7u83Dc92lmRYsWLTJTqVOnjs7NvtYb0wg+/vhjq8T92c7ss5qsSgJMTK8ADw373bmDIuy7iAYigAACCCCAAAIIIIAAAgggkPcFGKDI+33MFSKAAAIIIIAAAggggAACCCAQ9gJM8ShQINc76corr9RtcKdp6IKkYP78+XrTY489pmMVuNNB3NvdzJ337NmjU3OZP7Vxzpw5uiy3AvO2pVDdWpZb1xaM87p9694OaN6+WLJkyWCcMlUdZh+pwrzaT2eccYZ17dOmTbPyKlWq6Hzp0qU6VoH5s7Vu3TqrLKcSs59yqo/M26E/+OAD61LLly9v5aFI3Os0DdT5zGkcL730UiiaEFCdbvvc9gdUWQTtbC5D+sYbb1gtd/vFne5g7ZwDSX7to3vvvdfSNftp+/btVpk7fcCdsmrtHKLE7KdQ/RyZyyiryzCXEi1WrJh1Ze50M9Pvvvvus/YNVfLXX3/pqhs0aKBjf0EkT/EwpzWra/vqq6/0JZp/i/VGIzDfE+/fv98oEXGnhFqFIUrc93TutN4QndaqNid+ls466yzrnGaybds2M5UdO3ZYuZlUrFjRTMV8n+H+Hli1apW1b7ly5XTuvl++/PLLdZkKzJ99t+3jx4+39u3cubPOQzVF0ewjfbI8EnAHRR7pSC4DAQQQQAABBBBAAAEEEEAAgUgWYIAiknuPtiOAAAIIIIAAAggggAACCCCQRwQYoMgjHcllIIAAAggggAACCCCAAAIIIBDJAinr4UTyVURY290lDZs0aZLpKzCXtzKfR6EqmDBhglWPOT/0v//9r1VWpkwZnb/77rs6VoE7j9Rd2sfamSTHBMzXTaNGjdI9rzvnLt2dKUxXwH39N2/e3Nr/hRde0Lk5p15tHD16tC5zlyA1nxOid8ojwbhx4/SVuM9LMZfkUzu1b99e7+vO00xvfqU7V9Sd660r9QXuXHj3uRjmvsQ5J/DZZ5/pk9WrV0/HKjCXn1X5hx9+qL4lfrlzk5O38z1rAuZS56qGXr166YpeeeUVHavAfJbOQw89ZJW5P2dWYR5K3OUFixYtqq/urbfe0rEK3CUhzWUqv/zyS2vfrl27WjlJYAJHjx61DujWrZvOf/75Zx2roFWrVlZuvic2Y2unECbu0pe58cyJEF5emlUvWbIkzbJACszPO+o4N0+vrk2bNunivXv36lgF8fHxVn766afr3F1G9KOPPtJlKnDfz1iFJBkKcAdFhkTsgAACCCCAAAIIIIAAAggggAACoRZggCLUwtSPAAIIIIAAAggggAACCCCAAAIZCjBAkSEROyCAAAIIIIAAAggggAACCCCAQKgFeAZFqIX91N+mTRtrqztH2yxcsWKFmcqyZcusPL3k888/18V33323jlVgrt979tlnW2XnnHOOlbtz8K3CfJKYa4OrSzbnpc2aNStHFFq2bKnPc9VVV+nYX7BgwQJ/m9kWBIHNmzdbtbg/o2ahub62OxfZ3C8vx8OHD7cuz82jo1P+DJk/V+qg0047TR87d+5cHasgvWdOuL8n+/btax1rrnlvFZDkmoC7hvzgwYOttpjPHOEZFBZNwEmlSpWsY77++msrP//883U+depUHavg1ltv1fn69et1nJ+Dd955R1++Ow/93nvv1WUqMP92d+/e3SojCa7A4cOHdYXu86HcZ0KZz5I6ceKEPk4FZu7+7rn//vutfatWrapz91klusBPkN7fMz+755lN9evXt67F/FkaNWqUVeb+nnKfF2HtbCSxsbFGJtKgQQMr79Kli87d10mNGjV0mQp+/PFHnc+cOVPHKhgzZoyVk2RPgDsosufH0QgggAACCCCAAAIIIIAAAgggEAQBBiiCgEgVCCCAAAIIIIAAAggggAACCCCQPYGUe2uzVw9HByDg3lqW3qHLly+3ig8ePGjl6SXm1A13yZ30lu/r2bOnVa25FJxVkMeS0qVL6yv64YcfdKyCFi1aWPlXX32lc/cWf/cWQL1jgEGJEiWsI4YMGWLlZuIuZ/T222+bxcTZEHBvDxw4cKBV28MPP2zlZvLss8/q9MiRIzomSBEwp3WY0z3UHrfddpveMZCl3zp27KiPU8GGDRusnCT8BPLrLc451RPmkovu0qHulA9zmoI7BZVpHal7zHw/5S51+eKLL1oHuLlVGAZJXl2i3H3dvv/++5a2m1uFASS9e/cOYO+UXb/99tuUJB9F7pLf5557rr56dzr80KFDdZkK4uLirDytxH1fYU7DSeuY5O3uctcvvfRScpE11VtvJAiaAHdQBI2SihBAAAEEEEAAAQQQQAABBBBAIKsCDFBkVY7jEEAAAQQQQAABBBBAAAEEEEAgaAIMUASNkooQQAABBBBAAAEEEEAAAQQQQCCrAjyDIqty2TjulFNOsY425/yZcxnVTk2bNrX2NZf/cpc7vPzyy619H330UZ1XrFhRxyowz2MuxaTK3GWT1Lb88GXOtW3VqlW6l3zTTTfp8htuuEHHKvj++++t3Ezcsq1bt5rFYj43xF0asU6dOta+ZuIuZ+Uux2TuG26xu4SruZygauuiRYt0k2NiYnSsAnduoVnozmnfuXOnLm7btq2OVeDua/a/+zyDM8880zrWTH7//XczlZ9//tnKSdIXcH9PmfPmCxYsaB380EMPWbm5tCjPnLBosp00bNjQqsO0zuw8YKuCpMRc0nrkyJHWLu4Scvv27bPKSWyBKlWqWBt69Ohh5U899ZTOV61apWMV9OnTx8rNpfSsApI8L2C+N8zzFxuEC3T/ZpnL8GZUvfkz+s0332S0e54sd99fDRo0SF+n+7yvypUr67KMAnNpWPcZfJMmTbION5//MW7cOKvMfY9uPjPL2pEk6ALcQRF0UipEAAEEEEAAAQQQQAABBBBAAIFABRigCFSM/RFAAAEEEEAAAQQQQAABBBBAIOgCDFAEnZQKEUAAAQQQQAABBBBAAAEEEEAgUIECvvlmXqAH5aX9zec/5NR1ffrpp9apzOcZWAUhTLZs2aJr7969u45VMHXqVCvPjcR8WeZUH9WtW1dfqvvsgGrVqukyFbjPLLAKcyAZP368dZYbb7zRyg8cOGDloUjMPlL1Z7WfFi5caDWvcePGVn7o0CErNxP3uQQJCQm62O2jY8eO6bJSpUrpONDAXef+6aef1lU899xzOlaBOQ/SKsjBxOynrPZRKJsbGxurqx87dqyOVXDxxRfr3G37fffdp8tU8Oabb1p5JCVmH6l2u9ea09dSvnx565TuMwsuueQSXe4+d0UX+Amef/55a6v5e8u9Zvfv0vTp061jczoJtz5S11+zZk3NMHnyZB2r4PTTT7fydevW6fzCCy/UsQrWrFlj5ZGcmP3kvqYi+bqy0/a//vpLH96gQQMd+wvMZ0LNnDnT3y7Z3mb2kaoskvvp2muvtTwCef5Xs2bN9LHms7b0xlwOzH7KqT4ynyvmPo8skDaYbXffs7nP3ctl5myd3rzObFUUhgdzB0UYdgpNQgABBBBAAAEEEEAAAQQQQCC/CTBAkd96nOtFAAEEEEAAAQQQQAABBBBAIAwFosOwTXm+SY899ph1jfPnz9f5k08+qWMVFC9e3MoDScxlFefNm2cdat4evXLlSqssvybLly/Xl+4uBdurVy9dpgJzKSlzWoEqc5ewNG/B2rNnj9pFf5UtW1bHGQXmsT179rR2z4kpHdYJg5i89tprVm27du2ycjNxb/Ezl2VV+xUpUkTvXqNGDR2rYM6cOTq/4IILdKwCtw/N85hLKqp93aViw/HWTNXOSPl69dVXdVPNKR16Y1Jg/hypTe5SYe7+5FkXqFq1qnXw0qVLrfyll17S+W233aZjFZQuXVrn99xzj45VcMUVV1i5+XvLndIxe/Zsa18SkZtvvtli6Nevn87daWtfffWVLlPBww8/rPO8NKVDXxSBFnCXvnSnQuodfYE7hdK9Hd7clzi1gPuePfUeKVvcqQXm+4yUvfJ3ZC7juXv37vyNkc+vnjso8vkLgMtHAAEEEEAAAQQQQAABBBBAIBwEGKAIh16gDQgggAACCCCAAAIIIIAAAgjkcwEGKPL5C4DLRwABBBBAAAEEEEAAAQQQQCAcBFhmtECBcOgH3YYzzzxTxypwn2dw/fXX6/K1a9fq2F/wwQcf6M3m/Hu9MYwDc755OM7TM5ewNNuqSN3nIpj7unPqzPnabne4171//369SzjMIXav222vbixBrgqY/RQOfVSuXDnLw3z2S5kyZawyM+nfv7+ZyltvvWXl5nVaBRGQuG0Ph34y2Zo0aWKmMmXKFJ0XK1ZMxyooVKiQzt357SNGjNBlKhgyZIjODx48qONwDHKqj8yl9YYOHWpR3HXXXVa+fft2nT/xxBM6VoH5998qyOOJ2U/h9nOUU/Tm8rPqnOm9XzCfA6P27dKli/qW+PXLL78kh0H9bvaRqjiS+8l9rkThwoXTtHLf/3Xr1k3vGyprfYIsBGY/RXIfZeHSI+YQs48iptGZbCh3UGQSit0QQAABBBBAAAEEEEAAAQQQQCB0AgxQhM6WmhFAAAEEEEAAAQQQQAABBBBAIJMCTPEIsykemey3PL+bedsSt5aFZ3ebfaRaSD+Ffz+FQx+50zimTZum4dzlfTt06KDL3KWS3def3jECA/dawqGf0mM877zzdPHEiRN1rILJkyfr3J2Ws27dOl0WaUGo+sic0qFMvv32W03Tvn17HavAXaL8nXfe0eU7duzQcX4OzH4K95+jUPWT+3v033//1adylxx1XzeVK1fW+4YqMPtInSOS+unZZ5+1WB566CErTy9x/4a1bNkyvd1zvczsp0jqo1yHy8EGmH2Ug6fNkVNxB0WOMHMSBBBAAAEEEEAAAQQQQAABBBBIT4ABivR0KEMAAQQQQAABBBBAAAEEEEAAgRwRYIAiR5g5CQIIIIAAAggggAACCCCAAAIIpCcQnV4hZQgggAACCARTYM+ePVZ1jRo1snKS8Bf47bffdCNLlCihY4LABTp16mQdZD53wl1K94UXXrD2PXbsmJWTIKAE3CXoX331VQ0zYMAAHavAfSaFVUiSSqB8+fLWtgULFlh5s2bNdD5u3Dgdq6BPnz5WToIAAmkLcAdF2jaUIIAAAggggAACCCCAAAIIIIBADgkwQJFD0JwGAQQQQAABBBBAAAEEEEAAAQTSFmCAIm0bShBAAAEEEEAAAQQQQAABBBBAIIcECvjWUPVy6FxheRrW9g3LbhHzZUkfhX8fqRbST+HfT/RR+PcRP0t5v48qV66sL/Kvv/7SsQpmzJih85tuuknHKoiLi7NyktQCvHdIbVKkSBG98Y033tCxCsxnnqi8du3a6ltIv8w+Uifi71JIubNcudlP9FGWGUN6oNlHIT1RLlTOHRS5gM4pEUAAAQQQQAABBBBAAAEEEEDAFmCAwvYgQwABBBBAAAEEEEAAAQQQQACBXBBgikeBArnAzikzEjBvW+LWsoy0cqfc7CPVAvopd/oho7Oa/UQfZaSVO+VmH6kW0E+50w/pnTWYfdSwYUN9qvnz5+tYBc2bN9f58uXLdawClhW1OPwmZj/xc+SXKNc3mn2kGkM/5XqX+G2A2U/0kV+iXN9o9lGuNybIDeAOiiCDUh0CCCCAAAIIIIAAAggggAACCAQuwABF4GYcgQACCCCAAAIIIIAAAggggAACQRZggCLIoFSHAAIIIIAAAggggAACCCCAAAKBC+T7Z1AETsYRCCCAAAIIIIAAAggggAACCCAQbAHuoAi2KPUhgAACCCCAAAIIIIAAAggggEDAAgxQBEzGAQgggAACCCCAAAIIIIAAAgggEGwBBiiCLUp9CCCAAAIIIIAAAggggAACCCAQsAADFAGTcQACCCCAAAIIIIAAAggggAACCARbgAGKYItSHwIIIIAAAggggAACCCCAAAIIBCzAAEXAZByAAAIIIIAAAggggAACCCCAAALBFmCAItii1IcAAggggAACCCCAAAIIIIAAAgELMEARMBkHIIAAAggggAACCCCAAAIIIIBAsAUYoAi2KPUhgAACCCCAAAIIIIAAAggggEDAAgxQBEzGAQgggAACCCCAAAIIIIAAAgggEGwBBiiCLUp9CCCAAAIIIIAAAggggAACCCAQsAADFAGTcQACCCCAAAIIIIAAAggggAACCARbgAGKYItSHwIIIIAAAggggAACCCCAAAIIBCzAAEXAZByAAAIIIIAAAggggAACCCCAAALBFmCAItii1IcAAggggAACCCCAAAIIIIAAAgELMEARMBkHIIAAAggggAACCCCAAAIIIIBAsAUYoAi2KPUhgAACCCCAAAIIIIAAAggggEDAAgxQBEzGAQgggAACCCCAAAIIIIAAAgggEGwBBiiCLUp9CCCAAAIIIIAAAggggAACCCAQsAADFAGTcQACCCCAAAIIIIAAAggggAACCARbgAGKYItSHwIIIIAAAggggAACCCCAAAIIBCzAAEXAZByAAAIIIIAAAggggAACCCCAAALBFmCAItii1IcAAggggAACCCCAAAIIIIAAAgELMEARMBkHIIAAAggggAACCCCAAAIIIIBAsAUYoAi2KPUhgAACCCCAAAIIIIAAAggggEDAAgxQBEzGAQgggAACCCCAAAIIIIAAAgggEGwBBiiCLUp9CCCAAAIIIIAAAggggAACCCAQsAADFAGTcQACCCCAAAIIIIAAAggggAACCARbgAGKYItSHwIIIIAAAggggAACCCCAAAIIBCzAAEXAZByAAAIIIIAAAggggAACCCCAAALBFmCAItii1IcAAggggAACCCCAAAIIIIAAAgELMEARMBkHIIAAAggggAACCCCAAAIIIIBAsAUYoAi2KPUhgAACCCCAAAIIIIAAAggggEDAAgxQBEzGAQgggAACCCCAAAIIIIAAAgggEGwBBiiCLUp9CCCAAAIIIIAAAggggAACCCAQsAADFAGTcQACCCCAAAIIIIAAAggggAACCARbgAGKYItSHwIIIIAAAggggAACCCCAAAIIBCzAAEXAZByAAAIIIIAAAggggAACCCCAAALBFmCAItii1IcAAggggAACCCCAAAIIIIAAAgELMEARMBkHIIAAAggggAACCCCAAAIIIIBAsAUYoAi2KPUhgAACCCCAAAIIIIAAAggggEDAAgxQBEzGAQgggAACCCCAAAIIIIAAAgggEGwBBiiCLUp9CCCAAAIIIIAAAggggAACCCAQsAADFAGTcQACCCCAAAIIIIAAAggggAACCARbgAGKYItSHwIIIIAAAggggAACCCCAAAIIBCzAAEXAZByAAAIIIIAAAggggAACCCCAAALBFmCAItii1IcAAggggAACCCCAAAIIIIAAAgELMEARMBkHIIAAAggggAACCCCAAAIIIIBAsAUYoAi2KPUhgAACCCCAAAIIIIAAAggggEDAAgxQBEzGAQgggAACCCCAAAIIIIAAAgggEGwBBiiCLUp9CCCAAAIIIIAAAggggAACCCAQsAADFAGTcQACCCCAAAIIIIAAAggggAACCARbgAGKYItSHwIIIIAAAggggAACCCCAAAIIBCzAAEXAZByAAAIIIIAAAggggAACCCCAAALBFmCAItii1IcAAggggAACCCCAAAIIIIAAAgELMEARMBkHIIAAAggggAACCCCAAAIIIIBAsAUYoAi2KPUhgAACCCCAAAIIIIAAAggggEDAAgxQBEzGAQgggAACCCCAAAIIIIAAAgggEGwBBiiCLUp9CCCAAAIIIIAAAggggAACCCAQsAADFAGTcQACCCCAAAIIIIAAAggggAACCARbgAGKYItSHwIIIIAAAggggAACCCCAAAIIBCzAAEXAZByAAAIIIIAAAggggAACCCCAAALBFmCAItii1IcAAggggAACCCCAAAIIIIAAAgELMEARMBkHIIAAAggggAACCCCAAAIIIIBAsAUYoAi2KPUhgAACCCCAAAIIIIAAAggggEDAAgxQBEzGAQgggAACCCCAAAIIIIAAAgggEGwBBiiCLUp9CCCAAAIIIIAAAggggAACCCAQsAADFAGTcQACCCCAAAIIIIAAAggggAACCARbgAGKYItSHwIIIIAAAggggAACCCCAAAIIBCzAAEXAZByAAAIIIIAAAggggAACCCCAAALBFogOdoXUhwACCCCAAAIIIKAEjsmuf+fJ9JlrpfzlN0rbKgXDlmXv3+NlzPglcqR6a7nm2lZSvVDYNpWGIYAAAgjkYQEGKPJw53JpCCCQPwWO//s/eeGdmbIjIYDrj64tVw28V9pXCOAYdkUAgVQCJ/askrkzpsmMWbNkxrQpMvOP9XIgtr282OL6sB2gOLbkv9Lr0vvku03xIlHF5MN+X8j4lzpJ5fAdT0nlzgYEEEAAgbwhwABF3uhHrgIBBBDQAlGla0vjJrtk1eaNsvy3sfLlj0tkV3zq0YqoojXkvGu6ymVNT5UqVetJ9SK6CgIEEAhQ4PjqMfLYAy/LV1Pnytp9CZL6Jy7ACnNs9+OyYsK3MkkNTqivhEPy11ffyeyhnaRLyZOb+D8CCCCAAAI5JcAARU5Jcx4EEEAghwQKVmwsV/RonHS2QdLvg97S8Y7PZV3S5w9VEBXbXP7z7Th57pJKwj+S5lDHcJo8LVCoYku5ddhIub3Qcdn863B54O53ZN6hSBimiJKylSpKcd9TyZKbG1O5slRiikeefr1ycQgggEC4CvCQzHDtGdqFAAIIBEWgiNS95ippV9b+dR/b9Cq5/gIGJ4JCTCUIKIHi1aVu/bpS+/Sz5Pyb+kuPCyLllqSCUrXLw/LiHRdIrZLFpFLj62TIc3fJeZHSfF59CCCAAAJ5SsB+x5qnLo2LQQABBBBIFIitKJUq2TfMFaxcRaram8BCAIFgCRSqJJUqFpVcf5N1bJmMGvaeLDyWwYUVPVt6vD1N1u7eJ5sWfi2PdKjKnVUZkFGMAAIIIBAagVz/2xmay6JWBBBAAAEtUKCQRBeyf90XiImRwszt0EQECARXoIAU8v2M5e7XQVkwfIAMHrNG9p3IZEsKFmRgIpNU7IYAAgggEBoB+x1raM5BrQgggAACuSpQQAoUSN0A/gCkNmELAnlD4IRsnzRM7n1ivGzz8sYVcRUIIIAAAvlDgPen+aOfuUoEEEAAAQQQyCcCx1d9JQ/3e0V+960mwhcCCCCAAAKRJMAARST1Fm1FAAEEEEAAAQTSE9gzR17vN0BGLYuLoKVO07sgyhBAAAEE8pMAj0jLT73NtSKAAAJZEDiy9S+ZMXGqbK51o9xyQcWUOeondsuyqePll4WrZfuhaClbvY40u+gKaXNqUf9n2b9KZk2eIYvXbJFt+09Iscp15byOl0qb00r639/f1oMb5M8Fi2XF+g2yccMW2X28sJQuX0VqN20rF7Q4TUpn5bkaR7bJktlTZdZfa2TrnqNSqGQ5qVSrvrRo00oaVk3jWvy1zc+2YzuWye8zZsui1Vtl1/7jElu2ktSs30rat20kVUK+SsJB2bhwlkz/fZls2LpbjhWrKDVq1pJT6jaWlo1rSGBXdkDWzZspsxatki07dsm+uBgpVa6CVK3dRNqc31xqlvBz8RlsCpfX1YG1v8nE8SukfJeb5YKKSS+gE3tk+YxJMnPJOtm887AULldNTmt8oXRsXVtKZuU1loGFW5zV182JrbPkjXt6yeAJm0WvKhx/SHauWyEr9Du+AhJbvpbUKON/HdH9q2fJhIlbpU7P66RpQK/RYL5GTsielb/KpIlLpfilveXy05LbekL2rpgh4ycvkNVb90tC8SpS99yL5ZLWp2ftZ9+FJ0cAAQQQyH0Bjy8EEEAAgbwtcHimN7hZrJqJrv8r2e1jb2c6V71/zW/et8Of8O7ofK5Xq0SU77hi3uVv/OvFJR6z31s+7nnvlnMqedFRKXWq+qPKNfFufWeBt8+se9dCb/TgG7xzqsV6vtv2dBsS9y/bzOs1wtnfPDYpjts81/vyub5ex7qlvNjKTb1OPe/y/jPgXq9XlzZe7WK+9kXFeJXOvdV7eeIa76if4/1uit/q/fbhAO/K+qW8qJhyXp1zLvIu7XCuV6eMul7ftcRW8hpedrs36IXh3mc/TPcWrljnrV+//uR/G7Z7B/xWenLjgRUTvNfvvdSrW/JkXaa9SJRXonYH797h0731mW5sOidzi+K2eL9/+rh3c8tqXmxUrFfx9CZe6wvbea3OquYVU/0VVcard9nd3kvf/eXtco918wOrvMlv3+tdcVZFLyaqmFf97PO9jldc6l3Q9DSvbLS6tigvpuLZ3pX9/+v9svqQe3SqPFxeV3Hbl3o/fzTMu6fzOV71or7rKHaZ9/py9eo+5K0cN8y7sXlVn539WhWfZbU2fb23Z2xI+jlIdXnGhv3eN/9XLeX1XrS99+JfGXd2dl43hxa+593UoETKOZ2ftZTXYAmv87vrvHijtUe3/eWNf/8p786rm3pVY30eJbt7o/cbO6QXBu01EudtXzrZG/XiAK/7xfW8cur1Fdvce3Tm4cSzx2+b471/Tzuvpuov89qiSnln3fCSN22reUXpNZgyBBBAAIFwFpBwbhxtQwABBBAIgkAAAxRxq77yHrzsbK+S+pBifghIGqA4un2ON6JvS69itO8DfHQpr1bjFl7jWqWsgYqoYo28+37Y6vsAFO9tm/mG16NJ2cR9a9Rv7rVu3dyrW7WEs38Tb8CEtIdL9s0bnvTBK9qr1vFJb/Kmk8MkJ2XivM0znvU6VY0+OahQto33yER17gy+Dv/jfX5XC69cVJRXtF5X77WZW/Qxh9dP817tVs8r6n5ANT3S/AB32Pv320HeJTVjvRL1rvWGvP+dN2X+cm/NikXezPEfe49fU88rkVxvVEmv8e2feIvTG+nI4DLc4rh1k7wXbqjvO0cx7/ROg7yPZ6729OfM+N3e/Deu9Wr6+i6xb6MrexcM+tFbnwbWgX++9Pq38Q1CSbRXqVVfb/i0NcagzFFv89zPvSFX1tYf5KMrne/958t/fB/xU3+Fx+sq3ls75R1v0K0dvHplo+0P8mqAYtkmb/LTl3unxrivfXugIqpUc++er1dmMBAW6ABF9l83h/+d6n31+Whv9KhnvBtqn/x5UP0cXfsG75lRvu2jk//70pv0t+9VcXi9N+fr172BPdp7ZyQNyumf+TRf33bfBus1cnjuf71b29bxSiX/bCT/rCUOUBzyds97x+vZyDeQ6Pt5jS1T0SvrDlL4XqM1b3jfW2b+arCbSoYAAgggECECDFBESEfRTAQQQCDLAgEMUHh71nhLlqz2Nqya6b3Zrbbvw2nyh7OiXps7HvN6NqvhnXXVAO/t72Z7/2xN+igav8v7/e1uXl09qBHllbn0VW/mhMe9S6pX9drc9bY3YelOPQDgxW/35rzT02uYeGeGqj/KK9vpLf8fLnZP9B5qWuzkh8noOt69P/r7NH/I+/3J1p5vykJiXUXPe8L77eQ/uqZBttub9nhbr6z6MBRzutf3m62p99s9zRvSyvjXaN+/np9+YVfvpptuOvnfrS95U1J9Eo/3Nk8Y6LUqE+2VazfEm7zZzyf/uDXel7ef6fkWoDw5SOAbpGj92AxvT+oWBLwlftN4b2Ar32BQVAmv0f997i33Z3BgqvdwY+NumuhTvVtHr0/pm6SzHl76gXfzGeqOF9/dHi0e8H7c4Oda1L4Hlngf9jhDX09U7BneTe8v8VKdOixeV3He8gnve2+/9ar31F0dvFrmQETR870+/S/13U1R1Wtx4yDvzdE/eNN+n+fNmvC59+r9nbx6zp0wUeU6eC/MS/UCMPoskAGKIL9uDvn6uFHMydeX73UW0+hhb6qfpsZv+Nl764lh3ouvveI93r25V8YcHMjEAEUwXyPx21Z6S1au91b//qF3W4OUtktsU++uFwd7HWuU8M7o/Lj3+W/rEgfA4vet9+Z9PtC7uHrKQIzEnOn7/RCMnySjGwkRQAABBHJcgAGKHCfnhAgggEAOCwQyQGE0bd93d3i1kv+13fdBJyq2rtftzdneNn+fVeM3eKO6V0sZ0PB9SC5ZqpbX+fW53m6jzpRwm/dV71p6/6iSV3pvr0j9z59bP+vhVUr+4BRVyev1lTV5RFd3aOIDXv2YpA/9sed5Q+ekfTv90YUveh2S/sU4umZf7zu/VcZ7G0Z196rr64/xGjzwc8rdCPrMKUHcqk+8m0/1fWDy/avvoOn6voWUHZKio3++4LVX01KSBimiynby3vwn9bWnOjC9DYcWeK9fWd3nGeUVazHIm+If3VfDAe/n/9TXAwpqcKhM15HeFrPuPbO9YRdXODkoFNPQu3982ne3qMPit/zo3dcoZdAjqlw778mZaTbAC4fXlXd0ofdcu6K6DxKnqtS63Ht64no/0zfivPU/D/EuqpjSZ2r/Sle/7f2dZrdlfoAi6K+bTA5QmF3u7f7O66teu8kDZxkNUITsNXLImzKwofH69P3eianpdXx0rLcy1ahXvLduVI+UO4J8d1Gcdvf36f6MWtdMggACCCAQlgKs4uH7a8wXAggggEBqgULlK4pvKkfSV7RUueFxefWeVpL8HMHkksTvBatI+3YtxfeMg5NfCUek1FVPyxt3nyNlrB2Tk3LS+rzm4ptGkfiVcHih/Ln4aHJh0vfjsmPzZjmYvFJiwmHZs3uvnHD2UmmB4sXFN3Xi5Ffcv7Jy9eGkxP12ROaN+UJm7jlZaUyNGlKtsLuPygtK9cuvlcurJQPEyYrxE2VOWtXKXpn57qvyvzXxUvTcLnL9uWk/NbJw3Yvkoqax+qQJu6fImO+WyDG9JdDguKz6/Hl5YfxGiY+uLFffc5e09Y/uq7i4tLrqajk7Gd63pXDhGEmmEzkuyz57Tl6ZsiNxBYiiLW6Qmy4sl26DClbuIPfe20kqJ/flrhny2rOjZGkaF5T7ryt10TWlapXkvvXlMXXkttc+ksEdakjy4xhTLrqQ1LhksLw9rIvU0IckyLafP5Ev56X5gkg5PN0oN183RsOK1pJTa/nu68nUVyhfI4WkYoVKKX0QVUw6DPtevn7qKqmd6oGdBaXmZZdJO9+tUCe/4mXrkqWyMo3XXaYujZ0QQAABBHJdIPm3eq43hAYggAACCISXQFRMjMQYfyViS5X0fbxN66uglK5RS1I+80VJiUqVpVyaKx4UlJKVqkj55Prj98j6DZt9H4/Nr0JyWrvLpE0l9akwSmJOvUyuaFslZRURc9cCRpIQJ3v3+h/IkONrZO68ZWIOhah/Nvb7VbaNXNC2rP7wHrdhufy7xd/wiMiJdd/Kex//6as3Rk5r0ULq+h30SDpL4TOkUaMqoj/r+o5a+Nsc2eS/ar9NszbunSrDX/9ONvmWbYiqeIlcdWl1/0ZJBxW/4H7fAMIt0vasBtKyy0B5c1BnqZhc4YGZ8tGIn2VX4vhNjNQ+7zypn961JB5XSGpf2106n5p8RQmye/K78uG0A8m1Wt9z/3WlmlNIYmJ895skt6zQaVKvfpqjOr69Ckvdm/4jvc8pmnLM0T/lx/F/yJHkOrLwPVdfN2Z7o2IltrD5Q2QWOnGIXyMxMeYQUbRUrH6apDncV7Sm1KqZMrASv2On7Mzqz5FzmaQIIIAAArkjkPxuInfOzlkRQAABBPKMQIGiRVLuoMjEVUXFxkoR/QnRkwP7fcsGOscVbf6AfDG9qUxetF+qt+wgLWuZH16Mna1RhgSJi4tLrCvV+Mjx7bJ9a8owSPy+veJb8TSNr5Jy1tlnSaxMkcR/J/fdFXLksGqhW+sJ2TLlZ5m8Q5XFy+bvHpKLZ6V8aPJX+dFtO41rTZDD/yyT5b5PuqelPQLkr5rEbbunfiPf/BOXGBdp3FSalk5z16SCCtKm30cyvV/q/Q4vnCyTlp+sS30or12nju//mfgqc75c3L6qvL9q/cnlLeNWyuQp8+VwxwsDXM409blC8bryc5bUm9wtRZtI587nygu/TT35evANLP3zxyLZdLyN1EnjZelWYee5+7qx25LJwQnfQWH1GlEDKym/RCThyBE56v4SsS+UDAEEEEAgzAUYoAjzDqJ5CCCAQOQIFJDMf8zxXVVUgZR/jfZ9XD9y5KjxoT3lqkvXvVCuq5uSm9HBtbPku9GfyKhPvpJ51m0RaXxKKeBbk6KQHhWR+PWrZc1u3whFUXfQQZ2lsFSvXEl8S6lKYsOiSkqp0inHprTjsCxcME/2JZ4yWirVbiRn1fBXX8oRctZZ0vwiI4+uJYWSxwWMzRmHh+WPX2cl3j2h7jIpVbWaVM7Sh2V1pmOy8vc5sjzZMSpaipcomWo4xn+bSkmzpk2kiKyXk/dNxPnq+l2WH7tQmmRqhMN/rSe3huZ1ld4Z/ZcVljNat5H6sVNlfpLR8XXrZK1vvCtrAxS5+brxf4UZbw2310hAv3Eyvjz2QAABBBDIdQEGKHK9C2gAAggggIASsG6CSJfkgKye/q18+sknMnrqbql/9S1y++Desvv/XtEfHNM8POY0qVPHd5v+gpODIQmH58ucOXvl9uv8P2ch2jfNJfkPZewZ9aVeeT8DD8e3yJrV207eOeAb1KjXZagMvz39aRZpti/QghPbZMXy9XJybMM3oFCsWCYHFPyd6LisXrUiqS5fecIJiT+ecreJvyNSthWUiqefLupu+6VJAy1xa9bLBt/h2R+gSDlLVqLMv64yrr3IGafLGb7nd8xP+mf6+F17ZF+ad+BkUF9uvm4yaFraxXnzNZL29VKCAAIIIJDTAv7+KSin28D5EEAAAQQQyFjg8FqZ8dET0uvCJtL05vdl89n95Ks5v8s3r/aXTqeXyNwH84KVpP0Vl4t+9mX8ZpnwzQ+y1u+HzOOybsPGk7eM+x7W1/SqK6Rpqgf1+Zodv0N27kiu4ITs3bM7abAi40vK9h5xW2TrtuRBhHjZf+iQ34eIZu48x2T/vv1G2z05eHB/pusrVKmSdfdGwsHDciSYowOZu4jQ7lXM9+DYCslDVr5TJST4vesnU43IzddNphrobydeI/5U2IYAAgggEDwBBiiCZ0lNCCCAAAIhETgu66e8IX06tJaLbn9TFlXt63suxQR5p/9V0rBioPMZfE/+v+ERefrm+kkriMTLlm9flhe+X5/6g/jBP2Ts93N8TxqIkjIt7pXH7mjh/3kK3nHfMy+Sp5TEyZp1652HfYYE5WSlXpzEHUs+d4Ic2rFddiWPlQR82igpYN0xf1y2bd2ackdFBvVF+VZSKW68q4gqGiuZfe5iBlWHT3GBYlJML1UjEl22tJT0c1NNphqcm6+bTDXQ3068RvypsA0BBBBAIHgCxluJ4FVKTQgggAACCARHYJf8PryXdLrmfnl/zj5pdPeH8u3IB+XS2kWzXn3henLLm5/Jm73PSVxGNeHoEhlxVw95cNR8Sb4Z4fi23+SdfnfKK7OPSeUL/iMjRj0hHf2ur+prRkHfEqclk/9VPV62/fmX79kLWW9eQEcWLGmcW+TIokXy56GAajB2LiRly1XQU1rENzSxcuWqpGdKGLulFRYsaDxTxPfhvVplqZzVD+9pnSO3t3vH5JgejPKtBXLqKXJqoGNkydeQm6+b5DYE/J3XSMBkHIAAAgggEJAAAxQBcbEzAggggEDOCfjmu38+QHr2/1wW70+Q6NrdZfCjV8spWf1AaDa8RGO57b1fZMaYh6V9xSiJ3zpDXr31PKlXt7Gce049qVG7vTw2p7xc/9wYmfz9i9KlTjpPeowuI2VKp3wSP+pbCeOXZQGOUBzfKEsWrZWDZhszE0eXl/K+tVyT/5jHb5kuv8zck5kj/exTRM6sn3xniSr23ZGxdKksTVzCxM/uzqaEg4ckcZGTxO3RUtX30Mwz/U2JcY6LqDR+n+zd7VvPNfErVuo3byY1svp6zM3XTZbReY1kmY4DEUAAAQQyJZD8niZTO7MTAggggAACOSZwcLaMeOELWZ74L9a+aRat2km7ikE8+5HN8ufk6bK92YPy8S/zZO708fLpK4/IgCHDZcKSzbLp74ny7oNXS72SGZyzYBWpW6+WJC8smnDoNxk9arrszuCwlOJjsvTD++XmZ3+R7YFOzyhYQRo2qq/PLb7lPb/59DtZk9l6TmyWHx/uKc/MUqMQBaV6qzbSNDalZXH/zpSZi33rn2bi6/imTbIx+XEYUeWkVeuWkuGKp5moN5x2ObZ2lazamzSlJuYUad26oW/lkix+5ebrJotN5jWSZTgORAABBBDIpAADFJmEYjcEEEAAgZwVOLJoskxapte8lJIlS0ia/1id4AWwCojvOg4vkY/vukEe39FTPvvyObmlfXM5p83FcnnnG+T6q9pJ41PKpH2uVAxFpWGz5lJe/0U9KotHDJXXZ+5Ntae/DQfmvSkDnlwm7XtdK6el3Ijhb1c/24pIg/Nay6nJoyO+R1xu+uZ5Gfa/dZl4DsYxWT7qIRn0RwPp2OzklJnCZ14mV55fSt+RIUf/lMm//O1bgDSjr+Oyedk/sjZpBY+YujdI10srZXRQhJWfkG3z5slfiS/JKCna/Ebp1rZENq4hh143x3zTUrLRSvdQXiOuCDkCCCCAQDAF9NupYFZKXQgggAAC4SRwQq0YaX+d8C0haW8JfuZlbwmH+M2b9AdeNd1gx9p1ss29jqRWH/c9HHKHcUEnfNeX5texVfL1gFvk3m+qyZ1Db5OG2fmMmXSSChd3lqtrJz+Hwtfa/XPktf4Py+i/05u0cUJ2zHpVbr3pcfnnwgfl3g5l0mxyegUl2naTm87xLZ2avFPccvn4vt7y1M8b0xmkOChLP+0v3Qf+I5c91EeaJd8GUPhsublvN6mtBzwOy++jP5WpGc0aObFRpkz5TRLvtYgqKxf2uV06+F+5NbmVWf+ezddVlk98fK2MHzdF9qgbKKKry9V9bva/qksAJwjJ66ZAYSkcq18NEr97r+w3fjb8Ny/BGeBLkBNpHRPy10ggvzd87Q5kd/8Xz1YEEEAAgTASSPkLFkaNoikIIIAAAkEUOHFQDh6wP22c2L9f9iTfjp/GqRJ8n1BOJC8QkcY+5mbveJzoBSV8AwrH4uLSX4LxuG/1C6MCz7NPVqBYcSml/0olyMFJH8p7U92JEydkz5Kv5MlX/ifr9CX6tu3dm8YAzHH554P/yD3vLpQDRzfIvImTZN6yjbI3u//EXK6D3HprGyljtHf/HyOkz7U9ZMio2bLemSVxfNsf8r8X+0rn6x+ScQWulaFDumbh7okkvCJNfc/p6C5n6EEF38qnW3+RYV0uki6DPpBflu82Vijx2SybIP/9z3W+D9ifSNz1Q+TeC+2BkUqdBsrTt9STmKRrifvncxn+2ZKTgw9Gf5nhwbmfyMcT9/r62/fsiSsel2f7NpS0ntqR268rs906Pr5ZNm5wOkkXngx2TRku70zYlXiNNa8dIo/fXDvdu2zifa/vlC/fB3775X2yKBSvm5iKUqF8yq04CQeXy7Jl9rXtWTxL5m422pfg+9k9ZnzS947IkYNpD/KF7jWSIEeOHnMGS1IUU0UnDsgBc/Tl+AnjtZ5qbzYggAACCESAQMo/90RAY2kiAggggEDgAsdWLZHFW/Sn98QKji2ZL/N3nJAzq6Z8kHFrjt++XbbrwxJk/74D6fyLvG/Nh107ZZex/3bfcpu+U0jxNE5xbO8e0c8b9A0n7NixK/FW9OR/zC/SpIWc55s3sXrryU92CUcXyCu9usrxR+6SKxqUkAPr/pZ5k76Wz77fKg37XCPnL3hPpieuYBEnS3/6Qr65rKictud3+XZeObl3yA1SI7Ede2TujGmyU1UZt0Q+7XeFfOq79yC6RAU5pVY1KVvSt1Rmcd9SkkXVcpLFpGixolKyfC05/cx60rBFGzmvblnfkxr8fRWVFvc8Iw9OuVoe/WVH0sBMghxe/p3vw/738vbjjaXhmadK1dKe7N28Tlb8vVhW74iTqMrtZfB/X5LuddP6OO/vXO62glLjmiHy3B3zpMdbvoGXpA/CCYf+lR+eu11+fOkBqXZGHalZLkYObVsnq9dulf1xUVKr88vywTOdpbp7QYVOlS7D3pZ/1/eQoRM3SXzCNvlp2IPyepNP5MHWFVJf/64Z8srgt2WOz77suXfK66/cKU3SWWQlt19Xrl5iHrdY3nvwAan/0ctya6PUDx05/O9oefiBt33TO3zPQjn3Hnn9uZ5SN835Rr4aj2+SzZsPpQzQxe+QneqHIdVXCF43vmdbNDi7jsT8+OfJAcDDc+WjZ9+R9u/cJa1L7pXFE9+RQY/+Jm1GfCUtqiZdRNxG2fj/7N0JvFXj/sfx56ROk0yRhCJTIkWRORkSSl0iRMlYrplwzTPX5SYXSYjMZYoGIfxTkjFDgyEpKpQ0aNKw/ucXPX7P45zVGdbee621P/v1uvc8v73WXut53t/z7H1a9lrrB3W4cNXcovlYNJn/mDR/63XR7Usy9Duyqsjp578OLq5ebRYtkANstf7+eye9WjzbzPrRvumYlQuKnOeHvOn8fSQ8gwACCCAQN4GABwIIIIBAOgWW/Bx8MeL+4LzWWwZFR6PlP49k+qi1AABAAElEQVT+9b9KhcH2R14W9H9jSjB3yd+H//tP44N7jtvWeV3lbU8I+k6YF6z8++rB77PHBXd3ctevtMHewYXPTQ4WFrP+shlvB3d0rO9uv0HnoN8Xi9TaC4J3bjww2KSS6rceg6kU1GjYNrjqxa+CxYtHB1fuXu2v8a1dr3L9oH3v8aoPy4JP/9c+2LJySdss+flKtXYMjur1WPD+z8UJ/NHt36cPC/510ObOuBz3tf0q6vuGu54Q/Hf0j8V6KoTSN5dMCZ45d68Qrz/HVqlm0OjY/wRvzy55HGt2OndccN8pTYOib4Wsca1c98Dgn/ePDL5a8GeXVv4afDXqgeC8A+sFlSvVCnbqeEswcsbvof2Nx++VdHFh8Ey3TYKiL4n88TtTWD9ovHPtoLDO7sGxl90fvDTm82D6vEXBL9M/CUY8cGlwxHbVgkqVqgUNDvtX8NLUZaFjDJbNDMY+2D1oWqOS+n0sDHY6uW/w3uziXxv1783icTcG+9XS+zdBpRq1g7q1awSVajYOuj06KbA9Wfxt8PqtRwf19ZyoVCNodsajwUdzs/s7Mu/TR4JTGxcqt0pB7UOuDUZ+V8yb1LJpwYgrDw420+8PlTYMWl/9ejDDDi48KpYigAACCMRPoOjcPR4IIIAAAmkSWPbBf4Kjtt882KDQ/QdK8f9QLvqHS+EGQb2dTwse/35lsGRM76BL2wOCJlsW/UNm7T/e1M9KNbYMmhzYNjjprncC+SfDsg/uD049rGWwU52if8Cp9ey+Km0cbNeidXB0r2eDaUX/1vl94iPB2Qc3CxpsXLmY9SsFlTdsGLQ4uH3Qrc/YNdsPlkwNXr39hGC3jfVYitbbpHFw1IUPBmNmrv0H8e/BpAePDxqoMVeq3SI4vd/4YO7fwl0UfDXs9qDL7rWL6UPJByj+GFPloMFxDwZfhP0DaMHkYMjtpwYHbLtBMdsvOqhSf7/g5GsHBuN/Wsc//v7W79I8MS/4bPD1wUn71A9q6n+4STaVKgcbN24fXNz37WB6WP+d3SwIJg25Izjr8F2DOmtsi+w32DJo1LRZsPPWGweFlTcOdjzolOC6pz4KQo7bxO/3yj9AUbNtcPf40cH9Z+8fbKV+h9ZkXnQwr06TI4N/9nk9mFbMv5PXcq38cUhwVbv9g2bbblx0wKa436Miu9rbBy1atQsueOLLYO1v7trXB5H+3swL3u19TLCDPkhSlH/t3Y4JrhvyzZq5tWTMf4OT2uwXNG2wYTG/p9L/ot/Vuo2CvQ4+PvjP6JCBBxX/HVn2+UPBWUXvC/U30PP8L8NKG24bND/4pODud6UfS4LRd/wj2HuHzYKi05DUwYw/20V51d6hZXDUja8F+nCndaaBAAIIIBBrgQLpXdEHMA8EEEAAAQRiKrDKzJ/2ifnwk4nm61nLTM2625ndD2xlmtTxv2O/xEwbM9y8+ekss7xGfbPHIW3M3vWLO9eg6G4MY+43F5//pNmkVx/Tdav5ZuYPP5iZM380c+YvMouXLDFLliwt+t9is2TxErN48WKz6JfpZuIXU80vy4rOn6i8g/nnC++be9uv4yaay38yX7w7znz+3U9m7sLlpvL6tU29HXY3e+/Z2Gy+9jyWjIkvMT98Mta8P2mG+fGXxaag5qZmq0Z7mf322t5s4rOVsg8Lv3vfjPtkqpn10xyzaFVNs/Hmdc22TfY2LXeqHXothlJuPsurLTLPnrqNOemxeX+chlHzCNPn4yHm/B2NmTPlXTP6vUlm5oKVptomdc1W2zY1e++zo9nEPxUmUz2O7Pdmhfnlqw/M+A+/MNMWVDWbNWxi9j9wD1Mvg7976fodyVTAbBcBBBBAIEyAAxRhOixDAAEEEEiZwJKiu1dcYk67cLCpcf6L5oVrDzDuJSJLHu7yOZPMGwOuN71ufMXUvOh1M/qm/U0G/61XckdYEoFASQcoynn0JoIesQkEEEAAAQQQKPr+HggIIIAAAgjkh8ASM+nx88yJPR40X+5xufnvpaU/OCE+VTdrbI665E5z4WHVzbLlv6/5Pnl+uDFKBBBAAAEEEEAgOwIcoMiOM3tBAAEEEMixwNJPHzSXXvKo+XxxdbNPu6PNrsWd/bGuPq5ebBYvLTTbN9ymxNtormsTLEcAAQQQQAABBBAoXoADFMW78CwCCCCAQKoEFppRD91nXp8j9+AMim6ZuuCvWxmWepxF16546xHz9DdtzLFHNij+toel3hYrIoAAAggggAACCPgCHKDwRagRQAABBNInsOo389Osn/48KLHEvP/Qjeau12eYFaUe6a/ms0FXma49hprG111jOtfP1hUTS91BViyTQCB3MVOvKGrrUi2hiQACCCCAAALZE+AARfas2RMCCCCAQK4E1qtt9th7L7Phn596K2cMM9cde7jpcO6t5uFhH5nvF63yerbKLJn3g/ly3BDT74YepuOeu5l9e4w0W171tLnnlB0SeNcKb3j5Xq4qOlVn8co/7uAhFoHctUW+XcMDAQQQQAABBHIpwF08cqnPvhFAAAEEsicw/0Nz71knml7Pf2PkbqH6UalSDbNh3S3MFnU2NtVWzi/6tsUsM3v+ErNa1qtUzWx72LnmxluvMCfuUZtTOzRcUtu/jTZXtjrc3Pbxsj9GUKmuOenRD8zAU7Yi36RmSr8RQAABBFIhwAGKVMTIIBBAAAEESiWw9DvzxsN9TN/HBpvhH8/824EKvY1KNbY2ex19ojnl5FNM57a7mtqc1aF5EtheYeZ9+4X5/IuPzagn7jH3Pv+Z+dUeqKpkChscZE4/51Rz1F7bmc1r1zMNG29jNiHzBOZMlxFAAAEEkizAAYokp0ffEUAAAQTKJ7BqoflmzAjz+gdfme9nzTazf/zJLFhV3Wy0cW2zad0GpvHue5l99t3T7LRZ1fJtn1fFT2DVNDPo6n+ZQV+vXHffCpuZM+672rTdeN2rsgYCCCCAAAIIRCfAAYroLNkSAggggAACCCCAAAIIIIAAAgiUU4CLZJYTjpchgAACCCCAAAIIIIAAAggggEB0AhygiM6SLSGAAAIIIIAAAggggAACCCCAQDkFKpfzdbysAgIFBQUVeDUvzaRAEASZ3PyabZN/xonLtQM/e3IqF2PGX6RzIqOMc5drBzoj2QA5lYsx4y/SOZFRxrnLtQOdkWyAnMrFmPEX+TllYodknwnVaLaZjfyj6WlytsI3KJKTFT1FAAEEEEAAAQQQQAABBBBAILUCHKBIbbQMDAEEEEAAAQQQQAABBBBAAIHkCHCAIjlZ0VMEEEAAAQQQQAABBBBAAAEEUivAAYrURsvAEEAAAQQQQAABBBBAAAEEEEiOAAcokpMVPUUAAQQQQAABBBBAAAEEEEAgtQIcoEhttAwMAQQQQAABBBBAAAEEEEAAgeQIcJvR5GSVs55ed911zr67du1q686dO9u2ND788EOnpki+gM5fZy8jI/945Kszkh6F5cQczV1mfk7dunWznTn++ONtWxrk5HBktdA5MZeySl/qnemM5EU6Jz6XSs2Y8RV1Tvr9TnbMe17G+XO6A529dIQ5mtM4ErdzvkGRuMjoMAIIIIAAAggggAACCCCAAALpE+AARfoyZUQIIIAAAggggAACCCCAAAIIJE6AAxSJi4wOI4AAAggggAACCCCAAAIIIJA+Aa5Bkb5MKzyigw46yNnGWWed5dRLliyxdYsWLWxbGpw37XAksgjLX2cvgyP/3EWscwqbo35OzNHsZaYzkr2effbZzs71fGIuOTRZLfyc9HzSGUmndE7MpezFFJaR9ELnpDOSZeQkCtl5+Dnp9zydkfSGnLKTSbb24mev30elDzp/ss9WKsndD9+gSG529BwBBBBAAAEEEEAAAQQQQACB1AhwgCI1UTIQBBBAAAEEEEAAAQQQQAABBJIrwAGK5GZHzxFAAAEEEEAAAQQQQAABBBBIjUBBUPRIzWgSMpCCgoLY9bRWrVq2T99++61tS+Oxxx5z6iuuuMLW/q/PqlWr7LIkNvzxZGIMcctfZy/jDctfZy/r+l5Jzt8fS5JyCpujfk5JzsgfS9wykv7p+TRt2jR5yj78nC6//HK7zP/9S3JO/ljilpPOSAIo73tekjOSceuc4paR9E/nFJaRrKs/m/S4ZFmSc/LHErecdEZiHfaep9/vZF1/bGnKScYX9SNu2cv4dP75OkfFwf9dlud4VEyAb1BUzI9XI4AAAggggAACCCCAAAIIIIBABAIcoIgAkU0ggAACCCCAAAIIIIAAAggggEDFBLjNaMX8UvPqnj172rEsW7bMtqVx1113OfXKlSudmiLZAjp7GUlY/mSfu6zDcmKO5i4Xf886J38u3Xnnnc7qzCeHI2uFzkh26uek5xMZZS2Wv+1I5xSWkbyQnP7Gl5UndEayQz8n/Z5HRlmJJKs70fn72ev3UekU+Wc1msTvjG9QJD5CBoAAAggggAACCCCAAAIIIIBA8gU4QJH8DBkBAggggAACCCCAAAIIIIAAAokX4ABF4iNkAAgggAACCCCAAAIIIIAAAggkX4BrUCQ/w0hGcNlll9nt9OvXz7alMXv2bKemSJeAzl5GRv7xzDcsJ+ZofDLTt9JjLsUnF92TsLkk6zGftFbu2jon5lLucgjbs36/k/XIKUwrfcuYo+nLNC4j4hsUcUmCfiCAAAIIIIAAAggggAACCCCQxwIcoMjj8Bk6AggggAACCCCAAAIIIIAAAnER4ABFXJKgHwgggAACCCCAAAIIIIAAAgjksQDXoMjT8GvVquWMvGrVqraeMmWKbdNIp4DOX2cvoyX/eGSuM5IekVM8cvF7EZbT5MmT/dWpcySgc2Iu5SiEdexWZySr6pz4XFoHXhYX65x0RtIF3vOyGEQOdqWzl93r/JmjOQgkxbvkGxQpDpehIYAAAggggAACCCCAAAIIIJAUAQ5QJCUp+okAAggggAACCCCAAAIIIIBAigU4xSPF4YYNrW3btiUufvXVV0tcxoJ0CJB//HMMy0h6zzyNR4ZhOZFRPDKSXpBTfLIoqSdkVJJMvJ4np3jlkc3ekH02tfN7X3yDIr/zZ/QIIIAAAggggAACCCCAAAIIxEKAAxSxiIFOIIAAAggggAACCCCAAAIIIJDfAhygyO/8GT0CCCCAAAIIIIAAAggggAACsRDgGhSxiCH7nejRo4ez0+XLl9t6zpw5tk0jnQI6f529jJb845G5zkh6RE7xyMXvRc+ePZ2ndE7MJYcmp4WeTzoj6RQ55TQau3OdkTypcyIjy5Tzhn7P0xlJx8gp5/FktAPM0YzysnElwDcoFAZNBBBAAAEEEEAAAQQQQAABBBDIjQAHKHLjzl4RQAABBBBAAAEEEEAAAQQQQEAJcIBCYdBEAAEEEEAAAQQQQAABBBBAAIHcCHANity4Z32vBQUFzj5r167t1KNGjXLqTBUHHXSQ3XTnzp1tu7jG/Pnz7dPvvPOObUtjxIgRTh0EgVNTuAJh+ecie+ldWP75mr3OKe5zVGckeYbN0TTNT52RjDsXOen3UenDCSecID+Kffg5jR492q6X5vfRsJxy8Z4X9n4ngeicwuaSrJvW+RSHuRSWk85IcgjLKa0Zybh1TrmYS9IH3vNEIfOPsPdR2Xsu8g+bo9InPU/D5qism6Z5KuNJ04NvUKQpTcaCAAIIIIAAAggggAACCCCAQEIFOECR0ODoNgIIIIAAAggggAACCCCAAAJpEigo+noL343PcqL+V6aysft69eo5u/nhhx+cukuXLrZ++umnbbusjcLCQuclt99+u1NfeOGFtp4xY4ZtS2PRokVOrZfvv//+zrLjjjvOqV977TWnLm+RjekQt/x19uIWVf5h2ct+dL5xzD7XOYXN0YrkFNUc1flJf8LmaFTzU/aj52iuM5L+zJw5U37Yx0knnWTbUc2lf//733ab0tDvo1LrLMLmkqyrc+rUqZM8ZR9R5aQzko3HISc9n6J6z4tqLomRzlBnJMuy8XmXi4xkbPpvE52RLNM5RTWXZLv6sylsLsm6ej7pjGRZWE5pnkv6PU+/34lJVDkl/T1PLKJ+5GKO6vkp48nFHJX96nnqz0M9R2VdvTxsjsq6mZqnsm0eFRPgGxQV8+PVCCCAAAIIIIAAAggggAACCCAQgQAHKCJAZBMIIIAAAggggAACCCCAAAIIIFAxAQ5QVMyPVyOAAAIIIIAAAggggAACCCCAQAQC3GY0AsQ0bGLOnDnlGkalSu4xrv79+zvbOeWUU5z6nHPOsfWAAQNsWxrLly93al107NhRl6Zfv35O3axZM1svWLDAtmmsW6C82cuWw/IPy15eq/MnexEJf0SVUy7mqJ6fMso0z9Hy5uTPpYceesj+QvhzqWfPnnaZNEo7l2Rd/V764IMPylP20bRpU9uWRlpzKm9GYqJzysVckj7o+ZTWjGSc5c1JZyTbCctJ/00i6+q5JHV5P5t0RrKdtOZU3ozExM8p1+95ac1IrDP1KG/+fvZhc1T6rudpVHNUtqvnKfmLSHwe7r8u49MveoIAAggggAACCCCAAAIIIIAAAnkkwAGKPAqboSKAAAIIIIAAAggggAACCCAQVwFO8YhrMhH3q0GDBqFb/OCDD0KXl7Tw3nvvdRa1adMmtB41apRd7t+Kzi4opjFy5Ejn2WrVqjl1zZo1bc3XtCyFbYTlX97sZeNh+fu/Czp7eW1p88+n7LORk5+LX+ucSpuR5BmWk56fsm6S52hYRjK28s6n++67T15uHzqXww47zD4vDZ2R1OXNKex9VLab1pzKm5GY6Pc8nZEs82udU3kzku2G5ZTkjGRsYfOpvDnpjGQffi661hnJulHllC/veeXNSKzj9p6X9LkkplE/wuan7Ku8+Zdljsp+9DyNao7KdvU8JX8Ric+Db1DEJwt6ggACCCCAAAIIIIAAAggggEDeCnCAIm+jZ+AIIIAAAggggAACCCCAAAIIxEeAAxTxyYKeIIAAAggggAACCCCAAAIIIJC3AlyDIgfRl+X8qWx1b/78+RnZ1euvv56R7fobnTlzpv8UtRLYaKONVGXM7NmzbV2W8+5uuukm+zppnHbaaU59xBFH2Pqtt96y7Yo0li5d6rz8448/duply5Y5dZKLhg0bltj9srxv1K1b19lOly5dbN2tWzfblsYbb7zh1OUt/JzGjBljN3XIIYfYtjQef/xxp05SMWnSJKe7/nuPf/s0Z2Wv2Hbbbe0zZ555pm1Lo3PnzraOKiPZoM7Jn/tNmjSx+5TGrFmznDpJhX6Pq0i/DzroIOflp59+uq11RvJkVDnpjGS7X375pfywj8LCQttOemPLLbeMZAh77bWX3U7Xrl1tWxo33HCDU0eV0+rVq53tVqlSxdYFBQW2nfSGPk/fH0tZxrnHHns4L/ff89q1a2eXR5WRbFDPp99++83uQxr6synJn0vOoCIs6tSpE9nW9N8lRx99tLNd/TeKLHjzzTed5eUtdPayjalTpzqbOuCAA2z97LPP2jaN3AvwDYrcZ0APEEAAAQQQQAABBBBAAAEEEMh7AQ5Q5P2vAAAIIIAAAggggAACCCCAAAII5F6AAxS5z4AeIIAAAggggAACCCCAAAIIIJD3AlyDIu9/BQDIB4GWLVs6w1yxYoVThxUbbrihXXz++efbtjT8c3ujuu6EsxOv+Oabb7xn0lPutttuJQ6mLNegOO6445zt1KpVy9bff/+9bWeysd1229nN63Oz7ZMJbfjXbfj555+dkSxZssSpw4oddtjBLvav9/Dyyy/bZVE21ltvPbu5rbfe2ralMWPGDKdOcuHnose27777OkMbMWKEU+ti0KBBujR6Hn7xxRfOsqiK1q1bO5uaN2+eU3/33XdOneRi3LhxkXT/oYcestupUaOGbUujb9++Th1VcdZZZzmbGjVqlK39a9PYBQlsvP/++06v9XtVvXr1nGX+9cyqVatml19//fW2LY3XXnvNqbWfs6CCxQknnGC3oD+X5En/mgR2RRprBH7//fdQia222sou9z8b7YI/GyeffLJ9avPNN7dtaYwdO9aps1Xov42ytU/2UzoBvkFROifWQgABBBBAAAEEEEAAAQQQQACBDApwgCKDuGwaAQQQQAABBBBAAAEEEEAAAQRKJ8ApHqVzYi0EEi3wySefOP3v3r27U4cVxx9/vF2sv94sT/br188uy1TD/wqevhWZ7NP/2mim+pHr7Zbldm46M+n3o48+arv/0Ucf2XaUDf/2mosXL7abz9RXd+0Octjwc9G/n88//3ype+bfsnDlypWlfm1ZVuzTp49d/aeffrJtaaTpa+n+qTbLly+3Y/3nP/9p29IYOXKkU1etWtXW66+/vm1L4+GHH7Z1lKebVa9e3W73mmuusW1pXHTRRU6dpsKfP3ps+r3dNzj88MP1qqZx48a2vueee2xbGv7vgrOwDEX79u2dtXv37u3UzZo1c+q0FAsXLnSG8uGHH9r6yCOPtG1p+LdhPuyww+xy30+/V8pKZTn11G60mIZ/W9Qbb7zRrvXSSy/ZtjQ++OADp6ZwBfTtwmXJjz/+6KzQo0cPW5933nm2XVzjvffes09Xruz+87NVq1Z2mTT803+chWUo/P34f0/6pySVYdOsmmEBvkGRYWA2jwACCCCAAAIIIIAAAggggAAC6xbgAMW6jVgDAQQQQAABBBBAAAEEEEAAAQQyLMABigwDs3kEEEAAAQQQQAABBBBAAAEEEFi3gHsS0LrXZw0EEEigwIQJE5xer1q1yqnDCn2+tj6HUF7j3/4ubDtlWbbrrrva1R988EHblsa1117r1L/++qtTJ7kIG4t//Y+wcfrXL8jGebZnn3220yV9+zH/lo/Oigkv/OsXHHPMMXZEZbkGxQ8//GBfJw197mxFzs2uXbu2s91jjz3W1p07d7ZtafjnmjsLE17oWyI/8cQTzmj0rRBlgb4tob42hCwbPHiw/Ij8oW+T6V/b4tNPP418f3HZoL414ezZs51ude3a1dYPPPCAbUvDv/2hvgaOvt6IrKuXSe1f70WeW/vwb1F6+eWXr11kLr74YtuWRs+ePZ06U7eddXYSg+KOO+6wvRgyZIhtS+Oxxx5z6v3339/W/vtYRT6XGjZsaLfbq1cv25aGf60Lvd9zzz3XWVcvcxZQrBFYtGiRI+Ffp0jf0ty/Toz/d4j+e9Gfg/rzztlhBYvzzz/f2ULdunWdOs3Xx3IGmsCCb1AkMDS6jAACCCCAAAIIIIAAAggggEDaBDhAkbZEGQ8CCCCAAAIIIIAAAggggAACCRTgAEUCQ6PLCCCAAAIIIIAAAggggAACCKRNgGtQpC1RxoNAMQL+vZ71Odf6eg/yUv88Wn3tgxkzZhSz9fI9tdNOO9kXdu/e3balceKJJ9panzMvT+p7sNuVUtIYPny4HYl/rY3TTjvNLpPGPffcY2udkTyZjfM7N910U7t/abRt29apb7/9dlsvXbrUttPW2H333Z0htWnTxtZXXnmlbUtj+vTpTv3GG2/Y2r++S1TnRuscZGc1a9a0+/zyyy9tO+2NF154wQ7xzTfftG1pXHPNNU6t35v8uTV27Fhn3dIW22yzjbOqv8/DDjvMLm/UqJFtp72hz3H3rw+gr+EyZcoUh0JfB0EWzJkzxy7X1xCRJz/77DO7TBr62gf6HHpZdsEFF8gP+9Cfnf5n0WuvvWbXy6eGngP6PUwMBg0a5FBsvvnmth42bJhtS8O/NlGVKlXs8vr169u2NLp16+bU+r31+++/d5ZdccUVTj106FBb6zztkzRKLXDnnXc66z755JO27t27t21L47zzznPqSZMm2frhhx+2bWn079/fqQcMGODUYX9DjBkzxllX/+7ceuutzrIjjjjCqcOu++WsSJF1Ab5BkXVydogAAggggAACCCCAAAIIIIAAAr4AByh8EWoEEEAAAQQQQAABBBBAAAEEEMi6QEHR1xeDrO+VHSKQxwIFBQU5H/0zzzxj+9CsWTPblka7du2cukOHDrY+4IADbFsaHTt2dGo9Nv8UgNNPP91ZV7+2ZcuWzjL9NVt9KoOzUsSF/1aoxxLxrkq1uf/+97/OehdeeKFT69tj6a/cykqtWrVy1n3ppZds3adPH9teV2O99dZzVmnevLmt/f75t270bwtoX1jBhs4p1xnJUA499FBnRK+++qqt3377bduWhp5LUi9evFh+lPnh3zZRn1bi31Zt/fXXd7Z/6qmn2vrbb7+17SgbOiPZbhxy0uPz3/P0V/5lPX27S327XFk2depU+bHm8eOPP65trvnpz0N9i9IuXbo46z799NNOfdttt9l61qxZtp3Jhs4pDhn5txp85JFH7PBPPvlk2y5rwx+bPgVu8uTJzub80wP018dzcXqAzkg66o/F6XwOig022MDZq3+bUf05P3fuXGdd/3a6G220kV3eoEED25aGf4qPvv25fxveJUuWOK/NRuHnlIl9xi17GeOzzz5rh6qzlifvvvtuu0wa+m8GfXthWeafIur//ajHXlhYKC+xjx133NG2pdG0aVNbX3LJJbYtjY8++sipoyqykX9UfU3KdvgGRVKSop8IIIAAAggggAACCCCAAAIIpFiAAxQpDpehIYAAAggggAACCCCAAAIIIJAUAQ5QJCUp+okAAggggAACCCCAAAIIIIBAigW4BkWKw2Vo8RTQ59Llqoe1atWyu37nnXdsWxpNmjRx6q+//trWH3/8sW1Lw79N2J577mmX67Y86d8K7N5777Xr+rcq+/zzz+2ybDX8cwhznZO+FawY+LdZO+ussyyNn5l/Lre+Paxv26NHD7sdafz++++27tmzp21L44YbbrD1//73P9uWhn/tA2dhhIXOKdcZFTesyy67zD6tveRJf77o86j987H1HPWvc6GvIyHb3X777eXHmsfgwYPXNtf89PPNxnn0OiPpRBxz0kj+bY719SDq1KmjVw1t62v7yIr69pb+NSd++uknZ1vLli1z6mwUOqc4ZqSveeTfotK/toq+LeFTTz3l8PnXEdHXLJgwYYKzbtwKnZH0LVs56duP+7ceDzPyr1t0yimn2NX9z7Btt93WLpOGvv2vf60kPZdkXd9FnsvlIxv9yVb2ZXHUt4b1b+npXzdr5syZdtP6uljypP/3oV3xz4a+vsV+++3nLNbX45IFvXr1ssuzNb+zkb8dVJ40+AZFngTNMBFAAAEEEEAAAQQQQAABBBCIswAHKOKcDn1DAAEEEEAAAQQQQAABBBBAIE8EOECRJ0EzTAQQQAABBBBAAAEEEEAAAQTiLMA1KOKcDn1LpUAczyPU0G3atNGlOe2002x9xBFH2LY09HnyUj/55JPyY81j9OjRa5trfupzhOWJlStXOstzXfjnEMY9J+21zTbb6NI0atTIqY899lhbH3/88bYtDT9DfQ2KyZMnO+vq60yMGzfOWZatPHVOcc+ocePGjpG+D7wsaN26tV3u39vdLihq+NcrGDhwoF5sXn31VVvr87jtk1lu6Ixk13HPyedp0aKFfcq/hsfSpUvtsr59+9q2NCZNmuTUcS90TnHPaN9993U4X3jhBafW193R45KV/Pmiz4XX1+eRdZ977jn5EZuHP5Zs5dSyZUtrMH78eNumUbyAn1Pxa1Xs2WxlX7Fe/vVq/Tskz+q/PQ488MC/Vixq7bzzzk799ttvO/VHH31ka/9vy7feessuk8bq1audOhtFNvLPxjjitA++QRGnNOgLAggggAACCCCAAAIIIIAAAnkqwAGKPA2eYSOAAAIIIIAAAggggAACCCAQJwFO8YhTGvQlLwSS9jW9vAilaJD+V/TIKZ7J65zIKP4ZSQ/JKf45kVH8M2IuxTMj6ZX+XMpUL5mjmZKt+HazkX/Fe5msLfANimTlRW8RQAABBBBAAAEEEEAAAQQQSKUAByhSGSuDQgABBBBAAAEEEEAAAQQQQCBZAhygSFZe9BYBBBBAAAEEEEAAAQQQQACBVApwgCKVsTIoBBBAAAEEEEAAAQQQQAABBJIlwAGKZOVFbxFAAAEEEEAAAQQQQAABBBBIpQAHKFIZK4NCAAEEEEAAAQQQQAABBBBAIFkCHKBIVl70FgEEEEAAAQQQQAABBBBAAIFUCnCAIpWxMigEEEAAAQQQQAABBBBAAAEEkiXAAYpk5UVvEUAAAQQQQAABBBBAAAEEEEilAAcoUhkrg0IAAQQQQAABBBBAAAEEEEAgWQIcoEhWXvQWAQQQQAABBBBAAAEEEEAAgVQKcIAilbEyKAQQQAABBBBAAAEEEEAAAQSSJcABimTlRW8RQAABBBBAAAEEEEAAAQQQSKUAByhSGSuDQgABBBBAAAEEEEAAAQQQQCBZAhygSFZe9BYBBBBAAAEEEEAAAQQQQACBVApwgCKVsTIoBBBAAAEEEEAAAQQQQAABBJIlwAGKZOVFbxFAAAEEEEAAAQQQQAABBBBIpQAHKFIZK4NCAAEEEEAAAQQQQAABBBBAIFkCHKBIVl70FgEEEEAAAQQQQAABBBBAAIFUCnCAIpWxMigEEEAAAQQQQAABBBBAAAEEkiXAAYpk5UVvEUAAAQQQQAABBBBAAAEEEEilQEFQ9EjlyBgUAggggAACCCCAAAIIIIAAAggkRoBvUCQmKjqKAAIIIIAAAggggAACCCCAQHoFOECR3mwZGQIIIIAAAggggAACCCCAAAKJEeAARWKioqMIIIAAAggggAACCCCAAAIIpFegcnqHFt+RFRQUxLdzed6zbFyShfzj+UvmZ09O8c+JjOKfkfSQnOKfExnFPyPmUjwzkl75fz9koqfM0UyoRrPNbOQfTU+TsxW+QZGcrOgpAggggAACCCCAAAIIIIAAAqkV4ABFaqNlYAgggAACCCCAAAIIIIAAAggkR4ADFMnJip4igAACCCCAAAIIIIAAAgggkFoBDlCkNloGhgACCCCAAAIIIIAAAggggEByBDhAkZys6CkCCCCAAAIIIIAAAggggAACqRXgAEVqo2VgCCCAAAIIIIAAAggggAACCCRHgAMUycmKniKAAAIIIIAAAggggAACCCCQWgEOUKQ2WgaGAAIIIIAAAggggAACCCCAQHIEOECRnKzoKQIIIIAAAggggAACCCCAAAKpFeAARWqjZWAIIIAAAggggAACCCCAAAIIJEegcnK6Sk8zKXDppZfazVevXt22pbHbbrs5dadOnZxaF3379tWlGTdunFM//vjjTk2RewGdvfQmLP+w7OW1On+yF5HoHmE5MUejc67olnROYXNJ9hM2n5hLFU2i5NfrjGStsJxKm5Fsh/c8UYjuoXMKy0j2WN6c+JukYnnpjGRLYTmFZSSv5T1PFJL10PmHZS+jCstfZy/r8l4qCvn94BsU+Z0/o0cAAQQQQAABBBBAAAEEEEAgFgIcoIhFDHQCAQQQQAABBBBAAAEEEEAAgfwWKAiKHvlNkP3RFxQUZH+n3h6fffZZ55mwr145K5axmDp1qvOKQw891NYzZsyw7bg0sjEd4pZ/LrKXvOOWv599rnNijhb/rqBzynVG0sNs5BT2Pip9YC6JQvhD55SL97y4ZSRa+TiXZNx6Pum/SWRZ3HLSGUn/4vael4u5lIScpI9RP+KWvYwvF/nHbY6Kgz9P5TkeFRPgGxQV8+PVCCCAAAIIIIAAAggggAACCCAQgQAHKCJAZBMIIIAAAggggAACCCCAAAIIIFAxAQ5QVMyPVyOAAAIIIIAAAggggAACCCCAQAQC3GY0AsQkbEKffyv9Lct5Y1OmTHGGOHLkSFs3bNjQtqXRvn17p95uu+2c+uSTT7b1rbfeats0MisQVf46e+lxWP5h2ctryV8U3IfOKao5KnvQOTFHXfOyVjojeW1UOemMZLs6J+aSiJTtEVVOYe95OiPpXVhOvN8Vn5/OKRtzyc9J/00iy8jp7znpjGRpeXMKm0uyXT2fwuaSrEtOopD5R1TZS091/mGfd7JuWP5kL0Lpf/ANivRnzAgRQAABBBBAAAEEEEAAAQQQiL0AByhiHxEdRAABBBBAAAEEEEAAAQQQQCD9AhygSH/GjBABBBBAAAEEEEAAAQQQQACB2AtwDYrYR1T+DrZo0cK++B//+IdtF9eYOHGiffroo4+2bWnMnTvXqX/77TdbFxYW2rY03nvvPadu2rSpU2+yySZOTZEZAZ297CEsf529rBuWv85e1g3Ln+xFKPwRVU5hc1R6oHNijoZnUtxSnVPYXJLX6vkUNpdkXT2fdEayTOfEXBKR8IfOSNYMy0lnJOuG5aQzknV1TjojWUZOohD+KG9OYRnJHnVOOiNZFpYTf5OI0N8fOqdszCXpgc6JufT3TLL1TGmzl/7o99JMzVHZD/NUFPLrwTco8itvRosAAggggAACCCCAAAIIIIBALAU4QBHLWOgUAggggAACCCCAAAIIIIAAAvklwCkeKc57iy22sKMrKCiwbWnor2VJffjhh8uPNY/Zs2evba7z56WXXuqs07hxY6f2i2HDhvlPUWdAQGcvmw/LX2cv62Yqf7IXXfcRllPYHJWtlDcn5qibQWkqnVPYXJJt6flU3oxkO2E5MZdEyH3ojGRJWE46I1m3vDmFZSTbJSdRcB9hOYW955U3I9l7WE5k5OazttI5ZWMukdNa+dz/LG320lP9XpqpOSr7YZ6KQn49+AZFfuXNaBFAAAEEEEAAAQQQQAABBBCIpQAHKGIZC51CAAEEEEAAAQQQQAABBBBAIL8EOECRX3kzWgQQQAABBBBAAAEEEEAAAQRiKcA1KGIZSzSdeuWVV+yGtt9+e9uWxqJFi5x63rx5Tl3aonPnzs6qVapUcWqK3Ajo7KUHYfmXN3vZLvmLQvkfYTlFNUeldzon5mjZ89I5hc0l2XJ555POSLZDTqJQ+ofOSF4VllN5M5Lt6pzISETK9gjLKar3PJ2R9I6cypaRrK1zysZckn2Skyjk/lHa7KWn5X0vZY7mPue494BvUMQ9IfqHAAIIIIAAAggggAACCCCAQB4IcIAiD0JmiAgggAACCCCAAAIIIIAAAgjEXYADFHFPiP4hgAACCCCAAAIIIIAAAgggkAcCXIMiD0KWIU6fPj2ykfbq1ctua8cdd7Tt4hrjx493nvZrZyFFxgSiyl9nL50Ny9/P2q8zNtgEb5ic4h9eVBnJSPV8Yi5Fm31UOemMpIfkFP+cwjKS3uvPIt2OdmTp2RpzKT1ZlnUkUWUv+9XvpWWZo/Ja5qko5NeDb1DkV96MFgEEEEAAAQQQQAABBBBAAIFYCnCAIpax0CkEEEAAAQQQQAABBBBAAAEE8kugICh65NeQcz/agoKC3HeiDD1o166ds/bgwYNtXVhYaNvS+Pnnn536hBNOcOr/+7//c+q4FdmYDknOX2cv2YXln/Tsk5RT2Bz1c0rTHE1SRpJDWE7MJRGKx0PnFPaex1zKXV46I+mFzilsLsm6+rMpaX+TJPk9T2ckOYTlpDOSdZOWk/Q56keSsxcLnX9Y9rIu+YtCfj/4BkV+58/oEUAAAQQQQAABBBBAAAEEEIiFAAcoYhEDnUAAAQQQQAABBBBAAAEEEEAgvwU4QJHf+TN6BBBAAAEEEEAAAQQQQAABBGIhwG1GYxFDvDvRokULp4P+uWN64bPPPqvL2J836HSWolgBnX9Y9vJinX/czxktdrAJfVJnJEMIy0lnJOuSkyhk51HenMgoO/ms3YvOibm0ViVeP3VG0jNyilc+a3ujcwrLSNbXn028560VTO5Pnb2MIix/nb2sS/6ikN8PvkGR3/kzegQQQAABBBBAAAEEEEAAAQRiIcABiljEQCcQQAABBBBAAAEEEEAAAQQQyG8BDlDkd/6MHgEEEEAAAQQQQAABBBBAAIFYCHANiljEEK9OvPTSS06H2rRp49S6GDhwoC7N1Vdf7dQUyRMg/2RkpnMKm6MyGj1PmaPZy1dnJHsNy0lnJOuSkyhk51HenMgoO/nIXsqbkbyWnEQhOw9yyo5zHPdC9nFMJbl94hsUyc2OniOAAAIIIIAAAggggAACCCCQGgEOUKQmSgaCAAIIIIAAAggggAACCCCAQHIFCoKiR3K7n8yeFxQUxK7jW2yxhe3Tp59+atvSqF27tlPPnTvX1vvuu69tS2Pq1KlOnbQiG9Mhbvnr7CWvsPx19rJumvL3s09STmFz1M8pTXM0bhmJtZ5PYXNJ1tXzibkkItl56Ixkj2E56YxkXZ0Tc0lEMvfQOYVlJD3QOemMZFmSc0ry55LY688mnZEsS3NOMr6oH3zeRS0a3fb8eRrdlvN3S3yDIn+zZ+QIIIAAAggggAACCCCAAAIIxEaAAxSxiYKOIIAAAggggAACCCCAAAIIIJC/AhygyN/sGTkCCCCAAAIIIIAAAggggAACsRHgNqM5iCLp5yrVqVPHqn3zzTe2TSM5AptvvrntrH9rKH3OqKz0f//3f3bdiy++2LalkeRze52BxLDo2LGj06vrrrvOqXVOv/zyi7OsS5cuTk1ODkdGi2eeecZuX2dkn1SN119/3VZkZCky0jjyyCPtdm+++Wbbloaf07x58+zyU045xbalQU4OR0aLHj162O37GdkFfzaefvpp+xQZWYqMN84++2xnH2E56fc7eRE5OXSJLJ5//nnb77DsZaUnnnjCrkv2loJGCQJ8g6IEGJ5GAAEEEEAAAQQQQAABBBBAAIHsCXCAInvW7AkBBBBAAAEEEEAAAQQQQAABBEoQ4ABFCTA8jQACCCCAAAIIIIAAAggggAAC2RMoKLoeQpC93bEnBBCIw72s9TnY//rXv0JDOeaYY+zyIUOG2Ha2GltuuaWzq5kzZzp1VIX/VpiLnPS1QYYOHeoMbY899nBqXfzvf//TpbnwwgudOk2FzikXGfmW/nm3n3/+uV1F5ylPzp8/3y6Txl577WXrNJ2TqzOSAeYip0033dTaSmP48OG2bt68uW1L49dff3XqE0880db+efN2QQoaOqdcZOQT+pl98cUXdpXNNtvMtqWhr40kdYcOHeTHmseiRYvWNjP6s0GDBs72df8/+ugjZ1l5C52RbCMOOen3vMmTJztD08tkgf4c86/nsnDhQue1SS78nDIxljhkf/TRRztDGzRokK2rVKli29J4++23nVrP0d9++81ZlvQiG/kn3ais/ecbFGUVY30EEEAAAQQQQAABBBBAAAEEEIhcgAMUkZOyQQQQQAABBBBAAAEEEEAAAQQQKKsAtxktqxjrI5ACAf/WYHpIb775pi6NXzsLy1AcfPDBztpnnnmmrf2vLuq6SZMmdj1pTJw40alHjRpl6wceeMC2k9Dwv7b8yiuv2G6HndIhK+lb8OlbW9oN0MiKgH/ak39ah+5E9+7ddclt9hyNihX+V8v1XJIt+6d16L1169ZNlyYbp3VsscUWzj5r1apla/3+J08edthhdpk0DjzwQFv769oFfzaOO+44/6lY1To3/5bX+v3RPx3gP//5jzOObJzWUbmy+yfzrbfe6vThH//4h607depk29LQpxg5CxJY6M8enV9xQ7nyyivt036GdkFMGj179nR6ctBBBzm1zvCxxx5zlqW18PPVecqY/dM6tMOECRN0adJ2WoczOIrIBfgGReSkbBABBBBAAAEEEEAAAQQQQAABBMoqwAGKsoqxPgIIIIAAAggggAACCCCAAAIIRC7AAYrISdkgAggggAACCCCAAAIIIIAAAgiUVcA9oa6sr2Z9BBBIhMCRRx7p9LNmzZq29m+PdOedd9pl0ijLub377beffa1/nYvWrVvbZdKoV6+eU5e22GmnnZxVjzrqKFv/8ssvti2NwYMHO3XcCv+aBGHnyY8ZM8bpvr7uRFkycjaSpWK99dZz9rTVVls59YwZM2zt/z7aBTFp+HMpLLN33nnH6bV/a0RnYQwKfZtE6Y4+z3/16tVODy+++GKnXrBggVNno9hkk03sboYNG2bb0thzzz2dWhf6XHJ5Pqpc/N9rfX627qvs039v8m9ZKeuU9NBZ+NfdGT9+fEkvi+Xz5513nu3XPvvsY9t+w3+vHDFihL9KxmvdV9nZCSec4OxTz4Fp06Y5y5JcbLjhhk73r7jiCqfWhX+diUxdd6Bq1ap2t/7cqVGjhl0mjUsuucTWYddsadGihV1PGg0bNnRqfZ2YfLkGhbYTjLD3Vf8aMtddd53jR4FAWQT4BkVZtFgXAQQQQAABBBBAAAEEEEAAAQQyIsABioywslEEEEAAAQQQQAABBBBAAAEEECiLAAcoyqLFuggggAACCCCAAAIIIIAAAgggkBEBrkGREVY2ikC8BK655hqnQ/r8zYEDBzrLRo4c6dS68M+jvuCCC/Ric+aZZ9p68803t+0oG/r8a9nugAED7Ob987rtgpg0OnTo4PTkuOOOc+qw4ssvv3QW6/OCf//9d2fZ8uXLnVoXOnt5frPNNtOLnbZ/nZCzzjrLLp81a5ZtS6N+/fpOvWLFClv716Do1q2bXSaN22+/3dZXXXWVbcexseuuuzrdKiwsdGpd+JlVqhTNfxPw52H16tX1bp22Pm9aFlx66aXOcl3svffeujQ777yzrXWe8uQ999xjl0nj008/depsFP/85z/tbsLOjbYr/dm44YYbnKfCzpPfeOONnXV//fVXW++xxx62LY0hQ4Y4tT9/nIVlKFauXOms/cgjj9javy6CXZCQxkUXXVSqnk6YMKFU65V1pdq1azsv8d/H9O/YgQce6Ky7atUqp3744YdtPXnyZNtOesO/npR/jQc9Pv8zePr06Xpxqdv+55Q/1y677DK7raOPPtq2K9Lwr380depUZ3Nh195wVkxR4V9rKGxo5557rrM47H3VWZECgWIEovlrqZgN8xQCCCCAAAIIIIAAAggggAACCCBQWgEOUJRWivUQQAABBBBAAAEEEEAAAQQQQCBjApzikTFaNoxAfAQaN25cYmdeffVVZ5m+NZ4s0F9r9L9O7H891tnQOgr9tWV9ezZ5mb4VmP5KtSzTtz6Uun///vIjEY/ddtvN6af/tdXRo0fb5c2aNbNtaZx++ukl1i+++KKzbM6cOU6tC//UG/+0E71uttr6VmZxP8WjLCZnnHGGs/pBBx3k1PqWvhMnTnSW3XrrrbaeNGmSbUtD31pXav/2lvJceR7+V5z1aTz+LeRycUqHP6Z27dr5T5VYjxs3zi7zT9vwb9WpHTp27GhfJw091/yvlm+xxRbOumGFfxvKQYMG2dW/+eYb25bGsmXLnPqpp55y6iQX+nS09ddfv8Sh3Hjjjc6yxYsXO7UuPvjgA13+7TS2bbbZxi5v06aNbUtDL3MWFBX+KVv+rU+ffPJJ/yV5V1eu7P6zQp8OsmTJEsdDn6YoC5o0aWKX+6eitW/f3i7zG/pvCVnm/z2h/4YYOnSo8/IpU6bY2j99VJ+yY1eiUaKAf+qhf1pgiS8sZoGfod6W/zeq/3ukN+e/15f2lDLZhn8K1+WXX2437f8u2wU0IhPgGxSRUbIhBBBAAAEEEEAAAQQQQAABBBAorwAHKMorx+sQQAABBBBAAAEEEEAAAQQQQCAyAQ5QREbJhhBAAAEEEEAAAQQQQAABBBBAoLwCBUXnWgblfTGvQwCBsgvo6yuU/dXle4V/Pp8+1/eLL75wNvrDDz84ddu2bZ26vMXSpUudl+rbFF555ZXOspo1a9o67Fxju1IEDf+tMBM5+bdx1Nf3kCHoc+ozsf8ImOwmfK+wW4r52d9xxx12O9LQt0m97777nGV+ofebC6OWLVs6XRo1apRTh93y01kxS4X2kl3qnPz3hZtuusnp1UMPPeTUpS38fWYqJ33OuL/P0va1rOvp8939cfnnJT/++ON28/51JYYNG2aXScNf7izMUKHN/LFkaJd/26y+ZWrXrl2d5dnok//eNHfuXKcP//vf/2x911132Xa2Gjoj2Wc2TPyx+ddiOPXUU/1VSqz1tXX898oTTzzReV3YLa+dFYsK/XszduxYZ/Gjjz7q1Nko/Jwysc9cZO9f/8a//kMmxinb9G9XO3v2bLsr/zpanTt3tssy2bj22mvt5m+55RbblkY28nd2mAcF36DIg5AZIgIIIIAAAggggAACCCCAAAJxF+AARdwTon8IIIAAAggggAACCCCAAAII5IEAByjyIGSGiAACCCCAAAIIIIAAAggggEDcBbgGRdwTon+pE8jFeYT+ueb6GhQVAfbvE/3111/bzT322GO2LQ3/nMJp06Y5y3Nd+OcQ5iKnCy64wDIUFhbatjT8e32fddZZdrmfZ6VK7rFnf2z2hUWNb7/9VpemtOfv+r9TDz74oLOdTBV6LLnIyB9X8+bNnaf0dUX0NUVkJf/83fL2X1+zw9l5UfHMM884T7377rtO3b9/f6fORKEzku2Xd5zr6tvw4cPtKoceeqhtS2O99dZz6rIU+vz2r776ynnp9OnTbe2P03+PsyvGtKH7n6mMyjJ0/3eze/fu9uXr6p8ey4oVK+zrimvo6ywdccQRziq5uBaI0wGv0OOSRety8F6ekfL555+32+3YsaNtV7Shr++iry8j2x0wYICz+f/85z+2jsPfEn5OtnMRNnKR/QsvvOCMoEOHDk4dxyLs98jv78svv2yf+vDDD227uMaYMWPs0+PGjbNtaWQjf2eHeVC4f8XmwYAZIgIIIIAAAggggAACCCCAAAIIxE+AAxTxy4QeIYAAAggggAACCCCAAAIIIJB3ApzikXeRM+BcC+Tia3oXXnihM+yDDjrI1u3bt7dtaXz66adOrb/O6SwoKvyvXc6aNctfJTG1/xW9XOSUGKwcdlTnlLSMzjvvPEdugw02sPUhhxxi29Lwb8mnFz7xxBO6NPq0A2dBjgqdkXQhGznpU2tkn1dffbX8sA99+1f/dpHz58+360mjX79+tv7ll19sO20NnVM2Miqr3/nnn29fUqtWLdsurqG/5v/UU08Vt0oin9MZyQDikJO+Xfbrr7/uuNaoUcOphwwZYmv/9IDevXvbZdJ4//33bT1o0CDbTkLDzykTfY5D9pdddpkzNP+0RWehV+yyyy72mbLeGlSfdvfdd9/Z7RTX0KelTJ48ubhVIn8uG/lH3umYb5BvUMQ8ILqHAAIIIIAAAggggAACCCCAQD4IcIAiH1JmjAgggAACCCCAAAIIIIAAAgjEXIADFDEPiO4hgAACCCCAAAIIIIAAAgggkA8CXIMiH1JmjLESiMN5hLECiUln/HMIySkmwXjd0DmRkYcTk1JnJF0ip5gE43VD50RGHk5MSp2RdImcYhKM1w0/J29xJCXZR8KYkY1kI/+MdDzGG+UbFDEOh64hgAACCCCAAAIIIIAAAgggkC8CHKDIl6QZJwIIIIAAAggggAACCCCAAAIxFuAARYzDoWsIIIAAAggggAACCCCAAAII5IsAByjyJWnGiQACCCCAAAIIIIAAAggggECMBThAEeNw6BoCCCCAAAIIIIAAAggggAAC+SLAAYp8SZpxIoAAAggggAACCCCAAAIIIBBjAQ5QxDgcuoYAAggggAACCCCAAAIIIIBAvghwgCJfkmacCCCAAAIIIIAAAggggAACCMRYgAMUMQ6HriGAAAIIIIAAAggggAACCCCQLwIcoMiXpBknAggggAACCCCAAAIIIIAAAjEW4ABFjMOhawgggAACCCCAAAIIIIAAAgjkiwAHKPIlacaJAAIIIIAAAggggAACCCCAQIwFOEAR43DoGgIIIIAAAggggAACCCCAAAL5IsABinxJmnEigAACCCCAAAIIIIAAAgggEGMBDlDEOBy6hgACCCCAAAIIIIAAAggggEC+CHCAIl+SZpwIIIAAAggggAACCCCAAAIIxFiAAxQxDoeuIYAAAggggAACCCCAAAIIIJAvAgVB0SNfRPFmxgAAN75JREFUBss4EUAAAQQQQAABBBBAAAEEEEAgngJ8gyKeudArBBBAAAEEEEAAAQQQQAABBPJKgAMUeRU3g0UAAQQQQAABBBBAAAEEEEAgngIcoIhnLvQKAQQQQAABBBBAAAEEEEAAgbwSqJxXo43JYAsKCmLSE7rhC2Tjkizk76vHo/azJ6d45OL3QudERr5OPGqdkfSInOKRi98LnRMZ+TrxqHVG0iNyikcufi/8nPzlUdRkH4ViZraRjfwz0/P4bpVvUMQ3G3qGAAIIIIAAAggggAACCCCAQN4IcIAib6JmoAgggAACCCCAAAIIIIAAAgjEV4ADFPHNhp4hgAACCCCAAAIIIIAAAgggkDcCHKDIm6gZKAIIIIAAAggggAACCCCAAALxFeAARXyzoWcIIIAAAggggAACCCCAAAII5I0AByjyJmoGigACCCCAAAIIIIAAAggggEB8BThAEd9s6BkCCCCAAAIIIIAAAggggAACeSPAAYq8iZqBIoAAAggggAACCCCAAAIIIBBfAQ5QxDcbeoYAAggggAACCCCAAAIIIIBA3ghwgCJvomagCCCAAAIIIIAAAggggAACCMRXgAMU8c2GniGAAAIIIIAAAggggAACCCCQNwIcoMibqBkoAggggAACCCCAAAIIIIAAAvEV4ABFfLOhZwgggAACCCCAAAIIIIAAAgjkjQAHKPImagaKAAIIIIAAAggggAACCCCAQHwFOEAR32zoGQIIIIAAAggggAACCCCAAAJ5I8ABiryJmoEigAACCCCAAAIIIIAAAgggEF8BDlDENxt6hgACCCCAAAIIIIAAAggggEDeCHCAIm+iZqAIIIAAAggggAACCCCAAAIIxFeAAxTxzYaeIYAAAggggAACCCCAAAIIIJA3AhygyJuoGSgCCCCAAAIIIIAAAggggAAC8RXgAEV8s6FnCCCAAAIIIIAAAggggAACCOSNQOW8GSkDdQQqVXKPTW2//fZ2eadOnWxbGldffbVTV69e3al1sWTJEl2am2++2al79+5t62XLltk2jewK6Px19tKLsPzDspfX6vzDspd1yV8USn7ojGStsJyYoyU7ZnpJWE5hc0n6FTafmEvRJqdzCptLslc9n0qbkbwu7D2P9zsRCn/ojGRNnVNUc0m2q3PSf5PIMnIShfCHzklnJK8KyylsLslrec8ThXg/dPbSU51/WPayblj+OntZV89RqfU8ZY6KSPof7r9S0z9eRogAAggggAACCCCAAAIIIIAAAjEU4ABFDEOhSwgggAACCCCAAAIIIIAAAgjkm0BBUPTIt0HnerwFBQVZ78I+++zj7PPyyy936vbt2zt1popHHnnEbrpHjx62LY1Vq1Y5dS6KbEyHuOWfi+wlW51/HLPPdU7M0eLfAfQczXVG0sNc5KTfR6UPzCVRcB9hn3m5eM/TGUlP4/ael4u5JA46p7jNpTjkpN/vpD+5yElnJH3QOeViLkkf9HyK21yS/mXiEbfsZYy5yF9nL33Il/xlrPn04BsU+ZQ2Y0UAAQQQQAABBBBAAAEEEEAgpgIcoIhpMHQLAQQQQAABBBBAAAEEEEAAgXwS4ABFPqXNWBFAAAEEEEAAAQQQQAABBBCIqQDXoMhBMNk6j0zv580333RGeuCBBzp1WQp9vtfq1audl1apUsWpw4pzzz3XWdy3b1+nzkXhn++ZiT7oXDKxfdmmv4+o8tfZy36iyj+O2fuGMt6oH/4+dE5RzVHps84pTXPU94s6n7Xb0/vRGcnyqHLSGcl2y5sTc0n0jIkqp7D3vPJmJP2LW076d1z6l6mHvx+dU9zmkhjkOif/bxLfLxs56Yxkf+XNKWwuyXbLO59ynZH03c9Jnov6keTsxULnH9XnnWw3X/KXsebTg29Q5FPajBUBBBBAAAEEEEAAAQQQQACBmApwgCKmwdAtBBBAAAEEEEAAAQQQQAABBPJJgAMU+ZQ2Y0UAAQQQQAABBBBAAAEEEEAgpgKVY9ovulUOAf/8tGuuucZuZV3nDC5btsyuO3XqVNuWxsMPP+zUw4cPt/XXX39t29Lo37+/U5922mlOrYtjjjlGl+bJJ5906oULFzo1RbiAzl9nL68Ky19nL+uG5a+zl3XD8g/LXl6r88+X7HVGYhBVTmFzVPajc4pqjqZ5foblFDaXxFrPp7C5JOvq+aQzkmU6J+aSiPz9oXOKai7JXvR80hnJMp2TzkiWheWk3+9kXd7zRKH0n01RzSXZZ3lz4j1P9NyHfr+TJWE5hc0lea2eT2EZybp6PuXLXJJxZ+Kh30dl+/q9NBefd9KHsPx19rIu+YtC+h58gyJ9mTIiBBBAAAEEEEAAAQQQQAABBBInwAGKxEVGhxFAAAEEEEAAAQQQQAABBBBInwC3Gc1Bpv7XqaLqQmFhobOppUuXOrUu9O1+5Pk+ffrYxb169bLtsjY23HBD5yWff/65U2+55ZZOrYvLL79cl+bOO+906mwUSb5VlM4/LHtx1Pnr7GVZVPknPftMzFOdkViH5aQzknWjyimqOZqL+SkOeo5mIiPZR1Q5MZdE8++3Pf7j2Yr/v84pbC7JnvR8ittckv7lYj7l41wSa/3ZFPY3iayr/y7JdUbSn7i950U1l2Rs+rNJZyTLwnLSGcm6cchJ+hH1I27Zy/h0/lF93sl2yV8U8vvBNyjyO39GjwACCCCAAAIIIIAAAggggEAsBDhAEYsY6AQCCCCAAAIIIIAAAggggAAC+S3AAYr8zp/RI4AAAggggAACCCCAAAIIIBALAa5BkYMY4nAe2d133+2M/JJLLnHqqIp27do5mxoyZIhT6+Lbb7/VpXNrzNmzZzvLMlXoc3IztY9s5L+u87F1/mT/R9J+9pnISZ8zL3sNy0lnJOvGLSf/9mO5mKOZyEis45ZTVO+jMrZs5JSNueTnFDaXZF09n+I2l6R/ej5lIyPZp84pX+aSjFvPp7C/SWRd/XeJzkiWZSMnnZHsM245xX0u5Son2W/Uj7hlL+OLe/7ZmKPi4M9TeY5HxQT4BkXF/Hg1AggggAACCCCAAAIIIIAAAghEIMABiggQ2QQCCCCAAAIIIIAAAggggAACCFRMgAMUFfPj1QgggAACCCCAAAIIIIAAAgggEIEA16CIALGsm8jUeWRHHHGE05WhQ4faesGCBbYtjUaNGjn1zz//7NTlLTbYYAPnpZ988olTb7PNNk4dVvTr188uPuecc2w7k41snEeWjfx19uIVln9U2ct+dP5Jzz4TOYXNUT+nuM9RPT+l77mYo5nISMYSllPYXJLXRjWfMjGXpH/ZyMl/H81GTrl4z9MZiW2S3/OykZEYheWUi/e88v5NImNJ61zycwp7z4vq/U72qedTVHNJtpuLnGS/UT9yMUfDspfxRZW/zl62G1X+2che+ut/5slzPComwDcoKubHqxFAAAEEEEAAAQQQQAABBBBAIAIBDlBEgMgmEEAAAQQQQAABBBBAAAEEEECgYgKVK/ZyXh0ngZ133rnE7qxatcpZFtXXkfyvRz722GPOfvzlzsJ1FB07drRrnH/++bYtjZUrVzo1hTFxy5/s//5bGZaRrK3naVRzVLars4hqjur5KftI0xwNy0lnJOOOKiedkWxX5+Qvk+WlfYTllPT30VznpDOSPKLKKV/mkpjp+ZSNuVSRnMLmkmw3yfMp13NJ/PR8imouyXb1fEpyRjKWTDzilr2MMar8dfayXfIXhWQ8+AZFMnKilwgggAACCCCAAAIIIIAAAgikWoADFKmOl8EhgAACCCCAAAIIIIAAAgggkAwBDlAkIyd6iQACCCCAAAIIIIAAAggggECqBbgGRQ7ijeo8y7J0fdNNN3VWj+rWQM5GIy622GILu8UVK1bYNo3iBe655x674Oabb7ZtaWyyySZOPXDgQFsfffTRti0N33r99de3y08//XTblsZNN93k1DVr1nRqXehzjeX5CRMm2MXNmze3bWlsvvnmtt5rr71sWxrvvvuuUyep2GOPPUK7q3Nq1aqVs+4rr7zi1Pp8aP8c0kMOOcRZt0mTJrauVauWbVek8eqrrzov9/N1Fqao0BnJsPz31jlz5pR6tJUr//URfPHFFzuv23///Z26vMXMmTOdl+bi88fpQITF559/XuLW/JwmTpxo150+fbptS2PIkCFOrY3q1avnLDv55JNtrd8b7ZPlbPzwww/lfGW8X9anTx+ng40bN3bq7t2723rSpEm2LQ39HvPll186y/xbLur3tTPPPNNZ17+FobNwHcXq1avtGp06dbJtaeTL+ez+XBo/frx1GDBggG1Lw792QLt27Zzluli4cKEuTcOGDZ26tIX/2eP/TZMvOZXWy1/vgw8+8J+ytZ99z5497TJp3HjjjU6ti0qV3P8GvuOOO9rF/t+OUX3eyQ5Gjhxp9+P/btgFNGIv4P72xL67dBABBBBAAAEEEEAAAQQQQAABBNIowAGKNKbKmBBAAAEEEEAAAQQQQAABBBBImAAHKBIWGN1FAAEEEEAAAQQQQAABBBBAII0Cf50Am8bRMSYE8khAn2ep7ycuBGeddZYj0aZNG1vPmjXLtqUxYsQIp9bn3VatWtVZ5he6D/41E3r37u2s/tVXX9n6xx9/tG2/0bJlS+epJF+DYtiwYc5YTjzxRKfWxVNPPaVL4583X97zdXVGsgM/J93HAw44wOlDt27dbL1s2TLbloY+b99ZkMCiRo0ape61viaBvEifzzt79mxnO82aNXPqDh062Prwww+37Sgbuj+y3TSdk/vmm29aqs8++8y2pbHbbrs5de3atW2t2/Lkuq4NY1+YwcaHH35ot+7PUbsggQ3/901f00GGs2jRIjsq/3z3k046yS7LVUP/XiX5s2ddfv7n8z777GNfcswxx9i2NBo0aGDr66+/3rbL2vCv36OvKbP99ts7m6tevbpT62L06NG6NHouOQsoihXQ1xQpdgX15HHHHacqY2bMmGHryZMn27Y0evTo4dRdu3Z16qgK/R4i2xw0aJDddJr+LrGDypMG36DIk6AZJgIIIIAAAggggAACCCCAAAJxFuAARZzToW8IIIAAAggggAACCCCAAAII5IkAp3jkSdAMM78E+vfv7wxYf5VcFujbePpfq+3SpYvz2rDiu+++cxbfeeedtu7bt69tF9fwb99X3Dppe27w4MHOkDp37uzU7du3t/V6661n29Io7ykd8lp9uz7/tmBhX++8++675eV593jiiSecMeuvpm633XbOsiuuuMKpoyref/99u6nXXnvNtqXhz9Ftt93WLvdPl1rXPLQvTGBDnz6w7777OiPQc0kWXHTRRXa5f+tiu6CYxltvveU8q2/bqvcvK/mnBu299972tVtvvbVtF9fwb5tZ3DppeM4/3VCfgnTeeec5Q9xll12cOhfFuHHjcrHbrO/T/yr8qaeeavswbdo025bGueeea+t1nfZpVyymoT+XZPE555xj1/r3v/9t29LwTy1wFlJUSMA/pez222+32/M/3/zbBD/88MN23Sgb/m2Fd9pppxI375/S45+mXOILWRBrAb5BEet46BwCCCCAAAIIIIAAAggggAAC+SHAAYr8yJlRIoAAAggggAACCCCAAAIIIBBrAQ5QxDoeOocAAggggAACCCCAAAIIIIBAfggUFJ13FuTHUBklAvEQyMW5xjVr1nQGr8/BPuqoo5xlG220kVPrW5LecMMNzrKnn37aqZcsWeLUYcVWW21lF/u30LQLihr+ecn333+/XhxZ238rzEZOVapUcfqvz89u27ats8wvhgwZYp967rnnbLu4xm+//Waf9s83tQv+bAwYMMA+pa+9IE/q1+655552PWno2/E5CyIudE7ZyEi6X79+fTuK4cOH27Y0dt55Z6cuS6E9x44d67z02GOPtbWfg77Wi13pz4bfP//6M/76mah1RrL9bOUUNpbCwkK72L9WhF1QTGPx4sXOsytWrHDqsOLjjz+2i5s2bWrbxTX07ZT9c6qLWz+K53ROccjIv56BvraKvt11cWPX56yPGjXKWcW/Pol+73RWLKbQ+33xxReLWSOzT+mMZE9xyGnDDTe0gy5Lf/x1/dtD6vfDZ555xu5DGmHXoPj111+ddf25pq8b46wYYeHnFOGm7aZ8P7sg4oa+/pX/2eNf20ffHrtatWpOT3yTuXPn2uVTpkyxbWkcf/zxTu1ff+aNN95wluvCvx3xs88+qxdnpe2PNSs7TflO+AZFygNmeAgggAACCCCAAAIIIIAAAggkQYADFElIiT4igAACCCCAAAIIIIAAAgggkHIBTvFIecAML34C2fqaXnlH7t92dN68eeXdVOjrSnuKx6WXXupsp3fv3k4dVeF/RS/uOUU17kaNGjmb0qca+Kf7XHnllXZd/zZwdkGGGzqnXGSkT/eQofpfH9e3yvNvSeqfEjVy5Eir9frrr9u2NPbZZx9bP/XUU7YtDb8Pn3zyiV3eokUL285VQ2ckfchFTrkau95vWU7x2G233exLJ06caNuZbOic0pyRf1vegQMHlsjqny6gc5k1a1aJr8vUAp2R7CPNOWlDfZtTeT7sdpZ+Zs2bN9ebMmGnkDorVqDwc6rApkp8aRyz16cLb7PNNk7f/dPhynKK1GabbeZsS98OvVatWs6y3Xff3al/+OEHp85GkY38szGOOO2Db1DEKQ36ggACCCCAAAIIIIAAAggggECeCnCAIk+DZ9gIIIAAAggggAACCCCAAAIIxEmAAxRxSoO+IIAAAggggAACCCCAAAIIIJCnApXzdNwMGwEEShDI1DUnStgdT2dZwL+V32233eb0QF93Yvbs2c6yBx980KnzsZgxY4YzbL/W59nWqVPHWff77793al306tVLl+aWW26xtb7tm31SNfzb/6pFNLMooK9XILvdYYcdSty7fz2DhQsXlrguCyomoK+ds64t6euGyLp+Tut6PcujEdDXNljXFidMmOCsko1rTjg7zOPi/ffft6PXbftkORuVKrn//VzXS5cudbaai2tOOB2gyIiA+xuQkV2wUQQQQAABBBBAAAEEEEAAAQQQQCBcgAMU4T4sRQABBBBAAAEEEEAAAQQQQACBLAhwgCILyOwCAQQQQAABBBBAAAEEEEAAAQTCBbgGRbgPSxFAIEMCe+65Z6m2rO9/XaoXsNLfBKpXr26fe+WVV2xbGq1bt3ZqXYwYMUKXxr/fvLOQYo3A8uXLrUTYNSdkpcLCQrtu48aNbVsaYdeduPvuu511hw4d6tQU2RHwM+rUqZOz4xo1aji1LjbZZBNdGj1HnQUUZRZo3ry585rtttvOqcOKUaNGhS1mWZYE/OuGtG3b1tlzgwYNbF2vXj3blsZmm23m1HPmzHFqivgL7L777k4nt956a1tfe+21tk0jvQJ8gyK92TIyBBBAAAEEEEAAAQQQQAABBBIjwAGKxERFRxFAAAEEEEAAAQQQQAABBBBIrwCneKQ3W0aGQCQCdevWtdv5/fffbVsaFbkl6XXXXedsSxf61m5R3rpK7yOf2vqr52GndIhJEASW5tFHH7VtGtEL7LHHHnajXbt2te11NR5//HFnFZ2Zs4AiowJNmzZ1tn/VVVc5dVgxbtw4Z/FXX33l1BRlE6hVq5Z9gf/ZUqVKFbtsXQ3/FLh1rc/yzAjMnz/f2bBf61M8dtppJ2dd//bOnOLh8CSiOPXUU0vs52GHHeYs07fkdhZQJFqAb1AkOj46jwACCCCAAAIIIIAAAggggEA6BDhAkY4cGQUCCCCAAAIIIIAAAggggAACiRbgAEWi46PzCCCAAAIIIIAAAggggAACCKRDgGtQpCNHRoFAxgTOPPNMu+02bdrYtjQOOOAApw4rGjVq5Cz2zxvVC//73//acuXKlbZNo3QCnTt3dlZ84IEHnDqs6N27t108duxY26aROwE/h8mTJ+euM+zZCnTs2NG2y9p4+umny/oS1g8R2GWXXezSo446yraLa+hrtvjXq5gyZUpxL+E5BBCIiUCTJk2cnmy77bZOPW3aNKemSKYA36BIZm70GgEEEEAAAQQQQAABBBBAAIFUCXCAIlVxMhgEEEAAAQQQQAABBBBAAAEEkinAAYpk5kavEUAAAQQQQAABBBBAAAEEEEiVANegSFWcDAaB6AWWLFliN7rPPvvYtjSefPJJp/75559trc/zlSdPOOEEu0wahYWFtvbPsR84cKBdRqPsAv452NWqVStxI7NmzXKWPffcc05NkTmB7t27l7jx1atX22W33XabbUtj+fLlTk0Rf4Eff/zR6eSYMWOcmqJiAnvuuWepN/Duu+/adW+55RbbphFfgf79+zudu/fee51aF126dNGlufLKK52aItkCG220kTOAZs2aOTXXoHA4ElvwDYrERkfHEUAAAQQQQAABBBBAAAEEEEiPAAco0pMlI0EAAQQQQAABBBBAAAEEEEAgsQKc4pHY6Og4AtkR0Lf8/O6775yd3nzzzU694447OnVYob+m7n8F85dffgl7KcvWITB8+HBnjZNOOsnWBQUFti2NXr16OfX48eOdmiI6AX1ak2x1hx12KHHjEyZMsMtGjBhh2zSSKXDPPfc4Hf/yyy+dmqJiAnXr1i31BqZPn17qdVkxHgKDBw92OnLXXXfZumrVqrYtDf8W5pUq/fXfYvWpc86LKBBAIFYCf83aWHWLziCAAAIIIIAAAggggAACCCCAQD4JcIAin9JmrAgggAACCCCAAAIIIIAAAgjEVIADFDENhm4hgAACCCCAAAIIIIAAAgggkE8CXIMin9JmrAiUQ0DfLvT55593tjBq1Cinbtmypa3POOMM25aGf17oTTfdZJdzyz1LEUnjmWeecbZzwQUX2HrRokW2LY2hQ4c6NUXmBHr27OlsvFWrVk6tCz0/9PO04yOgrxMivfr666+dzj399NO27tevn23TiF7gxRdftBs97bTTbFsaL7/8slNfcsklTk0Rf4G5c+c6ndS3OPfz9q/t4193ydkQRSwFRo4c6fSrdevWtq5evbptS2Pq1KlOTZEOAb5BkY4cGQUCCCCAAAIIIIAAAggggAACiRbgAEWi46PzCCCAAAIIIIAAAggggAACCKRDgAMU6ciRUSCAAAIIIIAAAggggAACCCCQaIGCovPLg0SPgM4jkDABzoeMZ2D+WyE5xT8nMop/RtJDcop/TmQU/4yYS/HMSHrl//2QiZ4yRzOhGs02s5F/ND1Nzlb4BkVysqKnCCCAAAIIIIAAAggggAACCKRWgAMUqY2WgSGAAAIIIIAAAggggAACCCCQHAEOUCQnK3qKAAIIIIAAAggggAACCCCAQGoFOECR2mgZGAIIIIAAAggggAACCCCAAALJEeAARXKyoqcIIIAAAggggAACCCCAAAIIpFaAAxSpjZaBIYAAAggggAACCCCAAAIIIJAcAW4zmpys6CkCCCCAAAIIIIAAAggggAACqRXgGxSpjZaBIYAAAggggAACCCCAAAIIIJAcAQ5QJCcreooAAggggAACCCCAAAIIIIBAagU4QJHaaBkYAggggAACCCCAAAIIIIAAAskR4ABFcrKipwgggAACCCCAAAIIIIAAAgikVoADFKmNloEhgAACCCCAAAIIIIAAAgggkBwBDlAkJyt6igACCCCAAAIIIIAAAggggEBqBThAkdpoGRgCCCCAAAIIIIAAAggggAACyRHgAEVysqKnCCCAAAIIIIAAAggggAACCKRWgAMUqY2WgSGAAAIIIIAAAggggAACCCCQHAEOUCQnK3qKAAIIIIAAAggggAACCCCAQGoFOECR2mgZGAIIIIAAAggggAACCCCAAALJEeAARXKyoqcIIIAAAggggAACCCCAAAIIpFaAAxSpjZaBIYAAAggggAACCCCAAAIIIJAcAQ5QJCcreooAAggggAACCCCAAAIIIIBAagU4QJHaaBkYAggggAACCCCAAAIIIIAAAskR4ABFcrKipwgggAACCCCAAAIIIIAAAgikVoADFKmNloEhgAACCCCAAAIIIIAAAgggkBwBDlAkJyt6igACCCCAAAIIIIAAAggggEBqBThAkdpoGRgCCCCAAAIIIIAAAggggAACyRHgAEVysqKnCCCAAAIIIIAAAggggAACCKRWgAMUqY2WgSGAAAIIIIAAAggggAACCCCQHAEOUCQnK3qKAAIIIIAAAggggAACCCCAQGoFOECR2mgZGAIIIIAAAggggAACCCCAAALJEeAARXKyoqcIIIAAAggggAACCCCAAAIIpFaAAxSpjZaBIYAAAggggAACCCCAAAIIIJAcAQ5QJCcreooAAggggAACCCCAAAIIIIBAagU4QJHaaBkYAggggAACCCCAAAIIIIAAAskR4ABFcrKipwgggAACCCCAAAIIIIAAAgikVoADFKmNloEhgAACCCCAAAIIIIAAAgggkBwBDlAkJ6us9HTVwvlmUcR7Wjp/vlkS8TbZHAIIIIBA9gRK+mxYMWeKeWvQYDNm1qpyd4bPiHLT8UIEEEAg5wIlfT5UtGN8NlRUMLmv5wBFcrOLuOfLzYxRd5qux1xuXplR/j80/96pX8ybN7Q37S8YaD6e9/elPIMAAgggEGcB/7NhlVk47T3zUr8bzbmd9jeNtt/FHNy9j/m/mSvLOQg+I8oJx8sQQACBHAv4nw9RdofPhig1k7YtDlAkLbFM9Hfpt2b4LSeao6+YaFr/+3ZzUv31ItxLbXPUTf3MGUE/c/wRZ5iHPpwf4bbZFAIIIIBAxgT8z4bNJ5r+p7cyzZu3Msf2uM7c9/xY8+3C1RXcPZ8RFQTk5QgggED2BfzPh0j/7SDD4bMh+6HGZ48coIhPFrnpya/vmT5d2piuL9YzVz/zgDmj+cbR92P9xubE3s+Zvod/a67r0tP0+yTqk0ii7zJbRAABBPJaoLjPhqq7mTMfHmO+nv2NGXrpXqZGVH9B8BmR179qDB4BBBImUNznQyaGwGdDJlQTsc2o/rxIxGDppCew6BPzQM+u5qpJ+5n/PvEf02m7qt4KEZbrbWEOu2aAub/tN+bKk881A774LcKNsykEEEAAgcgE1vXZUHVrc0DrlqZelH9B8BkRWXxsCAEEEMiYwLo+H6LeMZ8NUYsmYntR/nmRiAHTyT8Fln9pHj//ZHPJkOrmtDtuM10aVc88TZUGpsP1d5iz13/RXNLzDvP2L5nfJXtAAAEEECiDQCk/GypVq2aqR/0XBJ8RZQiKVRFAAIEsC5Ty8yHyXvHZEDlp3DcY9Z8XcR8v/VsjsNR88cgV5l9PfGW26HKVueKoeibKq06EIm/c2lx07amm3vt3mQtvGGJ+iPJ6nKE7ZiECCCCAQLhADj8b1naMz4i1EvxEAAEEYiSQ488HPhti9LuQ+a5wgCLzxrHbw9LPHjJX3TzUzK5xoDnrnx1MvawdnfiDYrNDTzVd9ikwn/e71Pzrya/NitgJ0SEEEEAg/wRy/dmwVpzPiLUS/EQAAQTiIRCHzwc+G+Lxu5CNXnCAIhvKcdrHiinm0etuMUNnrTYbtu5kjt0tg9edKGncVZuaziceZjZc+Y155vpbzOBIb2ta0k55HgEEEECgRIE4fDas7RyfEWsl+IkAAgjkXiAunw98NuT+dyFLPaicpf2wm5gIzBvVz9w//CezutImpvVRR5htyvTtid/M9599YiZ+M93M+H6WmbeimtmoTn2z676tTMvtNzZVSj3G9czWBx9i9l3/ZTNs+rPmrr7dTLvbWpsNSv16VkQAAQQQiFKgYp8Nbk+WzPjQjH7vM/PNjLnm95p1zDZNDjCH7rOd2aDUnzd8RriiVAgggEDuBKL5fFhhfv1mvBn97hfmux8XmJW16pr622xrdm62p9l1i9JeB4/Phtz9FmR3z3yDIrveud3bqu/N0IGDzKTfi7pRrZnZu+UWpbv2xKqfzceD/m16HN7cND3sfNN3xAQzY958M+vzoebuc481rXZuZPY7tbd58/vSn6xRpf6BplXzasasXmY+e2KAeYWLUeT2d4O9I4BA/gqU97PBF/vlffPwhUeaFs1amiM6n27O63W5ueSc7ubYVruaxq3ONvf+3/dmuf+aEmo+I0qA4WkEEEAgmwIV/nxYar576wFzaYfdzfa7dDC9+r5k3n7/ffPmwJvM6e1amaZNWpoOF91r3phWuk8HPhuyGX7u9sUBitzZZ33Pq6YPNy+++qNZXbTnwq2amCYNS3F6x4rvzIuXdjBtTrzCDJixj+nz9lgzpP+d5uYbbjX3PDbCvP3SFWa/GnPNB49dZrqc2ceMX1TKYVVtaHbZtZ6Rr/CsnDXUPDd0uuF6maW0YzUEEEAgQoFyfTZ4+189/w1z9bEdTI8+I8zkX+VTRj2KDkTPHPuguaDDMeaSwd+U7iAFnxEKkCYCCCCQG4EKfT6smGaGXX+cOfTIi8xLq/5h+o6fbCaOe9W8+NzzZtiYd83zl+xpqv36uXn57gtMp+MuMoO+WrruQfLZsG6jFKzBAYoUhFi6Iawys0e/ZcYu+OMPx6o77WR2Wuc3qlaZ7wddZy689z3zy+rKZvNW/zD/2LmG2t16pu7B55t/HiMHGlaaH1/vbe556YdSHmiobhrv3Nis6cLqBWb066PM9xyhULY0EUAAgWwIlOezwevX6oXmvbuvMA/N399c1v8VM+bzaeb77yaad56725zTeitT+c+/NFYv+ND0Pfc8c9/HS7wNFFfyGVGcCs8hgAAC2ROowOfDqh/N6zecarrdNNL83vbf5tmnbjLHN6vz1+ng69UxB3U/yRyw5n7Vq82Cj/qZ8/71hJn6/+3deXxU5b3H8S8JSUhKUFlC4IZd4MoiKhBUUoHrBYqIhVI2e0W0Yl2u8MISpbYqrQji0nrxhXp9uZbWgNcr0AZU3ApWsUFZVEQoFlkkEMJi4Gaf4Z5JcgY6zGRmHs4siZ/8wcycOc9y3nNe8zvz43meE3QwNrEhep9/7FoiQRE7+yi3XKpNH29Q7X9sJSg9M1Otg84HPqK1q/O1r9rT1WodO3hAh89IIpyrHj26Ktmzi7tI73/wiUK59JQ1uaR1VpZa16yC4lZJwQZtDHX0hact/hBAAAEEHBAwiQ0+zZZv1d9OXKPfv7FUD950tQb36aysTr2UM36mFq/I1xMTutaMlvOUchet0cPzXw7hIpQY4aPMSwQQQCDKAqbxwaXdy+boloXrdLT1KN314M/U389Cc0ldh+nK7FTV/hh160jBJ/os6EwPYkOUT4KYNEeCIibsMWi0Ype+3HbASjN4/pLVPjPDe8EYuDdN9b3m6XVfHFZSI725zpwUkqCkpCQ1qanESmLs/0aHzkhi+G8hsU2G2tYt01pd/Lk+3x70W8l/RWxFAAEEEDATMIoNPk017arJs3M1ItNP1rtFP01/ZJ7+o4u9Jrdbh17/vZZtCf59T4zwceYlAgggEE0B0/hwbK2eemyZvq5uqk7XTNXEXmf+eqg5jJQ+mnDLT/SvadbP0YQ0dRt+hUK5uSCxIZonQWzasq8YYtM6rUZPoGqf9u7xrI7p+fMkG+zEQ+0W//+ep6vnPKX5iUu0Sf107Z0/lr/rz9PLusvKVOqZReLnOvX0/TzPm7ZupZb2fpW7tfcbT/8CfIn5FuY1AggggMDZCxjFBp9mk9sqMzPwnMHEDj/U9Osu0dLfFKjcKuou3ai/rPtKuQN6nRru61Ol5yUxwg8KmxBAAIFoCRjFB2taSP4LWrK5vOaOgYNycpQRsL+J6jxxkd7sNk6bjrTTwKH9lBnCLQGJDQFBG80bJCgazUcZ5ECqDqu4qHb8hKzxDikpKXUjI+ovl9RllHKfHOV/p6qD2rRqqZ5dvd276NlJl0sun/XR/Be20iRWH1LsMTzu4youPmqtX5EeSm4jUJVsRwABBBAIR8AwNvg2UTuKzner/TpNF48Yqb4PF2iDJ0OhMm3eskXH1Ust7V38PBIj/KCwCQEEEIiWgFF8+FZ/fe89FXl+CzTrqvO7nROktynK6v8DZQXZ6/S3iQ2nazTO5/bPw8Z5dByVV8D1fxWqOGm/TFBKUmgJCrvE6Y9l+z/Wq4/N0NjBI3Xn8iJldmkbwnSR02uofZ7YzEpQeK9q3SovL6u5w8iZe7IFAQQQQCASAk7Ghvr6l9r7Ql3Y0r7kcKu0uFiHgyyGRoyoT5T3EEAAgcgKGMWHsu3auvVw7ZTyhBZq0cL+3neur8QG5yzjtSbnz5p4PdLveL8SE5v804gJlzvEhSK8blUq3PCKHrn9amVfeqOWHuuvWXnr9N5Lc607e5xrNurBWtrdm5+w2jnp9mZQvK3yBAEEEEAgcgJnHxtC7FtqJ3Xu3My780l7OqB3i58nxAg/KGxCAAEEoiNgFB+su3cU7qubUu4uVWlZiMOqwzkkYkM4Wg1yX6Z4NMiPzaDTqalqluDJR3m+KNyqrKyseWYvAVFfja5DBXpp3i8179l1cg2eoXkrXtK1l7SqS0oE+S+weip2lVWo0puTSFCzZvZKvvUU4i0EEEAAAecEziI2hNUJ63/S0tNPpaQTW7TQOUGuQIgRYQmzMwIIIOCsgEl8OFmlypqpfFZXqg/q4EF7erlzXSM2OGcZrzUxgiJePxmn+5XcWhnt7avBkyFPp6jY+b/KHTdGP1v0rr4d9Ev9Me8RXedNTpxlJ60EhXcd94TvqVXr88xGYpxlNyiOAAIIfGcFDGND+F5N1MR7xZGsrG5dlREsQ06MCJ+ZEggggIBTAibxoUm6WtjT+awExZZPvzx1re9Uv4gNTknGbT3ey4W47SEdc0YgqZM6drSXxq1W8eHD1oKUQf4qPtXTM2/Tf31QpOqm3TRl1h3KaRWkTBhvVx8v0XG7E8md1CHL7l8YlbArAggggIC5gElsMGnN/a1KSuqGzDVtq8GXD1BakHqIEUGAeBsBBBCIpIBJfEhqp3btk+t6VaqNq1ZrU1mInSzZo91F9g+DwGWIDYFtGss7JCgayycZ7DiSOqh3386q/cqo1oGDh4JmNE+8v0TPvl1Uu3Blam/1vbBFsFbCet91wJqnVjfyK6FlL/XqGfg2dWFVzM4IIIAAAqEJGMSG0Cr22at0l77aWTvut2nnqzQqp777d9SWJUb4GPISAQQQiKaASXxI6aFL+neq+70hlX+8RE8v/zr4f4q69mrlr6Zr3rv7g+5LbIjmSRCbtkhQxMY9Bq2mqV/2ILWtmeVh3TFj317t9s6v8NedKn29eZN21a1zI3eltW6Fv4Vu3Kqw1rPwLiXhr6oA245bCYoDNQmKBKUPHKgBzuY/ArTKZgQQQACBUwLhxoZTJcN5VlKwXn87asWQhHTl/HS6RrUNXpoYEdyIPRBAAIHICZjEhzRlj7xKPe1BFNVfKe/+X+i5Lcfr6eZRbXhylu7bNVozxnUIOt2b2FAPZSN5iwRFI/kgQzmMNkNG6srM2nUoyr/4QttO1FfKJ/FQtkFvv7VTvktiug58qD+99bns9XDc1srsoS3YW6Yvt3+pck/OI6G5Lvu3YeoQbD5yfd3lPQQQQAABI4HwYoNBE649ys9bqb9XJui8nDs19+b+Cj5ejhhhIE0RBBBAwFEBk/hw7pDrdMOwVt67B1bufEWzJk3Vb1ZuU4lP71xHtuq1e6do/L2FGnf3NPVN8dnhjJfEhjNIGuEGEhSN8EMNeEgZwzVpfI+aYVfuks/02dbSgLtKKerSs6da2+tqug9p9UOz9MCKrTpkJSEO/2OD/rQ4VxNG3a53qtp5h3JV7tiojXsq5CrZrtdfW6v9gaaSVe3Tp1t2yjNAI6HVcI0f012sQFHPx8FbCCCAQKQEwooNdZ1oYi16afen+pD2F/pedtpvWheTL9+nB/J2K7nnJC1cdJeGBJ/dIREjbEAeEUAAgdgJmMSHlH6aPm+OhmfYPzPdKt2+Qvf/aID6DBqrG2bk6p57cvWfN4xTzsXZmvDQ3zVowWLNzglhKDWxIXbnQhRbts+cKDZJU7ETOE/Drp+m759jfezl27V23dZ616FoOWKqpg1s4c2AVu99Uw+Mu1BZLVsqs/ulGj+vQJ3uekXLfz1a59cN5XIfydfM7A5q12Gw5n5UKju/4XvMroMfav1Gz6o5yeoxcaqu6cLwCV8jXiOAAALREQgvNnj6lNZnhMbltJd1O3qpcoeeufXHuu3x1/TR1yV184ddOrrjPb14z2SNvT1PJdl36Lnlz2p6v2BLY9YeMTGi1oF/EUAAgdgKhB8fPP1tPmCmnnnhbg2tnVteewjuUu0tWKkXn3hUCxY8qsUvrlBBcXuNmf+8Ft98kZqHcKDEhhCQGsEuJCgawYcYziGkXHyjZt/Yx0oLlGrz2+/oi/rWoUj/vnKfe15zRp+vNO+Z4lZ1YltdNm2h/vz+Kv1uSh+1uXyybrwysy4Z4Za7PFUDZr+sVx8cFeA2ci7tfePPWnPIrYSMEbrtlpHKCOcg2BcBBBBAwFGBsGKDp+U2V2pu/nq9+8wvNHVkP2Uc+6uemjVel3VrpXNad1DHdlYi+4Ixuv+dRF218HV9sOZxTb4gtOSErBQHMcLRj5fKEEAAAWOBsONDTUtJ6njVfC1/Z5l+fe0gZZ36IVHbD2s9om7/fot+u/xN5eUOCfB7wbfLxAZfkcb6uslJ66+xHhzH5V/AVZivn4+epCe29VDu6nV6aFi6/x3trVWHtXPjJ9q8fZ9Km7VTz+wcDersU6Zkh9auWa+dJSnKumSohl6UaU0SCfBXsVmPXj1Ud/8lVaMfe0PLZvQLYT5ygLrYjAACCCDgiEDYseG0VssObtOWrbtUWFSsIydcSmuZqX/pfpEG9m0X/vc7MeI0WZ4igAACsRc4m/jg6f2JPRv10aYd+uaQtQBe8zbq3PdSXdq7beDfCv4OmdjgT6VRbiNB0Sg/1uAHdWTdXI0du0B7xjyvdc//RB2jNsPCpcJXb9UVU15Q+ZhFeiPvVvUOmMkIfhzsgQACCCDgnEDsYoN9DMQIW4JHBBBAIJ4EYhsfiA3xdC5Eui/egfuRboj640ug5RWz9fh9w1XxynwtzC8Mes9hp3rvKlylBQ/8UYUXTNPDC28iOeEULPUggAACDgjEKjbYXSdG2BI8IoAAAvElEMv4QGyIr3Mh0r1JnGv9RboR6o9HgWS163+5uh/L10NPf6KMYT/QxRkRvo9G2TYtmXmTHtw9TL/LW6zrewW/0Vw8ytEnBBBAoPEKxCA22JjECFuCRwQQQCAOBWIUH4gNcXguRLZLTPGIrG/8116xU//z8ym6Y/1ALVr6mCZ2j1DSoKadybr9ra66d8kzuiP73Pi3oYcIIIDAd1UgWrHB9iVG2BI8IoAAAvEtEM34QGyI73MhQr1jikeEYBtMtSnna8IjL+upkf/Qr370Uy36sMj56R5HNui/b56iBUUT9Ic1S0hONJiTg44igMB3ViAascHGJUbYEjwigAAC8S8QrfhAbIj/cyFCPWQERYRgG161pfpq1W9118K9mrj0SU1q79SqmUVaPvN6rew2R/NvHaL2EZ5F0vDc6TECCCAQzwKRig32MRMjbAkeEUAAgYYlEMn4QGxoWOeCs70lQeGsZ4OvzVVWpurU1PBu+xPkqCvKKpSSyq06gjDxNgIIIBC3ApGIDfbBEiNsCR4RQACBhicQqfhAbGh454JTPSZB4ZQk9SCAAAIIIIAAAggggAACCCCAgLEAa1AY01EQAQQQQAABBBBAAAEEEEAAAQScEiBB4ZQk9SCAAAIIIIAAAggggAACCCCAgLEACQpjOgoigAACCCCAAAIIIIAAAggggIBTAiQonJKkHgQQQAABBBBAAAEEEEAAAQQQMBYgQWFMR0EEEEAAAQQQQAABBBBAAAEEEHBKgASFU5LUgwACCCCAAAIIIIAAAggggAACxgIkKIzpKIgAAggggAACCCCAAAIIIIAAAk4JkKBwSpJ6EEAAAQQQQAABBBBAAAEEEEDAWIAEhTEdBRFAAAEEEEAAAQQQQAABBBBAwCkBEhROSVIPAggggAACCCCAAAIIIIAAAggYC5CgMKajIAIIIIAAAggggAACCCCAAAIIOCVAgsIpSepBAAEEEEAAAQQQQAABBBBAAAFjARIUxnQURAABBBBAAAEEEEAAAQQQQAABpwRIUDglST0IIIAAAggggAACCCCAAAIIIGAsQILCmI6CCCCAAAIIIIAAAggggAACCCDglAAJCqckqQcBBBBAAAEEEEAAAQQQQAABBIwFSFAY01EQAQQQQAABBBBAAAEEEEAAAQScEiBB4ZQk9SCAAAIIIIAAAggggAACCCCAgLEACQpjOgoigAACCCCAAAIIIIAAAggggIBTAiQonJKkHgQQQAABBBBAAAEEEEAAAQQQMBYgQWFMR0EEEEAAAQQQQAABBBBAAAEEEHBKgASFU5LUgwACCCCAAAIIIIAAAggggAACxgIkKIzpKIgAAggggAACCCCAAAIIIIAAAk4JkKBwSpJ6EEAAAQQQQAABBBBAAAEEEEDAWIAEhTEdBRFAAAEEEEAAAQQQQAABBBBAwCkBEhROSVIPAggggAACCCCAAAIIIIAAAggYC5CgMKajIAIIIIAAAggggAACCCCAAAIIOCVAgsIpSepBAAEEEEAAAQQQQAABBBBAAAFjARIUxnQURAABBBBAAAEEEEAAAQQQQAABpwRIUDglST0IIIAAAggggAACCCCAAAIIIGAsQILCmI6CCCCAAAIIIIAAAggggAACCCDglAAJCqckqQcBBBBAAAEEEEAAAQQQQAABBIwFSFAY01EQAQQQQAABBBBAAAEEEEAAAQScEiBB4ZQk9SCAAAIIIIAAAggggAACCCCAgLEACQpjOgoigAACCCCAAAIIIIAAAggggIBTAiQonJKkHgQQQAABBBBAAAEEEEAAAQQQMBYgQWFMR0EEEEAAAQQQQAABBBBAAAEEEHBKgASFU5LUgwACCCCAAAIIIIAAAggggAACxgIkKIzpKIgAAggggAACCCCAAAIIIIAAAk4JkKBwSpJ6EEAAAQQQQAABBBBAAAEEEEDAWOD/AY3lvDoEDXFpAAAAAElFTkSuQmCC;" vertex="1" parent="1">
          <mxGeometry x="10" y="10" width="1064" height="914" as="geometry" />
        </mxCell>
      </root>
    </mxGraphModel>
  </diagram>
</mxfile>
